<svg xmlns="http://www.w3.org/2000/svg"
viewBox="0 0 2.99 2.99">
   <path fill="white"class="fil0" d="M1.5 0c0.15 0 0.3 0.02 0.44 0.07l-0.19 0.19c-0.01 0.01-0.02 0.03-0.03 0.04-0.07-0.01-0.15-0.02-0.22-0.02-0.68 0-1.22 0.54-1.22 1.22 0 0.67 0.54 1.21 1.22 1.21 0.67 0 1.21-0.54 1.21-1.21 0-0.08 0-0.16-0.02-0.23 0.02-0.02 0.04-0.04 0.06-0.06l0.18-0.16c0.04 0.14 0.06 0.29 0.06 0.45 0 0.82-0.67 1.49-1.49 1.49-0.83 0-1.5-0.67-1.5-1.49 0-0.83 0.67-1.5 1.5-1.5zm0 0.59c0.05 0 0.1 0 0.15 0.01 0.01 0.03 0.02 0.06 0.03 0.09l0.04 0.11-0.08 0.08c-0.05-0.01-0.09-0.02-0.14-0.02-0.35 0-0.64 0.29-0.64 0.64 0 0.35 0.29 0.63 0.64 0.63 0.35 0 0.63-0.28 0.63-0.63 0-0.05 0-0.1-0.01-0.14l0.08-0.08 0.13 0.04c0.02 0.01 0.04 0.02 0.06 0.02 0.01 0.05 0.02 0.1 0.02 0.16 0 0.5-0.41 0.91-0.91 0.91-0.5 0-0.91-0.41-0.91-0.91 0-0.5 0.41-0.91 0.91-0.91zm0.45 0.26l-0.08-0.23c-0.04-0.09-0.03-0.16 0.03-0.22l0.34-0.35c0.08-0.08 0.2-0.04 0.23 0.06l0.09 0.31 0.31 0.1c0.11 0.04 0.16 0.16 0.08 0.23l-0.33 0.32c-0.09 0.09-0.14 0.09-0.23 0.06l-0.24-0.09-0.57 0.56c-0.05 0.05-0.14 0.05-0.19 0-0.05-0.06-0.05-0.14 0-0.2l0.56-0.55z"/>
   </svg>