<?xml version="1.0" encoding="UTF-8"?>
<!DOCTYPE svg PUBLIC "-//W3C//DTD SVG 1.1//EN" "http://www.w3.org/Graphics/SVG/1.1/DTD/svg11.dtd">
<!-- Creator: CorelDRAW 2019 (64 Bit) -->
<svg xmlns="http://www.w3.org/2000/svg" xml:space="preserve" width="205px" height="205px" version="1.1" style="shape-rendering:geometricPrecision; text-rendering:geometricPrecision; image-rendering:optimizeQuality; fill-rule:evenodd; clip-rule:evenodd"
viewBox="0 0 12.37 12.37"
 xmlns:xlink="http://www.w3.org/1999/xlink"
 xmlns:xodm="http://www.corel.com/coreldraw/odm/2003">
 <defs>
  <style type="text/css">
   <![CDATA[
    .fil0 {fill:#00A9B0}
   ]]>
  </style>
 </defs>
 <g id="Camada_x0020_1">
  <metadata id="CorelCorpID_0Corel-Layer"/>
  <path class="fil0" d="M4.5 7.44c0.37,0 0.67,0.3 0.67,0.67 0,0.38 -0.3,0.68 -0.67,0.68l-2.26 0c-0.38,0 -0.68,-0.3 -0.68,-0.68 0,-0.14 0.04,-0.27 0.12,-0.38l2.35 -3.9c0.2,-0.32 0.61,-0.42 0.93,-0.23 0.1,0.06 0.18,0.14 0.24,0.24l2.5 3.88c0.2,0.31 0.11,0.73 -0.2,0.93 -0.31,0.2 -0.73,0.11 -0.93,-0.2l-1.94 -3 -1.2 1.99 1.07 0zm1.68 -7.44c2.46,0 4.58,1.43 5.57,3.5l-4.01 0c0.2,0.17 0.32,0.42 0.32,0.7l0 0.65 0.89 0 0 3.35c0,0.37 0.3,0.68 0.68,0.68 0.37,0 0.67,-0.31 0.67,-0.68l0 -3.35 1.92 0c0.1,0.43 0.15,0.88 0.15,1.33 0,3.42 -2.77,6.19 -6.19,6.19 -3.41,0 -6.18,-2.77 -6.18,-6.19 0,-3.41 2.77,-6.18 6.18,-6.18zm0.27 4.2c0,-0.37 0.3,-0.67 0.68,-0.67 0.37,0 0.67,0.3 0.67,0.67l0 3.29 -1.35 -2.1 0 -1.19z"/>
 </g>
</svg>
