<?xml version="1.0" encoding="UTF-8"?>
<!DOCTYPE svg PUBLIC "-//W3C//DTD SVG 1.1//EN" "http://www.w3.org/Graphics/SVG/1.1/DTD/svg11.dtd">
<!-- Creator: CorelDRAW 2019 (64 Bit) -->
<svg xmlns="http://www.w3.org/2000/svg" xml:space="preserve" width="41px" height="36px" version="1.1" style="shape-rendering:geometricPrecision; text-rendering:geometricPrecision; image-rendering:optimizeQuality; fill-rule:evenodd; clip-rule:evenodd"
viewBox="0 0 1.06 0.93"
 xmlns:xlink="http://www.w3.org/1999/xlink"
 xmlns:xodm="http://www.corel.com/coreldraw/odm/2003">
 <defs>
  <style type="text/css">
   <![CDATA[
    .fil0 {fill:#000000}
   ]]>
  </style>
 </defs>
 <g id="Camada_x0020_1">
  <metadata id="CorelCorpID_0Corel-Layer"/>
  <path class="fil0" d="M0.53 0c-0.29,0 -0.53,0.19 -0.53,0.43 0,0.1 0.04,0.2 0.12,0.27 -0.03,0.11 -0.11,0.2 -0.12,0.2 0,0 0,0.01 0,0.02 0,0 0.01,0.01 0.02,0.01 0.13,0 0.24,-0.07 0.29,-0.11 0.07,0.03 0.14,0.04 0.22,0.04 0.29,0 0.53,-0.19 0.53,-0.43 0,-0.24 -0.24,-0.43 -0.53,-0.43zm-0.27 0.5c-0.03,0 -0.06,-0.03 -0.06,-0.07 0,-0.04 0.03,-0.07 0.06,-0.07 0.04,0 0.07,0.03 0.07,0.07 0,0.04 -0.03,0.07 -0.07,0.07zm0.27 0c-0.04,0 -0.07,-0.03 -0.07,-0.07 0,-0.04 0.03,-0.07 0.07,-0.07 0.04,0 0.07,0.03 0.07,0.07 0,0.04 -0.03,0.07 -0.07,0.07zm0.26 0c-0.03,0 -0.06,-0.03 -0.06,-0.07 0,-0.04 0.03,-0.07 0.06,-0.07 0.04,0 0.07,0.03 0.07,0.07 0,0.04 -0.03,0.07 -0.07,0.07z" fill="currentColor"/>
 </g>
</svg>
