<?xml version="1.0" encoding="UTF-8"?>
<!DOCTYPE svg PUBLIC "-//W3C//DTD SVG 1.1//EN" "http://www.w3.org/Graphics/SVG/1.1/DTD/svg11.dtd">
<!-- Creator: CorelDRAW 2019 (64 Bit) -->
<svg xmlns="http://www.w3.org/2000/svg" xml:space="preserve" width="40px" height="42px" version="1.1" style="shape-rendering:geometricPrecision; text-rendering:geometricPrecision; image-rendering:optimizeQuality; fill-rule:evenodd; clip-rule:evenodd"
viewBox="0 0 38.45 40.7"
 xmlns:xlink="http://www.w3.org/1999/xlink"
 xmlns:xodm="http://www.corel.com/coreldraw/odm/2003">
 <defs>
  <style type="text/css">
   <![CDATA[
    .fil7 {fill:#FFCC29}
    .fil5 {fill:#FBB12F}
    .fil2 {fill:#F89F32}
    .fil4 {fill:#F58634}
    .fil3 {fill:#A8CF45}
    .fil9 {fill:#8FC74A}
    .fil0 {fill:#76C04E}
    .fil8 {fill:#21B354}
    .fil6 {fill:#0C9754}
    .fil1 {fill:#017E52}
   ]]>
  </style>
 </defs>
 <g id="Layer_x0020_1">
  <metadata id="CorelCorpID_0Corel-Layer"/>
  <g id="_2676062281808">
   <polygon class="fil0" points="18.51,11.06 11.98,8.93 0,11.38 10.5,14.18 "/>
   <path class="fil1" d="M18.44 17.59l0 -5.04 -7.64 3.06c-0.45,2.88 -0.79,5.41 -0.83,8.13l8.47 -6.15z"/>
   <path class="fil2" d="M19.23 40.7c-7.25,-2.65 -9.15,-8.66 -9.25,-15l9.25 -6.72 9.25 6.72c-0.1,6.34 -2.01,12.35 -9.25,15z"/>
   <polygon class="fil3" points="12.46,7.52 18.42,9.76 18.44,4.94 9.81,0 "/>
   <path class="fil4" d="M3.27 28.54c-0.75,-3.74 -0.52,-8.49 1.04,-14.47l5.26 1.34c-0.84,3.55 -1.21,6.66 -1.2,9.4l-5.1 3.73z"/>
   <path class="fil5" d="M15.91 40.5c-5.73,-1.32 -10.39,-4.35 -12.22,-10.33l4.76 -3.47c0.5,6.76 1.91,10.41 7.46,13.8z"/>
   <path class="fil6" d="M20.01 17.59l0 -5.04 7.65 3.06c0.45,2.88 0.78,5.41 0.82,8.13l-8.47 -6.15z"/>
   <path class="fil5" d="M35.18 28.54c0.76,-3.74 0.53,-8.49 -1.04,-14.47l-5.26 1.34c0.85,3.55 1.22,6.66 1.2,9.4l5.1 3.73z"/>
   <path class="fil7" d="M22.54 40.5c5.73,-1.32 10.4,-4.35 12.22,-10.33l-4.75 -3.47c-0.51,6.76 -1.92,10.41 -7.47,13.8z"/>
   <polygon class="fil8" points="19.94,11.06 26.47,8.93 38.45,11.38 27.95,14.18 "/>
   <polygon class="fil9" points="26,7.52 20.03,9.76 20.01,4.94 28.65,0 "/>
  </g>
 </g>
</svg>
