<?xml version="1.0" encoding="UTF-8"?>
<!DOCTYPE svg PUBLIC "-//W3C//DTD SVG 1.1//EN" "http://www.w3.org/Graphics/SVG/1.1/DTD/svg11.dtd">
<!-- Creator: CorelDRAW 2019 (64 Bit) -->
<svg xmlns="http://www.w3.org/2000/svg" xml:space="preserve" width="181px" height="95px" version="1.1" style="shape-rendering:geometricPrecision; text-rendering:geometricPrecision; image-rendering:optimizeQuality; fill-rule:evenodd; clip-rule:evenodd"
viewBox="0 0 21.08 11.09"
 xmlns:xlink="http://www.w3.org/1999/xlink"
 xmlns:xodm="http://www.corel.com/coreldraw/odm/2003">
 <defs>
  <style type="text/css">
   <![CDATA[
    .fil0 {fill:#00A9B0}
   ]]>
  </style>
 </defs>
 <g id="Camada_x0020_1">
  <metadata id="CorelCorpID_0Corel-Layer"/>
  <path class="fil0" d="M4.03 6.67c0.34,0 0.61,0.27 0.61,0.6 0,0.34 -0.27,0.61 -0.61,0.61l-2.02 0c-0.34,0 -0.61,-0.27 -0.61,-0.61 0,-0.12 0.04,-0.24 0.1,-0.34l2.12 -3.5c0.17,-0.28 0.54,-0.37 0.83,-0.2 0.09,0.05 0.16,0.13 0.21,0.21l2.25 3.48c0.18,0.28 0.1,0.66 -0.19,0.84 -0.28,0.18 -0.65,0.1 -0.83,-0.19l-1.74 -2.68 -1.07 1.78 0.95 0zm1.51 -6.67c2.2,0 4.1,1.28 5,3.14l-3.6 0c0.18,0.15 0.29,0.38 0.29,0.63l0 0.58 0.79 0 0 3c0,0.34 0.28,0.61 0.61,0.61 0.34,0 0.61,-0.27 0.61,-0.61l0 -3 1.72 0c0.08,0.38 0.13,0.78 0.13,1.19 0,3.07 -2.48,5.55 -5.55,5.55 -3.06,0 -5.54,-2.48 -5.54,-5.55 0,-3.06 2.48,-5.54 5.54,-5.54zm0.24 3.77c0,-0.34 0.28,-0.61 0.61,-0.61 0.33,0 0.61,0.27 0.61,0.61l0 2.94 -1.22 -1.87 0 -1.07zm7.52 0.23l-0.19 0c-0.03,0.13 -0.12,0.21 -0.25,0.21 -0.08,0 -0.14,-0.03 -0.19,-0.07 -0.06,-0.07 -0.07,-0.14 -0.07,-0.39 0,-0.25 0.01,-0.32 0.07,-0.39 0.05,-0.05 0.11,-0.07 0.19,-0.07 0.13,0 0.22,0.08 0.25,0.21l0.19 0c-0.04,-0.25 -0.22,-0.38 -0.44,-0.38 -0.13,0 -0.25,0.04 -0.33,0.13 -0.12,0.12 -0.12,0.26 -0.12,0.5 0,0.24 0,0.38 0.12,0.5 0.08,0.09 0.2,0.13 0.33,0.13 0.22,0 0.4,-0.13 0.44,-0.38zm0.85 -0.44c-0.06,-0.06 -0.12,-0.08 -0.21,-0.08 -0.1,0 -0.19,0.04 -0.23,0.1l0 -0.09 -0.18 0 0 0.88 0.18 0 0 -0.54c0,-0.12 0.08,-0.2 0.18,-0.2 0.06,0 0.09,0.02 0.13,0.06l0.13 -0.13zm0.8 0.42l0 -0.08c0,-0.25 -0.14,-0.42 -0.38,-0.42 -0.23,0 -0.37,0.16 -0.37,0.45 0,0.34 0.17,0.45 0.39,0.45 0.16,0 0.25,-0.04 0.34,-0.14l-0.12 -0.1c-0.06,0.06 -0.11,0.09 -0.21,0.09 -0.15,0 -0.23,-0.1 -0.23,-0.25l0.58 0zm-0.18 -0.12l-0.4 0c0,-0.06 0.01,-0.08 0.03,-0.12 0.02,-0.07 0.09,-0.12 0.17,-0.12 0.09,0 0.15,0.05 0.18,0.12 0.01,0.04 0.02,0.06 0.02,0.12zm1.07 0.51l0 -0.59c0,-0.2 -0.13,-0.3 -0.37,-0.3 -0.15,0 -0.23,0.03 -0.32,0.12l0.12 0.11c0.05,-0.06 0.1,-0.08 0.19,-0.08 0.14,0 0.2,0.05 0.2,0.16l0 0.07 -0.24 0c-0.2,0 -0.3,0.1 -0.3,0.25 0,0.08 0.02,0.14 0.07,0.19 0.05,0.06 0.12,0.08 0.23,0.08 0.12,0 0.18,-0.02 0.24,-0.09l0 0.08 0.18 0zm-0.18 -0.32c0,0.07 -0.01,0.11 -0.04,0.13 -0.05,0.05 -0.1,0.05 -0.17,0.05 -0.11,0 -0.16,-0.04 -0.16,-0.12 0,-0.08 0.05,-0.13 0.16,-0.13l0.21 0 0 0.07zm0.82 0.32l0 -0.15 -0.07 0c-0.07,0 -0.1,-0.04 -0.1,-0.1l0 -0.48 0.17 0 0 -0.14 -0.17 0 0 -0.27 -0.18 0 0 0.27 -0.1 0 0 0.14 0.1 0 0 0.49c0,0.12 0.08,0.24 0.24,0.24l0.11 0zm0.41 -1.06l0 -0.19 -0.19 0 0 0.19 0.19 0zm0 1.06l0 -0.88 -0.18 0 0 0.88 0.18 0zm0.95 -0.88l-0.19 0 -0.21 0.62 -0.21 -0.62 -0.19 0 0.33 0.88 0.14 0 0.33 -0.88zm0.84 0.49l0 -0.08c0,-0.25 -0.14,-0.42 -0.37,-0.42 -0.23,0 -0.38,0.16 -0.38,0.45 0,0.34 0.18,0.45 0.4,0.45 0.15,0 0.24,-0.04 0.33,-0.14l-0.11 -0.1c-0.07,0.06 -0.12,0.09 -0.22,0.09 -0.14,0 -0.22,-0.1 -0.22,-0.25l0.57 0zm-0.18 -0.12l-0.39 0c0,-0.06 0,-0.08 0.02,-0.12 0.03,-0.07 0.09,-0.12 0.18,-0.12 0.08,0 0.14,0.05 0.17,0.12 0.02,0.04 0.02,0.06 0.02,0.12zm-5.28 1.22l0 -0.17 -0.88 0 0 0.17 0.35 0 0 1.07 0.19 0 0 -1.07 0.34 0zm0.78 0.68l0 -0.08c0,-0.25 -0.14,-0.42 -0.38,-0.42 -0.23,0 -0.38,0.16 -0.38,0.45 0,0.34 0.18,0.45 0.4,0.45 0.16,0 0.24,-0.04 0.33,-0.13l-0.11 -0.11c-0.06,0.06 -0.11,0.09 -0.21,0.09 -0.15,0 -0.23,-0.1 -0.23,-0.25l0.58 0zm-0.18 -0.12l-0.4 0c0,-0.06 0.01,-0.08 0.02,-0.12 0.03,-0.07 0.1,-0.11 0.18,-0.11 0.08,0 0.15,0.04 0.17,0.11 0.02,0.04 0.03,0.06 0.03,0.12zm1.05 0.4l-0.12 -0.12c-0.06,0.06 -0.1,0.08 -0.17,0.08 -0.07,0 -0.13,-0.02 -0.16,-0.07 -0.04,-0.05 -0.06,-0.12 -0.06,-0.22 0,-0.1 0.02,-0.17 0.06,-0.22 0.03,-0.05 0.09,-0.07 0.16,-0.07 0.07,0 0.11,0.02 0.17,0.08l0.12 -0.12c-0.08,-0.09 -0.17,-0.12 -0.29,-0.12 -0.2,0 -0.39,0.12 -0.39,0.45 0,0.33 0.19,0.45 0.39,0.45 0.12,0 0.21,-0.03 0.29,-0.12zm0.92 0.11l0 -0.57c0,-0.19 -0.11,-0.32 -0.3,-0.32 -0.09,0 -0.17,0.03 -0.23,0.1l0 -0.45 -0.18 0 0 1.24 0.18 0 0 -0.54c0,-0.13 0.08,-0.19 0.18,-0.19 0.1,0 0.18,0.06 0.18,0.19l0 0.54 0.17 0zm1 0l0 -0.56c0,-0.1 -0.02,-0.19 -0.09,-0.25 -0.06,-0.05 -0.13,-0.08 -0.22,-0.08 -0.09,0 -0.18,0.03 -0.24,0.1l0 -0.09 -0.17 0 0 0.88 0.18 0 0 -0.54c0,-0.13 0.08,-0.19 0.18,-0.19 0.1,0 0.18,0.06 0.18,0.19l0 0.54 0.18 0zm0.97 -0.44c0,-0.15 -0.02,-0.26 -0.11,-0.35 -0.05,-0.06 -0.14,-0.1 -0.26,-0.1 -0.12,0 -0.21,0.04 -0.27,0.1 -0.08,0.09 -0.1,0.2 -0.1,0.35 0,0.15 0.02,0.26 0.1,0.35 0.06,0.06 0.15,0.1 0.27,0.1 0.12,0 0.21,-0.04 0.26,-0.1 0.09,-0.09 0.11,-0.2 0.11,-0.35zm-0.18 0c0,0.1 -0.01,0.19 -0.06,0.24 -0.03,0.04 -0.08,0.05 -0.13,0.05 -0.05,0 -0.1,-0.01 -0.13,-0.05 -0.06,-0.05 -0.06,-0.14 -0.06,-0.24 0,-0.1 0,-0.19 0.06,-0.24 0.03,-0.04 0.08,-0.05 0.13,-0.05 0.05,0 0.1,0.01 0.13,0.05 0.05,0.05 0.06,0.14 0.06,0.24zm0.77 0.44l0 -0.15 -0.08 0c-0.07,0 -0.1,-0.03 -0.1,-0.1l0 -0.99 -0.18 0 0 1c0,0.13 0.08,0.24 0.25,0.24l0.11 0zm0.86 -0.44c0,-0.15 -0.03,-0.26 -0.11,-0.35 -0.06,-0.06 -0.14,-0.1 -0.27,-0.1 -0.12,0 -0.2,0.04 -0.26,0.1 -0.08,0.09 -0.1,0.2 -0.1,0.35 0,0.15 0.02,0.26 0.1,0.35 0.06,0.06 0.14,0.1 0.26,0.1 0.13,0 0.21,-0.04 0.27,-0.1 0.08,-0.09 0.11,-0.2 0.11,-0.35zm-0.18 0c0,0.1 -0.01,0.19 -0.06,0.24 -0.04,0.04 -0.08,0.05 -0.14,0.05 -0.05,0 -0.09,-0.01 -0.12,-0.05 -0.06,-0.05 -0.07,-0.14 -0.07,-0.24 0,-0.1 0.01,-0.19 0.07,-0.24 0.03,-0.04 0.07,-0.05 0.12,-0.05 0.06,0 0.1,0.01 0.14,0.05 0.05,0.05 0.06,0.14 0.06,0.24zm1.09 0.44l0 -0.88 -0.17 0 0 0.09c-0.07,-0.08 -0.14,-0.1 -0.23,-0.1 -0.09,0 -0.17,0.02 -0.22,0.07 -0.08,0.09 -0.1,0.21 -0.1,0.36 0,0.15 0.02,0.28 0.1,0.36 0.05,0.05 0.13,0.08 0.22,0.08 0.09,0 0.16,-0.02 0.22,-0.1l0 0.11c0,0.12 -0.05,0.23 -0.2,0.23 -0.09,0 -0.14,-0.03 -0.2,-0.08l-0.11 0.11c0.09,0.09 0.18,0.12 0.31,0.12 0.24,0 0.38,-0.16 0.38,-0.37zm-0.18 -0.46c0,0.14 -0.01,0.28 -0.18,0.28 -0.16,0 -0.18,-0.14 -0.18,-0.28 0,-0.14 0.02,-0.27 0.18,-0.27 0.17,0 0.18,0.13 0.18,0.27zm1.14 -0.42l-0.2 0 -0.2 0.62 -0.21 -0.62 -0.19 0 0.31 0.84 -0.05 0.14c-0.03,0.07 -0.05,0.09 -0.13,0.09l-0.04 0 0 0.16 0.07 0c0.07,0 0.13,-0.01 0.18,-0.06 0.03,-0.03 0.05,-0.06 0.06,-0.11l0.4 -1.06zm-7.84 2.67l0 -0.23 -0.56 0 0 -0.32 0.48 0 0 -0.23 -0.48 0 0 -0.31 0.56 0 0 -0.23 -0.8 0 0 1.32 0.8 0zm0.94 0l0 -1.32 -0.23 0 0 0.44c-0.06,-0.07 -0.12,-0.1 -0.22,-0.1 -0.08,0 -0.17,0.04 -0.22,0.09 -0.08,0.1 -0.09,0.26 -0.09,0.41 0,0.14 0.01,0.31 0.09,0.4 0.05,0.06 0.14,0.09 0.23,0.09 0.09,0 0.16,-0.03 0.22,-0.1l0 0.09 0.22 0zm-0.23 -0.48c0,0.15 -0.02,0.27 -0.15,0.27 -0.14,0 -0.15,-0.12 -0.15,-0.27 0,-0.16 0.01,-0.28 0.15,-0.28 0.13,0 0.15,0.12 0.15,0.28zm1.21 0.48l0 -0.96 -0.22 0 0 0.58c0,0.13 -0.08,0.17 -0.15,0.17 -0.07,0 -0.15,-0.04 -0.15,-0.17l0 -0.58 -0.22 0 0 0.61c0,0.11 0.02,0.2 0.09,0.28 0.05,0.05 0.12,0.08 0.21,0.08 0.08,0 0.17,-0.03 0.22,-0.1l0 0.09 0.22 0zm0.91 -0.12l-0.15 -0.16c-0.05,0.05 -0.09,0.07 -0.15,0.07 -0.05,0 -0.09,-0.02 -0.13,-0.06 -0.03,-0.04 -0.05,-0.11 -0.05,-0.21 0,-0.1 0.02,-0.17 0.05,-0.22 0.04,-0.04 0.08,-0.06 0.13,-0.06 0.06,0 0.1,0.02 0.15,0.08l0.15 -0.17c-0.08,-0.08 -0.17,-0.13 -0.3,-0.13 -0.18,0 -0.4,0.11 -0.4,0.5 0,0.39 0.22,0.49 0.4,0.49 0.13,0 0.22,-0.04 0.3,-0.13zm0.84 0.12l0 -0.63c0,-0.23 -0.13,-0.35 -0.38,-0.35 -0.15,0 -0.23,0.03 -0.32,0.14l0.14 0.15c0.05,-0.06 0.09,-0.08 0.17,-0.08 0.12,0 0.17,0.04 0.17,0.15l0 0.05 -0.21 0c-0.21,0 -0.31,0.12 -0.31,0.28 0,0.08 0.03,0.16 0.08,0.21 0.05,0.06 0.12,0.09 0.22,0.09 0.11,0 0.16,-0.03 0.23,-0.09l0 0.08 0.21 0zm-0.22 -0.36c0,0.06 -0.01,0.1 -0.03,0.13 -0.04,0.04 -0.08,0.04 -0.14,0.04 -0.09,0 -0.13,-0.04 -0.13,-0.11 0,-0.07 0.04,-0.11 0.12,-0.11l0.18 0 0 0.05zm0.87 0.36l0 -0.2 -0.08 0c-0.06,0 -0.08,-0.03 -0.08,-0.09l0 -0.46 0.16 0 0 -0.19 -0.16 0 0 -0.28 -0.22 0 0 0.28 -0.1 0 0 0.19 0.1 0 0 0.47c0,0.14 0.07,0.28 0.26,0.28l0.12 0zm0.92 -0.48c0,-0.18 -0.02,-0.29 -0.1,-0.38 -0.06,-0.06 -0.15,-0.12 -0.28,-0.12 -0.14,0 -0.22,0.06 -0.28,0.12 -0.08,0.09 -0.1,0.2 -0.1,0.38 0,0.17 0.02,0.28 0.1,0.37 0.06,0.07 0.14,0.12 0.28,0.12 0.13,0 0.22,-0.05 0.28,-0.12 0.08,-0.09 0.1,-0.2 0.1,-0.37zm-0.23 0c0,0.1 0,0.18 -0.05,0.23 -0.02,0.03 -0.06,0.04 -0.1,0.04 -0.05,0 -0.08,-0.01 -0.11,-0.04 -0.04,-0.05 -0.05,-0.13 -0.05,-0.23 0,-0.1 0.01,-0.19 0.05,-0.24 0.03,-0.02 0.06,-0.04 0.11,-0.04 0.04,0 0.08,0.02 0.1,0.04 0.05,0.05 0.05,0.14 0.05,0.24zm1.1 -0.4c-0.06,-0.07 -0.13,-0.1 -0.21,-0.1 -0.1,0 -0.19,0.05 -0.23,0.11l0 -0.09 -0.22 0 0 0.96 0.23 0 0 -0.58c0,-0.12 0.07,-0.18 0.14,-0.18 0.06,0 0.08,0.02 0.12,0.06l0.17 -0.18zm0.78 0.58c0,-0.17 -0.09,-0.27 -0.26,-0.29l-0.14 -0.01c-0.08,-0.01 -0.1,-0.05 -0.1,-0.08 0,-0.05 0.04,-0.1 0.13,-0.1 0.08,0 0.16,0.02 0.21,0.07l0.14 -0.15c-0.09,-0.09 -0.21,-0.12 -0.35,-0.12 -0.18,0 -0.34,0.11 -0.34,0.31 0,0.18 0.1,0.26 0.26,0.27l0.14 0.02c0.07,0 0.09,0.04 0.09,0.09 0,0.07 -0.08,0.1 -0.15,0.1 -0.07,0 -0.17,-0.02 -0.24,-0.09l-0.15 0.15c0.11,0.12 0.24,0.14 0.38,0.14 0.21,0 0.38,-0.1 0.38,-0.31z"/>
 </g>
</svg>
