<?xml version="1.0" encoding="UTF-8"?>
<!DOCTYPE svg PUBLIC "-//W3C//DTD SVG 1.1//EN" "http://www.w3.org/Graphics/SVG/1.1/DTD/svg11.dtd">
<!-- Creator: CorelDRAW 2019 (64 Bit) -->
<svg xmlns="http://www.w3.org/2000/svg" xml:space="preserve" width="200px" height="227px" version="1.1" shape-rendering="geometricPrecision" text-rendering="geometricPrecision" image-rendering="optimizeQuality" fill-rule="evenodd" clip-rule="evenodd"
viewBox="0 0 70.39 79.74"
 xmlns:xlink="http://www.w3.org/1999/xlink"
 xmlns:xodm="http://www.corel.com/coreldraw/odm/2003">
 <g id="Layer_x0020_1">
  <metadata id="CorelCorpID_0Corel-Layer"/>
  <path fill="#FFFFFF" d="M28.78 2.18c-9.1,3.24 -12.21,2.53 -17.09,10.85 -2.78,4.74 -5.32,6.69 -7.47,13.14 -1.2,3.58 -2.1,5 -2.61,9.22 -0.82,6.89 -1.61,7.14 -1.61,15.33 0,7.85 1.26,12.01 5.02,18.97 1.79,3.33 17.77,7.8 22.48,7.8 3.83,0 6,0.28 9.77,-0.66 3.55,-0.89 5.67,-0.27 10.37,-2.31 5.75,-2.5 12.37,-2.71 14.65,-9.54 0.2,-0.06 5.47,-9.01 5.39,-11.32 -0.07,-1.9 1.45,-4.69 1.24,-9.21 -0.23,-4.97 3.51,-8.93 -0.13,-17.76 -1.38,-3.34 0.91,-8.54 -5.51,-16.12 -5.84,-6.9 -4.02,-4.25 -12.85,-9.1 -2.5,-1.38 -16.15,-2.39 -18.81,-0.18 -0.27,0.22 -2.62,0.7 -2.84,0.89zm-0.02 5.14c-8.02,2.83 -10.76,2.21 -15.06,9.47 -2.46,4.13 -4.69,5.83 -6.6,11.46 -1.05,3.12 -1.85,4.36 -2.29,8.04 -0.73,6.01 -1.43,6.23 -1.43,13.36 0,6.86 1.12,10.48 4.43,16.55 1.58,2.91 15.68,6.81 19.83,6.81 3.38,0 5.29,0.24 8.62,-0.58 3.13,-0.78 5,-0.24 9.14,-2.02 5.07,-2.18 10.91,-2.36 12.92,-8.31 0.18,-0.06 4.83,-7.87 4.75,-9.88 -0.06,-1.66 1.29,-4.09 1.1,-8.03 -0.2,-4.33 3.1,-7.79 -0.12,-15.49 -1.21,-2.91 0.81,-7.45 -4.85,-14.06 -5.16,-6.01 -3.55,-3.71 -11.34,-7.94 -2.2,-1.19 -14.24,-2.08 -16.59,-0.15 -0.24,0.19 -2.31,0.61 -2.51,0.77zm13.98 47.65c-1.31,0.81 -0.92,4.65 -4.61,4.98 -2.9,0.25 -7.93,0.99 -9.12,-3.31 -0.37,-1.38 6.02,0.19 4.02,-4.23 -0.97,-2.17 0.94,0.19 -1.84,-2.59 -3.38,-3.38 -3.18,-5.91 -3.18,-11.01 0,-1.03 -0.14,-10.23 -0.07,-10.29 -2.77,0.6 -2.96,-4.06 -0.27,-3.27 1.28,0.38 0.42,-4.32 1.06,-5.21 1.37,-1.94 -1.11,-0.81 3.04,-1.01 2.32,-0.11 -1.55,-2.59 3.78,-1.51 0.98,0.2 0.89,-0.41 3.03,-0.15 2.65,0.33 6.92,-0.11 6.36,4.72 -0.63,5.39 0.15,1.09 0.29,5.36 0.09,2.67 -2.27,-1.52 -2.27,5.17 0,4.4 -0.66,7.62 -0.13,11.93 0.71,5.82 -4.1,3.01 -4.1,8.01 0,2.22 -0.31,1.42 3.49,1.95 0.14,0.02 0.54,0.45 0.52,0.46z"/>
  <g id="_2829797573472">
   <g>
    <path fill="#FFFFFF" d="M58.38 68.91c0.24,-0.08 0.52,-0.26 0.53,-0.5 -0.11,0.01 -0.05,-0.03 -0.28,0.19 -0.1,0.1 -0.19,0.13 -0.25,0.31z"/>
    <path fill="#FFFFFF" d="M60.62 67.59c0.15,-0.04 0.33,-0.3 0.31,-0.49 -0.09,0.02 -0.12,0.12 -0.2,0.19 -0.1,0.11 -0.19,0.12 -0.11,0.3z"/>
    <path fill="#FFFFFF" d="M57.62 70.66c0.16,-0.03 0.22,-0.24 0.26,-0.4 -0.27,0.01 -0.29,0.32 -0.26,0.4z"/>
    <path fill="#FFFFFF" d="M8.25 29.22c-0.03,-0.13 -0.04,-0.14 -0.15,-0.18 -0.14,0.15 -0.03,0.24 0.15,0.18z"/>
   </g>
   <g>
    <path fill="#FFFFFF" d="M30.11 77.45c0.04,0.14 0.02,0.09 0.15,0.15 0.16,-0.09 -0.01,-0.1 0.19,-0.14 0.15,0.2 -0.09,0.09 0.11,0.24 0.24,-0.11 -0.1,-0.19 0.23,-0.21 -0.06,0.17 -0.09,0.06 -0.1,0.21 0.25,0.07 1.02,0.03 1.31,0l0.6 -0.14c0.22,-0.06 0.23,0.05 0.78,-0.04 -0.05,-0.07 0.03,-0.07 -0.11,-0.07l-1.01 0.04c-0.26,0 -0.25,-0.07 -0.77,-0.07 -0.3,0 0.12,0.07 -0.52,0.07 -0.17,0 -0.07,-0.07 -0.74,-0.07 -0.04,0 -0.1,0.01 -0.12,0.03z"/>
    <path fill="#FFFFFF" d="M37.52 77.23c0.08,0.06 0.03,0.01 0.11,0.02 0.27,0.03 0.46,-0.11 0.89,-0.17 0.08,-0.01 0.22,-0.03 0.29,-0.04l0.79 -0.25c-0.24,-0.02 -0.34,0.02 -0.59,0.02 -0.34,0 -0.29,0 -0.59,0.08 -0.16,0.05 -0.09,0 -0.24,0.02 -0.28,0.04 -0.57,0.07 -0.66,0.32z"/>
    <path fill="#FFFFFF" d="M21.98 35.02c0.04,0.16 -0.07,0.1 0.41,0.19 0.34,0.06 0.88,0.25 1.02,-0.22 -0.24,-0.07 -0.16,-0.03 -0.41,-0.04 -0.56,-0.04 -0.32,0.03 -0.49,0.05 -0.19,0.02 -0.46,0.07 -0.53,0.02z"/>
    <path fill="#FFFFFF" d="M64.81 61.72c0.19,0 -0.06,0.14 0.26,-0.28 0.12,-0.15 0.5,-1.06 0.39,-1.15 -0.08,-0.06 -0.22,0.12 -0.26,0.2 -0.04,0.09 -0.42,1.15 -0.39,1.23z"/>
    <path fill="#FFFFFF" d="M2.95 61.57c0.13,0 0.26,-0.06 0.35,-0.11 0.02,-0.51 -0.47,-0.46 -0.58,-0.46 -0.09,-0.15 -0.01,-0.18 -0.18,-0.19 -0.02,0.08 0.01,0.41 0.08,0.47 0.14,0.15 0.14,-0.01 0.26,0.19 0.06,0.13 -0.08,0.05 0.07,0.1z"/>
    <path fill="#FFFFFF" d="M31.5 12.98c0.18,0.12 0.85,-0.18 0.85,-0.18 0.08,-0.05 0.02,-0.04 0.13,-0.09 0.07,-0.03 0.08,-0.01 0.15,-0.07 0.08,-0.07 0.17,-0.2 0.19,-0.3 -0.23,-0.01 -0.15,0.06 -0.34,0.14 -0.18,0.09 -0.23,0.08 -0.49,0.22 -0.29,0.16 -0.02,0.09 -0.34,0.18 -0.15,0.04 -0.11,-0.01 -0.15,0.1z"/>
    <path fill="#FFFFFF" d="M44.46 20.7c0.09,-0.11 0.12,-0.49 0.07,-0.6 -0.07,-0.16 -0.07,-0.06 -0.17,-0.2 -0.08,-0.12 -0.05,-0.15 -0.21,-0.18 0,0.03 0.01,0.51 0.03,0.58 0.03,0.13 0.06,0.09 0.12,0.21 0.07,0.16 -0.01,0.15 0.16,0.19z"/>
    <path fill="#FFFFFF" d="M33.63 15.51c0.29,-0.03 0.26,-0.13 0.52,-0.21 0.58,-0.18 0.3,-0.65 -0.2,-0.23 -0.1,0.07 -0.09,0.09 -0.2,0.17 -0.1,0.08 -0.11,0.09 -0.12,0.27z"/>
    <path fill="#FFFFFF" d="M62.01 67.12c0.08,0.43 -0.01,0.24 -0.01,0.44 0,0.06 0,0.05 0.01,0.09 0.14,-0.01 0.08,-0.07 0.2,-0.29l0.48 -1.07c-0.13,0.02 -0.14,0.07 -0.19,0.18 -0.08,0.17 -0.04,0.11 -0.15,0.22l-0.34 0.43z"/>
    <path fill="#FFFFFF" d="M28.08 23.4c0.14,-0.18 0.18,-0.61 0.13,-0.92 -0.19,-0.05 -0.06,0.03 -0.26,-0.06 -0.1,-0.05 0.03,-0.02 -0.1,-0.04 -0.09,0.21 0.07,0.12 0.1,0.3 0,0 0.01,0.11 0.01,0.13l0.12 0.59z"/>
    <path fill="#FFFFFF" d="M66.17 52.92c0.11,-0.03 0.09,0.02 0.13,-0.14 0.03,-0.09 0.04,-0.16 0.06,-0.25 0.01,-0.03 0.03,-0.34 0.02,-0.42 -0.19,-0.05 -0.4,0.03 -0.34,0.27 0.02,0.08 0.08,0.12 0.11,0.22 0.04,0.09 0.02,0.21 0.02,0.32z"/>
    <path fill="#FFFFFF" d="M63.01 27.09c0.45,0.09 0.4,-0.03 0.42,-0.44 -0.24,0 -0.39,0.21 -0.42,0.44z"/>
    <path fill="#FFFFFF" d="M35.54 17.74c0.08,-0.15 0.28,-0.44 0.21,-0.64 -0.21,-0.06 -0.27,0.07 -0.31,0.24 -0.03,0.11 0.04,0.33 0.1,0.4z"/>
    <path fill="#FFFFFF" d="M31.29 13.66c0.18,0.06 0.09,0 0.19,-0.02 0.18,-0.05 0.14,0.16 0.35,-0.06 0.07,-0.07 0.13,-0.08 0.13,-0.16 -0.01,-0.17 -0.25,-0.01 -0.36,0.03 -0.21,0.07 -0.34,0.01 -0.31,0.21z"/>
    <path fill="#FFFFFF" d="M32.71 31.67c0.25,0 0.25,-0.04 0.41,-0.07 0.21,-0.02 0.33,0.03 0.32,-0.18 -0.16,-0.05 -0.3,-0.01 -0.44,0.03 -0.22,0.06 -0.28,-0.01 -0.29,0.22z"/>
    <path fill="#FFFFFF" d="M32.36 18.48c0.07,0 0.03,0.01 0.09,-0.02 0.26,-0.14 0.15,-0.05 0.26,-0.18 0.09,-0.12 0.19,-0.22 0.25,-0.37 -0.22,0.02 -0.15,0.14 -0.37,0.22 -0.12,0.04 -0.21,0.01 -0.23,0.35z"/>
    <path fill="#FFFFFF" d="M12.81 44.38c0.31,0 0.27,-0.06 0.13,-0.28 -0.14,-0.01 -0.38,-0.05 -0.41,0.07 -0.05,0.15 0.13,0.21 0.28,0.21z"/>
    <path fill="#FFFFFF" d="M40.23 17.57c0.16,-0.02 0.13,-0.02 0.17,-0.16 0.28,-0.06 0.18,-0.04 0.21,-0.13 -0.05,-0.11 0.07,-0.05 -0.1,-0.09 -0.21,-0.06 -0.29,0.2 -0.28,0.38z"/>
    <path fill="#FFFFFF" d="M43.31 18.28c0.22,0 0.15,-0.2 0.12,-0.32 -0.33,0.02 -0.4,0.32 -0.12,0.32z"/>
   </g>
   <g>
    <path fill="#00A9B0" d="M16.24 25.41c0.08,-0.01 0.37,0.01 0.39,0.02 0.36,0.13 0.75,-0.03 0.85,-0.03 0.4,0 0.25,0.03 0.51,0.05 0.32,0.02 0.01,-0.09 0.32,-0.05 0,0 0.01,0.01 0.02,0.01l0.18 -0.01c0.05,0.07 0,0 0.03,0.06 0.05,0.13 -0.06,-0.06 0.01,0.03 0.07,-0.02 0.02,-0.02 0.06,-0.04 0.1,-0.05 0.08,0 0.16,-0.01 0.18,-0.02 -0.08,-0.12 0.22,-0.05l0.26 0.09c0.26,0.06 0.04,-0.04 0.54,0.03 0.07,-0.09 0,-0.07 0.11,-0.1 0.14,-0.04 0.07,0.04 0.2,-0.05 -0.12,-0.13 -0.25,-0.08 -0.43,-0.06l-1.7 -0.07c-0.65,0.07 -0.38,0.01 -0.94,0.02 -0.46,0.01 -1.04,-0.08 -1.51,-0.15 -0.27,-0.04 -0.35,0.02 -0.56,0 -0.27,-0.03 -0.37,-0.2 -0.37,0.16 -0.07,-0.01 -0.11,0 -0.14,0l-0.11 0.01c-0.1,0.01 -0.19,0 -0.24,0.02 0.07,0.04 0.24,0.04 0.32,0.04 0.62,0 0.11,0.13 0.57,-0.14 0.09,0.13 -0.06,-0.12 0.03,0.06 0.07,0.14 0.45,0.05 0.6,0.08 0.34,0.05 0.41,0.1 0.62,0.08z"/>
    <path fill="#00A9B0" d="M22.89 78.24c0.08,0.04 0.26,0.06 0.35,0.08 0.21,0.06 0.41,0 0.66,-0.04 0.12,-0.01 0.84,0.01 1.14,-0.12 0.34,-0.15 0.58,-0.05 0.73,-0.15 -0.08,-0.15 -0.12,-0.01 -0.29,0 -0.15,0.02 -0.25,-0.07 -0.37,-0.12 -0.13,0.1 -0.04,0.13 -0.22,0.13 -0.11,0 -0.17,-0.06 -0.27,-0.06 -0.14,-0.01 -0.33,0.1 -0.51,0.13 -0.33,0.04 -1.09,-0.04 -1.22,0.15z"/>
    <path fill="#00A9B0" d="M55.57 13.94c0.14,-0.08 0.3,-0.51 0.12,-0.74 -0.11,0.07 -0.29,0.49 -0.12,0.74z"/>
    <path fill="#00A9B0" d="M40.51 15.66c0,0.14 0.02,0.12 0.09,0.2 0.13,-0.06 0.19,-0.09 0.19,-0.28 -0.13,0 -0.2,0.03 -0.28,0.08z"/>
    <path fill="#00A9B0" d="M36.31 12.34c0.16,-0.01 0.3,-0.14 0.31,-0.28 -0.11,0 -0.11,0.02 -0.2,0.07 -0.1,0.07 -0.12,0.05 -0.11,0.21z"/>
   </g>
   <g>
    <path fill="#FBB03B" d="M31.34 36.03c0.86,-0.04 1.33,0.28 2.3,0.23 0.56,-0.03 2.04,-0.01 2.54,0.09 1.03,0.19 1.35,-0.14 2.24,-0.2 0.86,-0.07 1.86,0.31 2.29,0.03 -0.26,-0.03 -0.91,-1.13 -2.2,-0.98 -0.63,0.08 -1.97,0.85 -2.53,0.53 -0.67,-0.38 -1.54,-0.75 -2.45,-0.76 -0.69,-0.01 -1.95,0.6 -2.19,1.06z"/>
    <path fill="#FBB03B" d="M39.05 45.96c-1.25,0.9 -1.99,1.46 -4.01,1.47 -2.75,0.01 -2.79,-1.74 -3.51,-1.96 -0.4,0.13 0.04,1.02 0.15,1.24 0.18,0.38 0.46,0.66 0.79,0.87 1.83,1.15 3.1,0.97 5.26,0.27 0.52,-0.17 0.63,-0.31 0.91,-0.76 0.09,-0.14 0.55,-0.97 0.41,-1.13z"/>
    <path fill="#FBB03B" d="M28.62 24.27l-0.09 1.03c0.15,0.13 0.25,0.05 0.4,0.19 0.54,-0.1 0.47,-0.47 0.72,-0.97 0.17,-0.32 0.84,-0.57 0.93,-0.81l-0.45 -0.1 -1.51 0.66z"/>
    <polygon fill="#FBB03B" points="42.46,26.06 43.32,25.6 43.42,25.49 42.53,24.55 42.47,24.57 42.57,24.48 41.79,24.61 41.75,24.62 41.93,25.96 "/>
    <path fill="#FBB03B" d="M38.15 24.71c0.27,0.38 -0.23,0.59 0.63,1.16 1.32,0.85 1.1,-0.3 1.11,-0.32 0.44,-0.88 -1.67,-0.9 -1.74,-0.84z"/>
   </g>
   <g>
    <path fill="#00A9B0" d="M32 77.7c-0.29,0.03 -1.06,0.07 -1.31,0 0.01,-0.15 0.04,-0.04 0.1,-0.21 -0.33,0.02 0.01,0.1 -0.23,0.21 -0.2,-0.15 0.04,-0.04 -0.11,-0.24 -0.2,0.04 -0.03,0.05 -0.19,0.14 -0.13,-0.06 -0.11,-0.01 -0.15,-0.15 0.02,-0.02 0.08,-0.03 0.12,-0.03 0.67,0 0.57,0.07 0.74,0.07 0.64,0 0.22,-0.07 0.52,-0.07 0.52,0 0.51,0.07 0.77,0.07l1.01 -0.04c0.14,0 0.06,0 0.11,0.07 -0.55,0.09 -0.56,-0.02 -0.78,0.04l-0.6 0.14zm2.23 -0.32c0.19,0 0.47,0.01 0.74,0 0.38,-0.01 1.64,-0.19 2,-0.21l0.01 0.14c0.02,0.23 -0.81,0.28 -1.01,0.29 -0.4,0.01 -0.85,0.07 -1.22,0.07 -0.22,0 -0.25,-0.06 -0.46,-0.1 -0.22,-0.03 -0.25,0.02 -0.3,-0.17l0.24 -0.02zm3.29 -0.15c0.09,-0.25 0.38,-0.28 0.66,-0.32 0.15,-0.02 0.08,0.03 0.24,-0.02 0.3,-0.08 0.25,-0.08 0.59,-0.08 0.25,0 0.35,-0.04 0.59,-0.02l-0.79 0.25c-0.07,0.01 -0.21,0.03 -0.29,0.04 -0.43,0.06 -0.62,0.2 -0.89,0.17 -0.08,-0.01 -0.03,0.04 -0.11,-0.02zm-3.78 -3.15c0,-0.51 0.31,-0.44 0.82,-0.44 0.5,0.11 2.12,0.29 2.67,0.32l0.46 -0.03c-0.07,0.6 -0.18,0.83 -0.28,1.37 -0.1,0.5 -0.05,1.05 -0.66,1.05 -0.94,0 -1.83,0.07 -2.74,0.07 -0.33,0 -0.27,-1.92 -0.27,-2.34zm-19.88 -4.11c0.94,-0.04 1.17,0.36 1.98,0.36 0.33,0 0.35,-0.03 0.45,-0.03 0.21,-0.01 3.47,0.58 3.95,0.67l-0.17 1.55c0.05,0.42 -0.13,1.66 -0.18,2.15 0.71,0.08 0.44,-3.17 0.89,-3.51 0.11,-0.09 5.49,1.17 6.11,1.4 1.45,0.51 2.76,0.42 3.2,0.54 0.54,0.14 0.89,0.23 1.41,0.39 0.48,0.14 1.18,0.11 1.67,0.21 0.12,0.45 0.05,1.23 0.11,1.44 0.13,0.43 0.13,0.92 -0.14,1.29l-0.91 0.06c-0.76,-0.04 -2.82,0.12 -3.56,0.15l-0.22 0.01c-0.41,0.05 -0.67,0.09 -1.08,0.09l-1.18 0.07c-0.23,0.01 -0.2,-0.03 -0.34,-0.03 -0.62,0 -0.2,0.07 -0.96,0.07 -0.59,0 -3.68,-1.08 -4.35,-1.34 -0.75,-0.3 -1.24,-0.58 -2.05,-0.85 -0.23,-0.08 -0.78,-0.33 -0.97,-0.48 -0.3,-0.24 -0.12,-0.05 -0.47,-0.16 -0.34,-0.1 -0.07,-0.11 -0.39,-0.3l0.01 0.16 -0.12 0.01c-0.63,0 -0.35,-0.07 -0.64,0.15l0.17 0.04c-0.22,0.19 0.39,0.76 0.73,0.64l-0.28 -0.25 0.06 -0.06 3.78 1.61c-0.66,0.06 -1.91,-0.29 -2.61,-0.56 -0.42,-0.16 -1.59,-0.8 -2.19,-0.95 -0.33,-0.08 -0.1,-0.05 -0.22,-0.11 0,0 -1.04,-0.26 -1.36,-0.62 -0.17,-0.19 -0.28,-0.09 -0.51,-0.3 -0.33,-0.31 -0.59,-0.42 -0.89,-0.74 -0.11,-0.12 -1.03,-0.66 -1.03,-0.37 0,0.45 0.17,0.25 0.32,0.6 -0.51,-0.01 -1.21,-0.84 -1.21,-0.84 -0.08,-0.06 -0.2,-0.06 -0.39,-0.24 -0.22,-0.21 -0.44,-0.48 -0.67,-0.7 -0.11,-0.11 -0.3,-0.19 -0.36,-0.34 -0.06,-0.16 -0.01,-0.13 -0.05,-0.24 -0.08,-0.19 -0.18,0.07 -0.1,-0.13 0.07,-0.17 0.43,-0.25 0.63,-0.25 0.55,-0.02 1.64,-0.18 2.07,-0.18 0.63,0 1.43,-0.06 2.06,-0.08zm43.76 0.69c-0.03,-0.08 -0.01,-0.39 0.26,-0.4 -0.04,0.16 -0.1,0.37 -0.26,0.4zm-14.96 5.44c0.7,-0.04 1.6,-0.31 2.24,-0.43 0.96,-0.2 1.06,-0.28 1.89,-0.64 1.15,-0.49 2.57,-0.95 3.71,-1.5 0.36,-0.17 0.57,-0.23 0.99,-0.36 0.24,-0.08 0.54,-0.28 0.92,-0.4 0.66,-0.22 2.98,-1.36 3.61,-1.73 0.29,-0.18 1.34,-0.95 1.68,-0.96 -0.04,0.24 -0.16,0.04 -0.34,0.37 -0.09,0.17 -0.15,0.25 -0.25,0.42 -0.28,0.47 -0.27,0.36 -0.79,0.57 -0.31,0.13 -0.79,0.15 -1.03,0.35 -0.25,0.22 -0.44,0.4 -0.72,0.62 -0.59,0.47 -0.74,0.8 -1.56,1.18 -0.63,0.3 -1.27,0.53 -1.87,0.83 -0.69,0.35 -3.31,1.08 -4.2,1.25 -0.89,0.17 -1.07,0.44 -2.25,0.5 -0.55,0.04 -0.6,-0.04 -1.06,0.01 -0.29,0.04 -0.12,-0.15 -0.56,-0.05 -0.13,0.03 -0.42,0.15 -0.41,-0.03zm-23.37 -6.62l0.99 0.04c0.09,1 0.18,0.94 -1.41,0.68 -0.44,-0.07 -1.1,-0.24 -1.54,-0.46l1.96 -0.26zm-6.73 -0.04c-0.36,0.11 -1.4,0.1 -1.83,0.13 -1.23,0.07 -0.7,-0.21 -0.4,-0.84l2.23 0.71zm44.57 2.53c0.04,-0.1 0.6,-0.45 0.81,-0.9 0.17,-0.37 0.38,-0.78 0.55,-1.12 0.23,-0.43 1.15,-1.59 1.74,-1.49 -0.08,1.11 -1.89,2.22 -1.96,2.46 -0.12,0.47 2.18,-1.75 2.3,-1.8 0.16,0.26 -1.16,1.48 -1.41,1.76 -0.23,0.26 -1.72,1.17 -2.03,1.09zm1.25 -3.06c0.06,-0.18 0.15,-0.21 0.25,-0.31 0.23,-0.22 0.17,-0.18 0.28,-0.19 -0.01,0.24 -0.29,0.42 -0.53,0.5zm2.24 -1.32c-0.08,-0.18 0.01,-0.19 0.11,-0.3 0.08,-0.07 0.11,-0.17 0.2,-0.19 0.02,0.19 -0.16,0.45 -0.31,0.49zm-14.4 4.06c0.12,0.3 0.09,2.66 0.48,2.37 0.36,-0.26 -0.32,-2.22 0.09,-2.61 0.02,-0.02 1.84,-0.89 2.03,-0.98 1,-0.45 2.36,-1.59 2.78,-1.75 0.24,-0.09 0.42,-0.04 0.57,-0.2 0.39,-0.41 1.73,-1.29 2.21,-1.54 0.27,-0.15 0.72,-0.72 0.77,-0.35 0.05,0.31 0.04,0.91 0.17,1.19 0.17,0.37 0.24,2.24 0.19,2.69 -0.09,0.86 -2.99,1.76 -3.85,2.18 -0.54,0.26 -1.54,0.53 -2.18,0.81 -0.68,0.3 -1.56,0.53 -2.16,0.86 -0.92,0.5 -3.33,1.24 -4.64,1.29 -0.75,0.02 -4.71,1.04 -5.02,0.65l0.6 -2.3c0.48,-0.17 1.66,-0.15 2.3,-0.33 0.35,-0.11 0.61,-0.15 1.01,-0.27 0.33,-0.1 0.6,-0.23 0.95,-0.33 0.17,-0.04 0.33,-0.12 0.52,-0.11 0.33,0.01 0.05,0 0.42,-0.13 0.28,-0.09 0.67,-0.22 0.98,-0.33 0.35,-0.13 1.72,-0.8 1.78,-0.81zm16.13 -4.96c0.11,-0.11 0.07,-0.05 0.15,-0.22 0.05,-0.11 0.06,-0.16 0.19,-0.18l-0.48 1.07c-0.12,0.22 -0.06,0.28 -0.2,0.29 -0.01,-0.04 -0.01,-0.03 -0.01,-0.09 0,-0.2 0.09,-0.01 0.01,-0.44l0.34 -0.43zm-57.1 0.12c0.03,-0.25 -0.11,-0.63 -0.13,-0.9 0.48,-0.14 2.38,1.33 2.76,1.6 0.79,0.55 2.13,0.84 1.75,1.43 -0.25,0.4 -0.09,-0.17 -0.2,0.21 -0.08,0.26 0.01,0.16 -0.18,0.33 -0.89,0.79 -2.09,-0.3 -2.71,-0.89 -0.16,-0.15 -0.47,-0.32 -0.63,-0.48 -0.12,-0.11 -0.37,-0.52 -0.47,-0.6 -0.51,-0.39 -0.24,-0.24 -0.19,-0.7zm54.99 0.5c0.07,-0.21 0.24,-0.5 0.35,-0.63 0.14,-0.17 0.25,-0.39 0.38,-0.59 0.08,-0.12 0.13,-0.17 0.22,-0.27 0.06,-0.08 0.12,-0.18 0.2,-0.28 0.22,-0.31 0.28,-0.53 0.42,-0.54 0.09,0.22 -0.49,1.01 -0.55,1.34 -0.07,0.36 -0.22,0.35 -0.45,0.55 -0.13,0.1 -0.35,0.38 -0.57,0.42zm-57.33 -4.8c0.02,-0.05 0.09,-0.24 0.1,-0.27 0.06,-0.1 -0.04,-0.02 0.1,-0.09l0.52 0.05c0,0 0.01,0.01 0.01,0.01 0.06,0.04 0.05,-0.07 0.05,0.08 0,0.27 0.01,0.2 -0.15,0.33 -0.12,0.12 -0.25,0.17 -0.42,0.23 -0.17,-0.38 -0.11,-0.15 -0.21,-0.34zm1.45 1.33c-0.39,-0.24 -0.26,-0.33 -0.17,-0.66 0.06,-0.25 -0.05,-0.43 0.1,-0.78 0.23,-0.57 0.35,-0.04 0.45,-0.38 0.06,-0.18 0.15,0.04 0.19,0.05 0.24,0.07 -0.12,-0.13 0.24,-0.01 0.69,0.23 -0.13,0.18 0.38,0.23 0.04,0.01 0.39,0.1 0.68,0.16 0.24,0.05 1.57,0.44 1.57,0.44 0.44,0 0.48,-0.11 0.64,-0.05 0.21,0.07 0.1,0.19 0.29,0.19 0.33,0 1.01,-0.12 1.24,0.14 0.07,0.08 0.1,0.32 0.2,0.5 0.05,0.08 0.32,0.4 0.32,0.06 0,-0.36 -0.12,-0.47 -0.13,-0.69l2.26 -0.18c0.44,0.26 -0.41,1.2 -0.46,1.44 -0.02,0.12 -0.66,1.23 -0.77,1.43 -0.24,0.46 -0.57,1 -0.76,1.46 -0.39,0.9 -0.54,0.66 -1.3,0.32 -0.69,-0.31 -0.9,-0.61 -1.41,-0.85 -0.48,-0.22 -0.14,-0.34 -0.54,-0.5 -0.26,-0.11 -0.59,-0.29 -0.74,-0.35 -0.43,-0.17 -0.77,-0.49 -1.46,-0.72 -0.28,-0.09 -0.41,-0.28 -0.62,-0.48 -0.24,-0.23 -0.26,-0.52 -0.2,-0.77zm58.1 -0.13c-0.01,-0.08 0.08,-0.28 0.11,-0.4 0.05,-0.2 0.08,-0.14 0.17,-0.35 0.26,-0.67 0.3,-0.62 0.51,-1.08 0.06,-0.11 0.08,-0.27 0.16,-0.36 0.09,-0.09 0.05,0.01 0.14,-0.12 0.05,-0.08 0.13,-0.37 0.37,-0.41 -0.04,0.17 -0.1,0.21 -0.13,0.41 -0.13,0.71 -0.43,1.24 -0.82,1.83 -0.18,0.27 -0.31,0.56 -0.51,0.48zm-59.16 -2.25c-0.09,0.05 -0.22,0.11 -0.35,0.11 -0.15,-0.05 -0.01,0.03 -0.07,-0.1 -0.12,-0.2 -0.12,-0.04 -0.26,-0.19 -0.07,-0.06 -0.1,-0.39 -0.08,-0.47 0.17,0.01 0.09,0.04 0.18,0.19 0.11,0 0.6,-0.05 0.58,0.46zm61.51 0.26c-0.03,-0.08 0.35,-1.14 0.39,-1.23 0.04,-0.08 0.18,-0.26 0.26,-0.2 0.11,0.09 -0.27,1 -0.39,1.15 -0.32,0.42 -0.07,0.28 -0.26,0.28zm-54.6 0.76c-0.09,-0.05 -0.39,-0.49 -0.39,-0.78 0,-0.26 -0.4,-0.62 -0.45,-0.75 -0.11,-0.3 0.15,-0.04 -0.04,-0.41 -0.06,-0.14 -0.13,-0.19 -0.2,-0.36 -0.27,-0.66 -0.44,-0.92 -0.63,-1.66 -0.03,-0.13 -0.12,-0.3 -0.18,-0.39 -0.25,-0.31 -0.02,-0.03 -0.16,-0.35 -0.29,-0.69 -0.82,-1.47 -0.98,-2.47 1.02,0.13 2.83,0.43 3.77,0.43 0.03,0 0.36,0.1 0.48,0.1l1.54 0.09c0.41,-0.07 0.77,-0.02 0.88,0.34 0.11,0.38 0.55,1.69 0.87,1.81 0.02,-0.12 0.05,-0.16 0.05,-0.28 0,-0.5 -0.57,-1.07 -0.65,-1.89l3.62 -0.34 0.47 0.61c-0.73,0.54 -1.9,0.9 -2.61,1.83 -1.35,1.78 0.26,2.41 0.21,2.99 -0.27,0.01 -0.12,-0.05 -0.19,-0.09 -0.33,-0.22 0.23,0.22 -0.42,0.11 -0.47,-0.08 -0.37,-0.05 -0.89,0.04 -0.47,0.08 -0.66,1.05 -1.14,1.11 -0.31,0.04 -0.52,0.16 -0.91,0.2 -0.34,0.03 -1.85,0.22 -2.05,0.11zm-1.22 -0.09c-0.06,0 -0.47,-0.03 -0.61,-0.05 -0.58,-0.07 -0.9,-0.32 -1.15,-0.36 -0.84,-0.16 -0.55,-0.16 -1.19,-0.38 -0.3,-0.1 -0.95,-0.2 -1.04,-0.48 -0.15,0.05 -0.34,0.31 -0.56,-0.21 -0.2,-0.47 0,-0.52 -0.15,-0.85 -0.08,-0.17 -0.12,-1.72 -0.12,-1.87 0.03,-0.41 -0.05,-1.35 -0.09,-1.79 -0.07,-0.79 -0.07,-1.11 -0.07,-1.88 0.86,0 1.94,0.49 1.99,0.5 0.4,0.08 0.22,-0.05 0.5,0.3 0.26,0.34 0.79,1.94 1.06,2.43 0.41,0.77 0.69,1.63 1.01,2.32 0.23,0.51 1.04,1.92 0.95,2.42 -0.07,0.01 -0.31,-0.09 -0.53,-0.1zm-5.67 -7.9c0.19,0.89 0.44,5.63 0.23,5.87 -0.12,0.04 -0.69,-0.18 -0.86,-0.22 -0.63,-0.15 -0.22,-0.35 -0.47,-0.76 -0.08,-0.13 -0.23,-0.76 -0.23,-0.84 0,-0.54 0.04,-0.45 -0.07,-0.94 -0.12,-0.57 -0.09,-1.53 -0.08,-2.21 0,-0.35 -0.08,-1.8 -0.03,-1.99l0.14 0.25c0.49,-0.11 1.27,0.38 1.37,0.84zm32.47 -0.75c0.83,0 1.81,-0.93 2.32,-1.3 0.34,-0.23 0.37,0.66 0.4,1.1 0.03,0.49 -0.59,0.71 -0.69,1.12l0.08 0.09 0.56 -0.54c0.31,0.36 -0.15,0.56 0.85,0.56 0.77,0 2.35,0.64 2.37,0.88 -0.14,0.84 -1.52,2.52 -2.36,2.87 -0.8,0.35 -3.13,1.2 -4.02,1.2 -0.25,-0.03 -0.42,0 -0.7,0 -0.86,0.02 -2.74,-0.38 -3.37,-0.62 -0.49,-0.19 -2.01,-1.43 -2.01,-2 0,-0.56 -0.05,-0.65 0.58,-0.84 0.51,-0.17 0,-0.25 0.61,-0.46l3.33 -0.89c0.44,0 0.4,0.04 0.78,-0.19 0.25,-0.14 0.47,-0.48 0.04,-0.48 -0.23,0 -0.72,0.11 -0.98,0.15l-0.02 -1.3c0.02,-1.22 0.15,-0.31 0.89,-0.03 0.53,0.21 0.87,0.68 1.34,0.68zm24.19 0.99c0,-0.29 1.82,-1.52 2.14,-1.77 0.89,-0.68 1.84,-1.56 1.08,0.56 -0.36,1.01 -1.58,5.25 -2.26,5.49 -0.06,-0.2 -0.18,-0.85 -0.21,-1.06 -0.06,-0.46 -0.2,-0.56 -0.26,-0.99 -0.05,-0.36 -0.17,-0.6 -0.22,-1.03 -0.08,-0.62 -0.27,-0.41 -0.27,-1.2zm6.19 -1.81c0,-0.11 0.02,-0.23 -0.02,-0.32 -0.03,-0.1 -0.09,-0.14 -0.11,-0.22 -0.06,-0.24 0.15,-0.32 0.34,-0.27 0.01,0.08 -0.01,0.39 -0.02,0.42 -0.02,0.09 -0.03,0.16 -0.06,0.25 -0.04,0.16 -0.02,0.11 -0.13,0.14zm-4.67 8.76c0.13,-0.21 0,-0.63 -0.07,-0.94 -0.1,-0.41 -0.18,-0.19 -0.22,-0.96 -0.02,-0.35 0.57,-1.23 0.73,-1.59 0.54,-1.24 0.88,-2.07 1.3,-3.44 0.12,-0.41 0.77,-2.38 0.72,-2.77 -0.04,-0.36 0.13,-0.46 0.21,-0.9 0.12,-0.67 0.28,-1.3 0.4,-1.96 0.05,-0.29 0.18,-2.1 0.22,-2.16 0.11,0.02 0.69,4.8 0.87,5.14 0.03,0.05 0.44,1.52 0.44,1.55 0,0.49 -1.58,5.84 -2.06,6.35 -0.27,0.28 -0.87,1.25 -1.07,1.6 -0.71,1.23 -1.06,2.61 -1.91,3.65 -0.43,0.51 -0.83,1.01 -1.27,1.51 -0.1,0.12 -1.3,1.31 -1.4,1.38 -0.21,-0.06 -0.31,-0.11 -0.45,-0.07l0.07 0.49 0.08 -0.01c-0.6,0.46 -0.03,0.8 -0.82,1.25 -0.21,0.12 -1.27,0.78 -1.4,0.77l-0.06 -1.5c0,-0.35 0.04,-0.36 0.04,-0.48 0,-0.76 -0.17,-0.57 -0.2,-1 -0.09,-1.28 -0.44,-1.53 0.13,-1.99 0.66,-0.54 1.06,-1.08 1.86,-1.62 0.97,-0.67 1.16,-0.57 1.87,-1.62 0.46,-0.68 0.9,-1.91 1.53,-2.1l0.46 1.42zm-57.45 -8.18c0.03,-0.28 0.16,0 0.14,-0.27 -0.01,-0.18 -0.07,-0.09 -0.03,-0.34 0.04,-0.32 -0.06,-0.28 -0.1,-0.7 -0.09,-1 0.16,0.21 0.13,-0.38 -0.02,-0.23 -0.04,-0.45 -0.06,-0.7 -0.06,-0.95 0.14,-2.22 0.04,-3.07 -0.05,-0.46 0.23,-2.88 0.34,-3.28 0.25,-0.87 0.38,-0.55 1.01,-0.65 0.35,-0.05 1.13,-0.05 1.51,-0.05 2.17,-0.02 1,-0.03 1.95,1.18 0.03,0.05 0.47,1.15 0.52,1.29 0.13,0.37 0.21,0.28 0.32,0.62 0.1,0.3 0.08,0.36 0.25,0.64 0.35,0.58 0.85,1.84 1.14,2.48 0.25,0.54 1.01,2.06 0.92,2.65 0.46,0.01 0.59,0.81 0.75,1.18 0.07,0.17 0.54,1.24 0.52,1.29 -0.28,0.09 -3.28,-0.21 -3.93,-0.3 -0.16,-0.02 -0.55,-0.03 -0.57,-0.03 -0.25,-0.08 -0.02,-0.16 -0.5,-0.13 -0.21,0.02 -0.92,-0.17 -1.18,-0.25 -0.5,-0.14 -0.48,-0.42 -0.64,-0.85 -0.14,-0.36 0.06,-0.29 -0.18,-0.49 -0.39,-0.34 -0.03,-0.31 -0.36,-1.04 -0.24,-0.52 -0.02,-0.02 -0.26,-0.37 -0.1,-0.55 -0.29,-1.08 -0.48,-1.67 -0.12,-0.39 -0.18,-0.52 -0.26,-0.94 -0.06,-0.32 0.01,-0.58 -0.38,-0.67 -0.47,0.38 -0.23,0.96 -0.04,1.43 0.28,0.7 0.57,1.51 0.76,2.22 0.06,0.21 0.04,0.27 0.06,0.33 0.04,0.11 0.11,0.12 0.18,0.27 0.07,0.13 0.49,1.17 0.4,1.42 -0.28,0.12 -1.84,-0.51 -1.97,-0.82zm54.65 -6.34c0,-0.73 -0.29,-1.97 -0.29,-2.86 -0.01,-0.55 0.7,-0.38 1.17,-0.35 0.48,0.03 1.05,-0.01 1.45,0.07l3.54 0.02c-0.01,0.58 0.19,1.08 0.01,1.79 -0.12,0.48 -0.27,0.99 -0.29,1.55 -0.05,1.3 -0.31,2.17 -0.46,3.28 -0.1,0.78 -0.16,0.88 -0.71,1.19 -0.53,0.3 -0.6,0.52 -1.07,0.78 -0.5,0.28 -1.81,1.44 -2.26,1.51l-1.09 -6.98zm-42.16 5.51c0,0.02 0.37,0.6 0.45,0.77 0.11,0.24 0.75,1.59 0.73,1.6l0.01 0.11 -3.85 0.31c-0.21,-0.62 -0.9,-2.24 -1.19,-2.95l0.12 -0.05c-0.37,0 -0.48,-0.76 -0.58,-1.06 -0.12,-0.37 -0.4,-0.57 -0.53,-1.05 -0.08,-0.27 -0.36,-0.88 -0.48,-1.12 -0.1,-0.21 -0.11,-0.46 -0.15,-0.5 -0.37,-0.32 -0.02,-0.05 -0.25,-0.4 -0.35,-0.54 -0.78,-1.63 -0.92,-2.23 -0.06,-0.25 -0.27,-0.31 -0.35,-0.47 -0.02,-0.06 -0.15,-0.51 -0.18,-0.6 -0.13,-0.48 -0.55,-0.94 0.17,-0.94 1.64,0 0.92,0.06 1.73,0.38 0.74,0.28 1.07,0.32 1.76,0.69 0.43,0.23 0.4,-0.08 0.65,0.61 0.08,0.22 0.26,0.63 0.38,0.84 0.23,0.44 0.53,1.28 0.69,1.75 0.41,1.19 0.97,2.32 1.45,3.5 0.18,0.45 0.2,0.26 0.34,0.81zm-4.01 -8.5c0.03,-0.12 0.27,-0.08 0.41,-0.07 0.14,0.22 0.18,0.28 -0.13,0.28 -0.15,0 -0.33,-0.06 -0.28,-0.21zm26.52 9.26c0,-0.43 -0.24,-1.2 -0.13,-1.65 0.04,-0.16 0.78,-0.88 0.94,-1.02 0.34,-0.3 0.56,-0.66 0.99,-0.98 0.31,-0.24 0.78,-0.65 0.99,-0.93 0.44,-0.56 0.61,-2.35 0.72,-3.22 0.25,-2.03 -0.24,-1.8 1.95,-1.74l0.17 0.47 0.15 -0.43 3.71 -0.02c0.75,-0.06 1.5,-0.01 2.26,0.01 0.59,0.01 0.6,-0.01 1.11,-0.04 0.5,-0.03 0.58,0.88 0.53,0.98 -0.18,0.39 -1.84,1.01 -2.52,1.09 -0.54,0.07 -1.05,0.14 -1.64,0.1 -0.5,-0.02 -1.15,-0.42 -1.29,-0.04 0.16,0.7 2.36,0.3 2.97,0.23 1.03,-0.1 2.13,-0.86 2.65,-0.95l0.94 5.97 -0.08 0.02c0,0.1 0.01,0.24 0.11,0.26l0.1 -0.6c0.02,-0.44 -0.35,-2.72 -0.39,-3.41 -0.04,-0.59 -0.09,-0.23 -0.17,-0.76 -0.03,-0.22 -0.05,-0.4 -0.08,-0.61 -0.04,-0.24 -0.26,-0.93 -0.18,-1.09 0.08,-0.18 1.03,-0.65 1.25,-0.82 0.68,-0.52 0.95,-0.36 1.84,-0.3l2.06 0c0.2,0.06 0.32,1.82 0.32,2.14 0.01,0.61 0.23,1.47 0.26,2.14 0.03,0.69 0.16,1.51 0.29,2.16 0.06,0.33 0.21,1.17 0.12,1.52 -0.09,0.31 0.03,0.17 0.13,0.37 0.08,0.13 0.45,1.88 0.44,1.99 -0.03,0.28 -1.11,0.93 -1.37,1.08 -0.56,0.32 -2.99,1.4 -2.87,1.93 0.44,0.36 3.98,-2.38 4.33,-2.4 0.1,0.08 0.78,3.01 0.9,3.43 0.29,1.03 0.34,0.78 -0.05,1.57 -0.15,0.32 -0.26,0.32 -0.4,0.62 -0.66,1.38 -1.07,2.13 -2.43,2.96 -0.48,0.29 -2.29,1.97 -2.38,1.99 -0.21,-0.8 -0.63,-4.95 -1.34,-4.82 0.01,0.19 0.29,1.15 0.34,1.38 0.12,0.47 0.44,2.38 0.52,2.94 0.1,0.7 0.42,0.75 -0.12,1.24l-1.52 1.08c-0.27,0.16 -0.32,0.04 -0.6,0.25 -0.99,0.74 -0.6,0.34 -1.15,0.6 -0.37,0.18 -0.25,-0.04 -0.59,0.25 -0.34,0.29 -0.2,0.05 -0.12,0.29 -0.24,0.11 -0.47,0.49 -0.91,0.73 -0.32,0.18 -0.74,0.48 -1,0.6 -0.34,0.14 -1.89,1.04 -2.19,0.96l0.21 -3.08 -0.12 -0.01c-0.27,0.01 -0.44,0.98 -0.44,1.29 0,1.59 0.35,1.88 -0.81,2.37 -0.75,0.31 -1.23,0.56 -2.13,0.82 -1.55,0.46 -2.78,1.05 -4.65,1.05 -0.46,0 -0.22,-0.41 -0.12,-0.73 0.08,-0.28 0.11,-0.57 0.18,-0.86 0.14,-0.51 0.3,-1.08 0.47,-1.6l0.54 -1.54c0.16,-0.5 0.2,-1.19 0.35,-1.72 0.25,-0.9 1.19,-3.83 1.71,-4.52 0.12,-0.16 0.83,-1.07 0.83,-1.13 -0.09,-0.04 -0.52,0 -0.69,0.23 -0.4,0.56 -1.06,1.45 -1.22,2.11 -0.28,1.14 -0.81,2.14 -1.11,3.38 -0.1,0.42 -0.53,1.45 -0.52,1.68 0.02,0.51 -0.75,2.68 -0.87,3.42 -0.08,0.5 -0.27,1.39 -0.85,1.39 -0.61,0 -2.92,-0.3 -3.7,-0.39l-0.22 -2.4c0,-0.74 -0.2,-1.31 -0.05,-1.81 0.05,-0.18 -0.14,-0.44 -0.18,-0.67 -0.06,-0.3 -0.02,-0.55 -0.04,-0.84 -0.04,-0.53 -1.51,-1.42 -1.82,-1.88 -0.17,-0.26 -0.7,-0.59 -1,-0.84 -0.45,-0.38 -0.54,-0.52 -1.02,-0.84 -0.37,-0.24 -0.57,-0.62 -1.02,-0.83 -0.33,-0.16 -0.69,-0.9 -1.07,-0.64 -0.11,0.35 2.18,2.11 2.57,2.4 0.24,0.17 1.25,1.22 1.28,1.24 0.23,0.13 1.26,0.98 1.31,1.18 -0.03,0.54 -0.25,0.08 0.09,0.76 0.1,0.18 0.34,0.53 0.34,0.69l-0.03 0.48c0,1.08 0.32,2.01 0.32,3.26 0,0.43 0.13,0.77 -0.32,0.77 -0.86,0 -1.24,-0.28 -2.06,-0.41 -0.67,-0.1 -1.11,-0.16 -1.83,-0.23 -0.24,-0.02 -1.55,-0.32 -1.78,-0.39 -0.27,-0.08 -0.43,-0.18 -0.81,-0.26 -1.42,-0.27 -2.81,-0.77 -4.29,-1 -0.45,-0.07 -0.49,-0.15 -0.83,-0.26 -0.15,-0.05 -0.47,0.16 -0.45,-0.35 0.01,-0.29 0.06,-1.77 0.04,-1.79 -0.23,0.03 -0.68,0.48 -1.21,0.54 -0.9,0.09 -1.19,0.17 -2.09,0.17l-0.01 -0.08c-0.53,0.1 -0.67,0.11 -1.21,0.11 -0.39,0 -0.33,0.07 -0.69,0.12 -0.16,0.03 -0.47,0 -0.79,0.03 -0.34,0.04 -1.08,-0.29 -1.4,-0.38 -0.63,-0.19 -2.53,-0.72 -2.66,-0.89 0.13,-0.37 0.28,-0.59 0.48,-0.87 0.36,-0.51 0.93,-2.03 1.33,-2.64 0.29,-0.45 0.64,-1.25 0.96,-1.67 0.28,-0.35 0.19,-0.41 0.66,-0.67 0.23,-0.14 0.25,-0.11 0.38,-0.29 0.28,-0.4 0.09,0 0.41,-0.2 0.12,-0.19 0.1,-0.37 0.36,-0.37 0.64,0 0.85,-0.08 1.48,0.15 0.47,0.17 0.81,0.46 1.3,0.56 0.43,0.09 1.14,0.4 1.35,0.43 0.64,0.1 1.44,0.17 2.1,0.22 0.06,-0.66 -2.4,-0.62 -3.52,-1.15 -0.19,-0.09 -0.46,-0.35 -0.7,-0.48 -0.19,-0.11 -0.7,-0.26 -0.8,-0.35 -0.15,-0.13 -0.49,-0.45 -0.54,-0.64 -0.09,-0.29 -0.42,-0.41 -0.42,-0.74 0,-0.68 0.82,-1.64 1.28,-1.91 0.33,-0.2 0.61,-0.4 0.96,-0.6 0.89,-0.52 0.92,-0.2 1.15,-0.42l-0.4 -0.82c0.65,-0.36 2.46,0.04 2.46,-1.11 0,-0.63 -0.59,0.16 -0.79,0.29 -0.2,0.13 -1.1,0.3 -1.32,0.3 -0.86,0 0.91,-2.1 1.16,-2.32 0.27,-0.24 0.28,0.01 0.48,-0.26 0.95,-1.28 3.43,-2.4 5.26,-2.36 0.17,0 1.25,0.2 1.3,-0.06 -0.07,-0.4 -2.01,-0.31 -2.4,-0.21 -0.84,0.22 -1.39,0.26 -2.13,0.69 -0.7,0.41 -1.13,0.55 -1.78,1.04 -0.18,0.14 -0.64,0.52 -0.82,0.59 -0.28,0.12 -0.29,0 -0.48,0.23 -0.3,0.34 -0.07,0.16 -0.06,0.34l-1.42 1.79c-0.15,-0.19 -0.52,-0.87 -0.61,-1.07 -0.15,-0.3 -0.26,-0.29 -0.25,-0.5 0.02,-0.43 -0.19,-0.13 -0.26,-0.53 -0.15,-0.89 -0.15,-0.42 -0.51,-1.15 -0.19,-0.41 0.18,-0.21 -0.13,-0.56 -0.38,-0.42 -1.03,-2.21 -1.27,-2.82 -0.15,-0.39 -0.27,-0.89 -0.44,-1.22 -0.11,-0.23 -0.13,-0.44 -0.22,-0.63 -0.08,-0.18 -0.3,-0.53 0.06,-0.53l1.45 0.42c0.49,0.14 0.88,0.21 1.43,0.3 0.52,0.09 0.99,0.11 1.16,0.59 0.07,0.2 0.34,1.24 0.44,1.29 0.28,-0.15 -0.16,-0.98 -0.16,-1.43l0.1 0.11 0.1 -0.26c0.29,0.15 -0.03,0.09 0.37,0.09 0.36,0 0.85,0.1 1.28,0.19 0.43,0.09 0.75,0.05 1.12,0.1 0.54,0.08 1.72,0.2 2.21,0.31 0.34,0.07 2.27,0.22 2.31,0.25 0.31,0.18 0.39,1.8 0.68,1.91 0.24,-0.43 -0.27,-1.26 -0.23,-1.66 0.33,0 1.13,-0.19 1.14,-0.53 -1.33,-0.06 -1.19,0.65 -1.53,-0.89 -0.08,-0.38 -0.5,-2.1 -0.5,-2.33 0.05,-0.08 0.22,-0.13 0.34,-0.13 0.72,0.01 0.52,-0.01 1.15,-0.04 0.7,-0.03 0.71,-0.04 0.71,0.36l0 1.11c0,0.18 0.08,0.15 0.08,0.29 0,2.33 0.89,2.15 1.96,3.49 0.43,0.54 0.57,0.44 0.93,0.8 0.41,0.4 1.6,1.23 1.78,1.71 0.19,0.52 0.39,2.13 0.3,2.92 -1.05,0.77 -4.01,0.63 -4.59,1.95l0.32 0.11c-0.24,0.99 1.17,2.42 1.9,2.73 0.58,0.24 1.16,0.42 1.83,0.56 0.34,0.07 0.72,0.13 1.05,0.16 0.18,0.02 0.37,0.03 0.54,0.06 0.34,0.05 0.19,0.17 0.38,0.2 0.39,-0.04 0.13,-0.18 0.72,-0.07 0.12,0.02 0.68,-0.1 0.88,-0.15 1.19,-0.25 2.12,-0.69 3.3,-1.08 0.6,-0.21 0.83,-0.45 1.28,-0.86 1.04,-0.95 1.36,-2.09 1.83,-2.51 0.41,-0.37 1.1,0.23 1.5,0.39 0.21,0.08 1.53,0.46 1.54,0.47l-2.99 3.51c0.54,0.46 2.24,-2.08 2.55,-2.4 0.38,-0.39 0.67,-1.09 1.48,-0.94 1.52,0.29 1.14,0.63 1.75,0.5l-0.07 -0.66c-0.6,-0.17 -3.49,-0.49 -3.77,-0.9 -0.38,-0.58 -0.35,-0.09 -1.03,-0.42 -0.5,-0.24 -0.43,-0.59 -0.97,-0.63 -0.77,-0.07 -0.17,0.52 -1.18,0.27 -0.38,-0.1 -0.69,-0.28 -1.18,-0.43 -0.23,-0.07 -0.33,-0.16 -0.64,-0.17 -0.55,-0.02 -0.4,0 -0.4,-0.78zm-20.94 -7.52c-0.58,0 -2.46,-0.45 -2.89,-0.65 -0.52,-0.24 -0.75,-0.2 -1.29,-0.49 -0.16,-0.09 -0.34,-0.43 -0.28,-0.56 0.09,-0.22 1.53,-0.1 1.94,-0.16 0.62,-0.1 0.8,0.01 1.17,-0.05 0.61,-0.09 0.92,-0.2 1.02,0.48 0.08,0.55 0.33,0.85 0.33,1.43zm34.51 -1.93c0.21,-0.09 0.53,-0.03 0.81,-0.07 0.14,-0.02 0.31,-0.15 0.38,0 0.09,0.19 -0.34,0.3 -0.48,0.41 -0.1,0.09 -0.12,0.12 -0.24,0.2 -0.52,0.34 -0.52,-0.01 -0.47,-0.54zm-27.4 -0.14c0.31,0 0.65,1.94 0.76,2.31 0.13,0.44 0.42,0.98 -0.16,0.96 -0.41,-0.02 -0.86,-0.05 -1.29,-0.14 -0.4,-0.09 -0.89,-0.1 -1.27,-0.17 -0.75,-0.15 -1.83,-0.24 -2.69,-0.37 -0.25,-0.04 -1.1,-0.24 -1.24,-0.24 -1.04,0 -1.08,-0.49 -0.76,-0.44l-0.11 0.03 -0.49 -1.63c0.08,-0.1 0.79,-0.19 0.95,-0.2l1.04 -0.01 5.26 -0.1zm32.69 -2.36l0.07 0.05 0.11 1.55 0 0.3c0,0.18 -0.02,0.29 -0.21,0.29l-0.74 -0.03 -2.11 -0.1 2.88 -2.06zm-51.88 0.07c0.63,0.38 2.48,1.24 2.1,2.15 -0.29,0 -0.3,-0.1 -1.11,-0.1 -0.28,0 -0.32,0.11 -0.57,0.08 -0.15,-0.01 -0.44,-0.08 -0.63,-0.1 -0.32,-0.04 -1.09,0.41 -1.09,-0.31 0,-0.34 0.29,-1.75 0.27,-1.85 -0.04,-0.21 0.05,-0.59 0.4,-0.31 0.21,0.16 0.41,0.31 0.63,0.44zm1.26 0.05c-0.23,-0.03 -1.26,-0.83 -1.44,-0.98 -0.51,-0.43 -0.75,-0.67 -0.73,-1.5 0.02,-1.34 0.24,-2.99 0.72,-4.01 0.26,-0.55 1.01,-0.42 1.66,-0.38 0.36,0.03 1.64,-0.14 1.93,0.08 0.21,0.16 1.19,2.95 1.34,3.42 0.27,0.83 1.85,4.62 1.97,5.19 0.09,0.4 -1.41,0.23 -1.73,0.16 -0.97,-0.23 -2.55,-0.99 -3,-1.79 -0.18,-0.32 0,-0.19 -0.06,-0.51 -0.05,-0.22 -0.15,-0.13 -0.26,-0.35 -0.13,-0.27 -0.09,-0.62 -0.23,-0.81 -0.37,-0.52 -0.11,-1.52 -0.73,-1.54 -0.06,0.07 -0.12,0.3 -0.12,0.42 0,0.96 0.68,1.68 0.68,2.6zm35.96 -3.63c0,-0.55 -0.18,-0.77 -0.14,-1.41 0.01,-0.31 0.02,-1.3 0.28,-1.32 0.29,-0.02 0.36,2.37 0.42,2.67 0.1,0.54 0.69,5.52 0.64,5.59l-1.7 0.04 -0.07 -0.49c-0.02,-0.42 0.4,-3.31 0.39,-3.49l-0.03 -0.15c-0.01,-0.09 0.21,-1.21 0.21,-1.44zm18.56 -2.24c0.52,-0.04 1.55,0.02 2.12,0.03l0.52 8.03c-0.1,0.04 -2.06,-0.03 -2.45,-0.05 -0.78,-0.05 -1.07,-0.03 -1.82,-0.05l-1.79 -0.03c-0.09,-0.18 -0.15,-1.45 -0.15,-1.8 0,-0.65 -0.08,-0.6 0.46,-0.96 0.29,-0.19 0.62,-0.45 0.93,-0.63 0.36,-0.22 1.59,-1.01 1.82,-1.26 0.85,-0.88 -2.39,1.32 -2.55,1.43 -0.19,0.12 -0.81,0.71 -0.81,0.12 0,-1.58 -0.25,-3.18 -0.25,-4.82 0,-0.3 3.18,-0.05 3.6,-0.05l0.37 0.04zm3.48 1.79l0 0.52c-0.01,0.64 -0.25,2.34 -0.25,3l0.03 2.27c0,0.56 -0.06,0.45 -0.3,0.47l-0.55 -7.98c0.22,-0.08 0.65,0.01 0.68,0.03 0.11,0.09 0.39,1.46 0.39,1.69zm-11.64 -2.07c0.67,0 2.22,0.12 3,0.13 0.21,0.01 0.14,-0.03 0.3,-0.03 0.87,0 0.55,0.22 0.67,1.02 0.06,0.42 0.07,0.81 0.08,1.21 0.02,0.87 0.18,1.72 0.18,2.49 0,1.13 -0.05,0.86 -0.81,1.41 -0.36,0.27 -0.84,0.59 -1.17,0.87 -0.35,0.28 -0.86,0.57 -1.2,0.84 -0.63,0.5 -1.41,0.08 -2.23,0.21l-1.42 -8.24 2.6 0.09zm-28.1 7.9c0,-0.64 -0.23,-0.86 -0.28,-1.41l-0.92 -4.09c-0.1,-0.52 -0.25,-0.88 -0.27,-1.41 -0.05,-0.9 -0.18,-0.66 0.84,-0.72 0.96,-0.05 2.66,-0.44 2.91,-0.46 0.02,0.42 -0.11,0.52 -0.23,0.83 -0.23,0.6 0.23,0.22 0.46,0.21l-0.05 2.52 -0.1 0 -0.04 4.68 -2.32 -0.15zm18.71 -8.11c0.99,-0.01 0.45,-0.05 0.83,0.34 0.09,0.04 2.24,-0.33 2.74,-0.32 0.5,0.02 2.46,0.04 2.86,0.15l1.38 8.13c-0.1,0.11 -2.01,0.04 -2.2,0.01 -0.49,-0.06 -3.21,0.16 -4.05,-0.04 -0.66,-0.15 -1.2,0.6 -1.17,-0.91 0.01,-1.01 -0.44,-3.25 -0.51,-4.42 -0.02,-0.44 -0.06,-0.31 -0.12,-0.54 -0.05,-0.18 0.07,-0.18 0.01,-0.49 -0.02,-0.07 -0.14,-1.11 -0.14,-1.11 0.01,-0.59 -0.11,-0.79 0.37,-0.8zm-29.75 8.36c-0.51,0.04 -0.71,0 -1.23,-0.04 -0.14,-0.36 -0.28,-0.75 -0.37,-1.1 -0.06,-0.21 -0.32,-0.67 -0.39,-1 -0.12,-0.54 -0.29,-0.51 -0.39,-1.04 -0.1,-0.46 -1,-2.28 -1.25,-3.12 -0.11,-0.36 -0.17,-0.82 -0.36,-1.12 -0.19,-0.3 -0.1,-0.26 -0.16,-0.6 -0.09,-0.52 -0.26,-0.03 -0.26,-0.62 0,-0.31 0.92,-0.23 1.15,-0.23l2.11 0.08 0 -0.08 1.79 0.11 2.35 8.65 -0.13 0.1 -0.82 0.01c-0.67,-0.02 -1.37,0.02 -2.04,0.05l0 -0.05zm9.3 -8.45c0.19,-0.35 0.95,-0.17 1.14,-0.15 0.11,0.01 0.13,-0.07 0.38,-0.06 0.23,0.01 0.4,0.08 0.48,0.08 0,0 0.08,0 0.09,0l0.9 0.02c-0.12,0.23 -1.24,0.18 -1.5,0.22 -0.29,0.05 -0.54,0.05 -0.84,0.09 -0.36,0.05 -0.54,0.08 -0.65,-0.2zm-1.83 -0.13c0.07,0.05 0.34,0 0.53,-0.02 0.17,-0.02 -0.07,-0.09 0.49,-0.05 0.25,0.01 0.17,-0.03 0.41,0.04 -0.14,0.47 -0.68,0.28 -1.02,0.22 -0.48,-0.09 -0.37,-0.03 -0.41,-0.19zm-5.84 -0.22c0.96,0.03 1.19,0.05 2.11,0.04 0.95,-0.02 2.23,0.48 3.32,0.66 0.64,0.1 1.12,0.16 1.69,0.18 0.49,0.02 0.49,0.96 0.6,1.39 0.08,0.33 0.3,1.26 0.33,1.68 0.04,0.45 0.32,1.01 0.4,1.52 0.14,0.94 0.7,2.32 0.67,3.27l-3.26 -0.05 -2.08 0.1c-0.73,0.06 -1.3,0 -2.06,-0.01l-2.33 -8.6c0.2,-0.16 0.39,-0.14 0.61,-0.18zm33.3 0.09c0.04,-0.05 -0.01,-0.04 0.12,-0.1 0.08,-0.03 0.04,-0.01 0.12,-0.02 0.13,-0.03 0.17,-0.04 0.27,-0.07 0.26,-0.07 0.38,-0.11 0.63,-0.11 0,0.11 0.02,0.19 0.02,0.25 0,0.06 -0.02,0.15 -0.02,0.25 -0.4,0.11 -0.62,0 -0.87,-0.06 -0.24,-0.07 -0.18,-0.02 -0.27,-0.14zm-32.94 -0.8c0.47,0.13 0.29,0.12 0.44,0.3 -0.08,0.08 0.02,-0.02 -0.07,0.07 -0.11,0.1 -0.07,0.07 -0.18,0.06 -0.41,-0.04 -0.02,-0.04 -0.77,-0.04 -0.45,0.01 -0.33,-0.06 -0.39,-0.13 -0.1,-0.13 -0.11,-0.05 -0.17,-0.19 -0.04,-0.08 -0.07,-0.2 -0.08,-0.27l-0.03 -0.16c-0.05,-0.11 -0.07,0 -0.03,-0.09 0.04,-0.1 0.18,-0.04 0.25,-0.01 0.13,0.06 0.08,0.06 0.25,0.12l0.78 0.34zm-9.74 0.14c-0.28,0 -0.8,0.39 -0.49,-0.62 0.13,-0.42 0.22,-0.93 0.35,-1.35 0.27,-0.86 0.39,-1.82 0.69,-2.72 0.33,0.19 1.03,2.06 1.21,2.44 0.19,0.43 0.2,0.99 0.48,1.38 0.23,0.31 0.09,0.27 0.18,0.6 0.11,0.41 -0.16,0.38 -0.45,0.38l-0.02 0.1c-0.33,-0.04 -1.55,-0.21 -1.95,-0.21zm45.26 0.89c-1.22,0 -1.78,-0.52 -0.35,-0.91 0.73,-0.2 1.49,-0.53 2.12,-0.81 0.71,-0.3 1.33,-0.69 1.9,-1.03 0.34,-0.21 0.59,-0.34 0.93,-0.52 0.37,-0.21 0.73,-0.58 0.73,-0.11 0.09,0.99 0.12,2.43 0.16,3.47 -0.9,0.14 -3.13,-0.05 -4,-0.1l-1.49 0.01zm12.87 0.3c-0.16,0.13 -0.53,0.19 -0.67,0.08 -0.13,-0.1 -0.1,-0.49 -0.11,-0.76 -0.04,-0.53 -0.14,-1.33 -0.14,-1.82 -0.01,-1.28 -0.14,-2.27 -0.14,-3.65 0.55,0.23 1.04,5.23 1.06,6.15zm-55.18 -5.22c0.43,0.26 1.03,0.77 1.42,0.99 0.34,0.19 1.21,0.81 1.46,0.91 0.41,0.16 1.24,0.72 1.51,0.8 0.59,0.16 0.77,0.93 0.74,1.57l-4.74 -0.1c-0.14,-0.04 -0.48,-0.56 -0.52,-0.71 -0.05,-0.22 0,-0.36 -0.1,-0.5 -0.18,-0.24 -0.07,0.02 -0.14,-0.3 -0.12,-0.54 -1.27,-3.34 -1.05,-3.53 0.27,-0.22 1.18,0.73 1.42,0.87zm-1.46 -0.98c-0.18,0.06 -0.29,-0.03 -0.15,-0.18 0.11,0.04 0.12,0.05 0.15,0.18zm-0.32 -1.56c0,-0.3 0.95,-2.04 1.14,-2.25 0.31,-0.36 2.12,-0.32 2.71,-0.16 0.38,0.1 0.85,1.98 0.94,2.42 0.15,0.74 0.69,1.74 0.87,2.5 0.08,0.33 0.62,1.72 0.56,1.96 -0.02,0.07 -0.13,0.06 -0.22,0.05 -0.17,-0.02 0.02,0.03 -0.23,-0.12 -0.41,-0.25 -0.68,-0.33 -1.09,-0.61 -0.9,-0.62 -2.11,-1.17 -2.96,-2.08 -0.17,-0.18 -1.72,-1.54 -1.72,-1.64l0 -0.07zm49.49 -0.08c0,-0.59 -0.01,-0.57 0.72,-0.51 0.3,0.02 0.99,0.11 1.11,0.11 0.78,-0.03 1.29,0.03 2.08,0.07l-0.01 0.04c0.23,0 0.12,-0.04 0.3,-0.04 0.92,0 0.06,0.52 -0.4,0.97 -0.49,0.48 -3.29,2.61 -3.64,2.58 -0.06,-1.01 -0.16,-2.23 -0.16,-3.22zm0.17 3.86c0,-0.31 2.34,-1.83 2.7,-2.07 0.55,-0.36 2.12,-2.1 2.62,-2.09 0.81,0.01 0.53,0.7 0.61,1.64 0.06,0.64 0.06,1.47 0.12,2.12 0.09,1 0.22,3.65 0.18,4.45l-1.2 -0.08c-0.1,0 -0.07,0.03 -0.22,0.03 -0.6,-0.01 -1.54,-0.11 -2,-0.1l-0.34 0.02c-0.54,0.01 -1.41,-0.06 -2.03,-0.06 -0.38,0 -0.33,-1.41 -0.33,-1.82 0.01,-0.71 -0.11,-1.34 -0.11,-2.04zm-6.95 1.2c-0.08,-0.76 -0.5,-5.12 -0.57,-5.48 -0.16,-0.72 0.15,-0.49 0.71,-0.45 0.41,0.03 0.97,0.05 1.43,0.05 0.84,-0.01 0.91,0.1 1.48,0.14l1.34 -0.03 2.09 0.21c0.1,0.97 0.04,1.99 0.17,2.94 0.18,1.36 -0.18,1.2 -1.14,1.77 -0.74,0.44 -3.39,1.96 -4.13,2.05 -1.43,0.19 -1.15,0.9 -1.38,-1.2zm-22.63 -5.87c0,0.08 -0.06,0.92 -0.07,1.07 -0.04,0.35 -0.1,0.67 -0.45,0.78 -0.9,0.29 -1.2,-0.2 -1.45,-0.82 -0.26,-0.66 0.14,-1.42 0.46,-1.79 0.43,-0.49 1.51,-0.04 1.51,0.5l0 0.26zm35 0.32c0.03,-0.23 0.18,-0.44 0.42,-0.44 -0.02,0.41 0.03,0.53 -0.42,0.44zm-18.87 -1.14c0,-0.77 0.85,-0.45 0.85,0.41 0,0.15 -0.26,1.08 -0.33,1.35 -0.21,0.78 -0.2,0.86 -0.76,0.8l0.24 -2.56zm-20.54 8.46c0.03,-0.32 -0.9,-3.9 -0.99,-4.61 -0.11,-0.83 -0.37,-1.61 -0.54,-2.37 -0.2,-0.96 -0.69,-1.82 0.3,-1.89 0.01,0 0.56,0.08 0.71,0.12 0.27,0.08 0.84,0.03 1.15,0.01 0.35,-0.01 0.87,0.01 1.19,0 1.11,-0.03 -0.03,0.57 -0.01,1.8 0.01,0.63 0.19,0.71 0.37,1.07 0.61,1.23 1.5,0.41 2,0.68l0.08 5.35c-0.34,0.11 -1.77,0.1 -2.22,0.08 -0.85,-0.04 -1.48,0.06 -2.04,-0.24zm4.61 -11.93c0.05,0.31 0.01,0.74 -0.13,0.92l-0.12 -0.59c0,-0.02 -0.01,-0.13 -0.01,-0.13 -0.03,-0.18 -0.19,-0.09 -0.1,-0.3 0.13,0.02 0,-0.01 0.1,0.04 0.2,0.09 0.07,0.01 0.26,0.06zm-17.27 -0.35c0.08,0.1 0.82,2.45 0.92,2.77l-2.32 0.01 0.4 -0.16 -0.39 -0.04 1.39 -2.58zm1.46 2.71c-0.16,-0.14 -0.81,-2.15 -0.8,-2.49 0.01,-0.73 -0.66,-0.38 -0.31,-1.1 0.14,-0.29 0.43,-0.76 0.66,-0.97 0.29,-0.27 0.17,-0.46 0.72,-0.91 0.1,-0.08 0.79,-0.69 0.86,-0.78 0.04,-0.04 0.79,-0.83 0.8,-0.83 0.23,-0.14 1.01,0.22 1.21,0.34 0.44,0.25 1.83,0.68 2.48,0.8 0.32,0.06 1,0.26 1.3,0.29 0.51,0.06 0.45,0.45 0.57,1.01 0.19,0.87 1.36,4.6 1.19,4.97l0 0.08 -0.88 0.01 -0.05 0.14c0.11,0.08 0.28,0.11 0.44,0.11 0.75,0 0.65,0.09 0.82,0.74 0.09,0.35 0.24,0.75 0.3,1.14 0.12,0.74 0.46,1.65 0.57,2.31 0.08,0.54 1.04,4.65 0.89,4.76 -0.04,0.14 -0.21,0.16 -0.36,0.16l-0.81 0c-0.34,0 -0.46,-0.16 -0.56,-0.17l-0.63 0.14c-0.79,0.06 -3.05,-0.41 -3.66,-0.85 -0.13,-0.1 -1.15,-0.47 -1.51,-0.69 -0.32,-0.19 -0.57,0.1 -1.05,-1.1 -0.43,-1.06 -0.69,-2.16 -1.05,-3.32 -0.13,-0.42 -0.54,-1.15 -0.6,-1.58 -0.04,-0.25 -0.33,-1.08 -0.27,-1.29 0.03,-0.12 0.15,-0.1 0,-0.35l1.29 -0.19 -0.01 -0.15 -0.7 0.01c-0.09,0 -0.82,-0.21 -0.85,-0.24zm32.13 -4.74c0.05,0.11 0.02,0.49 -0.07,0.6 -0.17,-0.04 -0.09,-0.03 -0.16,-0.19 -0.06,-0.12 -0.09,-0.08 -0.12,-0.21 -0.02,-0.07 -0.03,-0.55 -0.03,-0.58 0.16,0.03 0.13,0.06 0.21,0.18 0.1,0.14 0.1,0.04 0.17,0.2zm12.78 5.67c0,-0.22 -0.17,-1.88 -0.21,-2.04 -0.15,-0.49 -0.2,-3.2 -0.41,-4.1 -0.29,-1.23 -0.24,-1.28 0.71,-1.28 1.01,0 1.81,0.17 3,0.22 1.11,0.05 1.14,1.11 1.56,1.85 0.26,0.45 0.48,2.05 0.74,2.67 0.47,1.1 0.66,1.81 0.66,3.01 0,0.21 -0.86,0.98 -1.07,0.98l-4.23 -0.25c-0.84,-0.03 -0.75,-0.01 -0.75,-1.06zm-2.44 -7.62c0.05,-0.01 0.73,0.04 0.9,0.05 0.47,0.02 0.51,-0.11 0.53,0.36 0.03,0.55 0.17,1.25 0.22,1.84 0.12,1.25 0.2,2.62 0.38,3.83 0.08,0.57 0.14,1.4 0.13,1.94 0,1.02 -0.2,0.51 -1.25,0.57 -0.5,0.02 -3.34,-0.13 -3.76,-0.2 -1.9,-0.34 -2.16,0.71 -2.24,-1.7 -0.02,-0.57 -0.38,-3.23 -0.05,-3.45 0.33,-0.21 1,-0.49 1.39,-0.71 0.86,-0.47 3.56,-2.48 3.75,-2.53zm-17.53 1.02c0,-0.07 0.05,-0.62 0.06,-0.64 0.07,-0.18 0.31,-0.08 0.54,-0.17 0.38,-0.16 0.31,-0.72 0.61,-0.74 0.02,0.06 0.08,0.63 0.07,0.7 -0.02,0.24 -0.18,0.26 -0.35,0.36l-0.93 0.49zm12.19 5.73c0.04,0.47 0.12,1.17 0.03,1.49 -0.01,0 0.2,1.13 0.23,1.35 0.09,0.84 0.2,2.44 0.37,3.18 0.1,0.41 0.35,2.78 0.35,3.19 -0.25,0.41 -3.38,0.82 -4.13,0.85 -0.8,0.03 -1.46,0 -2.18,-0.06 -0.6,-0.05 -0.77,-1.08 -0.77,-1.68 -0.02,-0.88 0.21,-1.85 0.21,-2.56 0,-2.57 0.8,-1.37 1.18,-1.93 0.03,-0.05 0.67,-2.47 0.67,-2.52 0,-1.01 -0.47,-0.89 -1.06,-1.27 -0.06,-0.51 0.55,-1.41 0.67,-2.02 0.1,-0.49 0.25,-0.57 0.42,-0.9 0.19,-0.36 0.18,-0.64 0.29,-1.06 0.08,-0.3 0.13,-2.02 0.1,-2.41 -0.14,-1.5 0.02,-0.96 1.14,-0.94 0.4,0 0.84,0.04 1.25,0.08 0.61,0.06 0.66,-0.13 0.71,0.56 0.05,0.7 0.05,1.57 0.17,2.34 0.08,0.49 0.12,0.63 -0.35,0.79 -0.31,0.11 -0.72,0.29 -0.96,0.38 -0.35,0.13 -1.99,0.39 -1.99,0.67 0,1.06 2.96,-0.83 3.45,-0.75 0.07,0.96 0.1,2.18 0.2,3.22zm-6.22 -6.62c-0.28,0 -0.21,-0.3 0.12,-0.32 0.03,0.12 0.1,0.32 -0.12,0.32zm6.2 2.69c0,-0.59 -0.13,-1.16 -0.17,-1.8 -0.11,-1.74 -0.73,-1.53 4.15,-1.12 1.07,0.09 0.47,0.34 -0.08,0.73 -0.69,0.48 -3.31,2.33 -3.9,2.19zm-15.2 4.79l-1.83 0.08c-0.08,-0.17 -0.03,-0.26 -0.11,-0.45 -0.09,-0.19 -0.18,-0.17 -0.24,-0.31 -0.16,-0.36 0.02,-0.86 0.06,-1.08l1.88 0.43c0.21,0.12 1.05,0.4 1.29,0.17 0.15,-0.14 -0.13,-1.12 -0.21,-1.2 -0.59,-0.64 -0.93,-1.07 -1.58,-1.64 -0.78,-0.67 -1.8,-0.24 -2.75,-0.25 -0.5,-0.01 -1.07,0.02 -1.16,0.42 -0.06,0.26 0.13,0.43 0.14,0.61 0.01,0.33 -0.17,0.14 -0.44,0.51l0.77 0.56 0.45 0.1c-0.09,0.24 -0.76,0.49 -0.93,0.81 -0.25,0.5 -0.18,0.87 -0.72,0.97 -0.09,0.1 -0.21,0.13 -0.4,0.08l0 -0.27 0.09 -1.03 0.41 -4.56 0.07 0.12 1.3 -0.85 0.12 0.6c0.4,0.4 0.66,-0.47 1.11,-0.48l0.07 0.67c0.74,0.19 0.75,-0.77 1.42,-0.98l-0.4 0.85c0.81,0.39 0.51,0.14 0.92,-0.32 0.09,-0.11 0.67,-0.83 0.74,-0.86l0.04 0.08 0.86 -0.49 -1.22 2.23 -0.16 -0.02c0.16,0.26 0.18,0.36 0.36,0.5l2.45 -1.74c0.13,0.2 -0.22,0.9 -0.22,1.07 0.03,0.51 0.53,0.37 0.77,0.14 0.37,-0.37 0.79,-1.14 1.53,-1.16 0.01,0.25 -0.37,0.58 -0.02,0.79 0.35,0.21 0.54,-0.13 0.69,-0.36 0.14,-0.21 0.98,-1.11 1.23,-0.96 0.09,0.2 -0.35,1.71 0.95,0.89 0.23,-0.14 1.36,-0.8 1.69,-0.55 0.34,0.1 0.2,1.94 0.49,2.34 0.47,0.64 0.17,0.36 0.12,1.14 -0.02,0.46 -0.12,0.78 -0.15,1.26 -0.03,0.47 -0.01,0.85 -0.04,1.29 -0.03,0.37 -0.31,0.39 -0.3,1.08 0.01,0.45 0.17,0.6 0.08,1.29 -0.04,0.28 -0.07,0.31 -0.06,0.67 0.01,0.31 -0.09,0.27 -0.14,0.54 -0.07,0.39 -0.41,4.78 -0.44,5.43 -0.02,0.42 -0.24,1.05 -0.24,1.06 0.04,0.6 0.07,0.72 -0.02,1.32 -0.04,0.31 -0.11,1.77 -0.15,1.94 -0.06,0.21 -0.22,0.4 -0.17,0.5l0.3 0.23c-0.11,0.46 0.01,0.81 -0.14,1.27 -0.12,0.37 -0.19,0.83 -0.18,1.29 0,0.57 -0.15,0.74 -0.15,1.37 0.01,0.42 -0.04,0.41 -0.08,0.64 -0.03,0.16 0.06,0.42 0.06,0.62 0,0.62 -0.17,2.02 -0.27,2.65 -0.36,2.25 -0.79,1.9 -1.64,2.77 -0.16,0.17 -0.52,0.61 -0.7,0.75 -0.29,0.24 -0.43,0.5 -0.72,0.76 -0.31,0.27 -0.51,0.42 -0.78,0.67 -0.16,0.15 -0.25,0.14 -0.44,0.3 -0.2,0.17 -0.22,0.29 -0.34,0.4 -0.1,0.09 -0.78,0.44 -0.95,0.5 -0.75,0.28 -0.52,0.05 -0.97,-0.2 -0.41,-0.23 -1,-0.76 -1.23,-0.87 -0.28,-0.13 -0.12,-0.16 -0.36,-0.36 -0.35,-0.29 -0.45,-0.41 -0.77,-0.72 -0.51,-0.5 -1.05,-0.87 -1.57,-1.36 -0.25,-0.24 -0.49,-0.32 -0.81,-0.66 -0.15,-0.16 -0.64,-0.63 -0.71,-0.74 -0.18,-0.26 -0.48,-0.4 -0.72,-0.76 -0.35,-0.52 -0.58,-1.73 -0.56,-2.39 0.03,-1.23 -0.21,-2.31 -0.21,-3.86 -0.01,-0.94 0.13,-1.6 0.14,-2.63 0,-0.45 -0.15,-1.05 -0.08,-1.34 0.17,-0.77 -0.01,-0.53 -0.28,-0.99 0.1,-0.23 0.32,-0.24 0.33,-0.78 0,-0.37 -0.06,-0.7 -0.06,-0.96 -0.01,-0.7 -0.02,-1.19 0.02,-1.89 0.02,-0.27 0.06,-0.72 0.04,-0.93 -0.05,-0.41 -0.17,-0.34 -0.15,-0.97l0.13 -1.46c0.08,-0.32 0.16,-0.12 0.19,-0.36 -0.03,-0.33 -0.27,-0.08 -0.18,-0.59 0.04,-0.2 0.02,-0.46 0.04,-0.7 0.03,-0.27 -0.05,-0.36 0.09,-0.67 0.19,-0.44 -0.18,-0.34 0.03,-0.66 0.32,-0.24 0.28,0 0.74,-0.16 0.33,-0.12 0.38,0.07 0.57,0.29 0.33,0.36 0.88,0.49 1.36,0.23 0.37,-0.2 0.99,-0.44 1.52,-0.44 0.37,0.01 0.58,-0.09 0.9,-0.04 0.21,0.04 0.76,0.16 0.59,-0.23zm-1.95 -7.28c0.02,-0.34 0.11,-0.31 0.23,-0.35 0.22,-0.08 0.15,-0.2 0.37,-0.22 -0.06,0.15 -0.16,0.25 -0.25,0.37 -0.11,0.13 0,0.04 -0.26,0.18 -0.06,0.03 -0.02,0.02 -0.09,0.02zm23.33 -0.45c-1.4,0 0.05,-0.47 0.66,-1.13l2.17 -1.74c0.35,-0.16 0.22,0.09 0.39,0.31 0.21,0.28 0.45,0.56 0.62,0.93 0.21,0.44 1.15,1.63 1.13,1.97l-4.12 -0.28 -0.22 -0.5c-0.39,0.18 0.39,0.44 -0.63,0.44zm-10.79 1.7c-0.22,-0.19 0.06,-0.26 -0.21,-0.42 -0.39,-0.22 -0.2,0.21 -0.76,-1.06 -0.16,-0.36 -0.03,-0.69 0.31,-0.79 0.7,-0.21 0.61,0.07 0.93,0.07 -0.01,0.5 -0.1,-0.17 -0.45,0.27 -0.1,0.13 -0.28,0.54 -0.22,0.69l0.4 -0.07c0.6,-0.04 0.31,1.26 0,1.31zm-3.43 -1.6c0,-0.31 -0.33,-0.67 0.06,-0.84 0.21,0.04 0.17,0.03 0.25,0.22 0.05,0.11 0.1,0.22 0.17,0.31 0.44,-0.01 0.4,-0.11 0.54,-0.14 0,-0.01 -0.11,-0.07 0,-0.22 0.07,-0.08 0.18,-0.11 0.29,-0.13 0.08,0.26 -0.03,0.19 -0.22,0.32 -0.06,0.07 -0.15,0.63 -0.35,0.82 -0.09,0.09 -0.59,0.39 -0.87,0.37 0.02,-0.46 0.13,-0.53 0.13,-0.71zm-1.24 -0.56c-0.01,-0.18 0.07,-0.44 0.28,-0.38 0.17,0.04 0.05,-0.02 0.1,0.09 -0.03,0.09 0.07,0.07 -0.21,0.13 -0.04,0.14 -0.01,0.14 -0.17,0.16zm-4.69 0.17c-0.06,-0.07 -0.13,-0.29 -0.1,-0.4 0.04,-0.17 0.1,-0.3 0.31,-0.24 0.07,0.2 -0.13,0.49 -0.21,0.64zm0.34 -1.18c-0.1,-0.25 0.18,-0.48 0.28,-0.58 0.15,-0.17 0.27,-0.36 0.52,-0.37 0.05,0.13 0.05,0.14 -0.01,0.29 -0.12,0.32 -0.21,0.35 -0.38,0.51 -0.17,0.18 -0.16,0.18 -0.41,0.15zm-19.93 -1.1c0.14,-0.46 1.14,-1.47 1.57,-1.73 0.7,-0.44 0.49,0.34 0.65,0.67 0.18,0.35 0.33,0.82 0.16,1.19l-0.33 -0.06 -0.02 0.25 0.74 0.25 0.71 2.49c-0.82,0.5 -4.51,-1.28 -4.54,-1.36 0,-0.09 0.65,-1.15 0.75,-1.24 0.25,-0.21 1.21,-0.13 1.65,-0.13 0.14,0 0.14,-0.22 0.03,-0.26 -0.17,-0.07 -0.03,0.03 -0.19,0.19l-0.06 -0.2 -1.12 -0.06zm17.68 0.05c0.01,-0.18 0.02,-0.19 0.12,-0.27 0.11,-0.08 0.1,-0.1 0.2,-0.17 0.5,-0.42 0.78,0.05 0.2,0.23 -0.26,0.08 -0.23,0.18 -0.52,0.21zm-3.24 -1.1c0.01,0.14 0.01,0.18 -0.09,0.24 -0.12,-0.06 -0.04,0.03 -0.11,-0.11 0.05,-0.11 0.05,-0.14 0.2,-0.13zm0.86 1.15c0,0 0.27,-1.09 0.81,-1.45 0.13,-0.09 0.83,-0.22 1,-0.19 0.26,0.06 0.02,0.16 -0.02,0.36 -0.05,0.29 0.12,0.19 0.08,0.48l-1.08 1.32 -0.09 -0.08c-0.01,-0.14 0,-0.47 -0.07,-0.58l-0.63 0.14zm3.54 -0.41c-0.43,-0.45 -0.2,-0.57 0.28,-0.82 0.16,-0.09 0.93,-0.61 1.09,-0.51l-0.34 0.42c0.42,0.17 -0.73,2.39 -1.52,1.97l0.97 -1.22 -0.1 -0.1 -0.38 0.26zm-3.5 -1.49c-0.03,-0.2 0.1,-0.14 0.31,-0.21 0.11,-0.04 0.35,-0.2 0.36,-0.03 0,0.08 -0.06,0.09 -0.13,0.16 -0.21,0.22 -0.17,0.01 -0.35,0.06 -0.1,0.02 -0.01,0.08 -0.19,0.02zm-11.63 2.02c-0.31,0 -0.6,-0.2 -0.75,-0.39 -0.14,-0.18 -0.21,-0.72 -0.28,-1 -0.07,-0.3 -0.32,-0.58 -0.25,-1.01 0.06,-0.34 0.52,-0.33 0.75,-0.51 1,-0.76 1.69,-1.72 2.82,-2.29 1.82,-0.92 2.06,-1.62 2.21,-0.54 0.05,0.43 0.12,0.58 0.2,1.05 0.12,0.74 0.73,3.88 0.73,4.32 0,0.84 0.04,0.81 -0.58,0.7 -0.33,-0.05 -2.17,-0.28 -2.27,-0.03 0.1,0.14 0.12,0.13 0.35,0.13 0.73,0 1.45,-0.05 2.16,0.11 0.15,0.04 0.51,-0.13 0.58,0.4 0.1,0.86 0.3,2.26 0.54,3.04 0,0.01 0.54,2.29 0.54,1.55l-0.81 -4.73 0.13 -0.02c0.21,-0.32 0.36,-0.17 0.68,-0.17l1.54 0.14c-0.04,0.33 -0.45,1.6 -0.58,2.07 -0.19,0.76 -0.24,1.41 -0.21,2.29 0.03,0.67 0,1.52 0.16,2.21 0.15,0.66 0.28,1.9 0.32,2.33l-1.71 0.18c-0.34,0.02 -0.74,-0.04 -0.74,-0.04 -0.43,0.01 -1.64,-0.09 -2.34,-0.1 -1.01,-0.02 -1.36,0.13 -1.52,-1.06 -0.04,-0.34 -0.31,-1.35 -0.42,-1.72l-0.67 -2.48c-0.37,-0.83 0,-0.69 0.65,-0.69 0.73,0 1.63,0.2 2.43,0.14l1.82 -0.12c0.21,-0.05 0.3,-0.3 0.08,-0.3l-1.81 0c-0.22,-0.01 -0.15,0.03 -0.3,0.03 -0.57,0 -0.11,-0.06 -0.74,0 -0.18,0.02 -2.31,-0.32 -2.32,-0.32 -0.14,-0.14 -0.83,-2.22 -0.76,-2.55 0.12,-0.64 1.15,-0.25 1.65,-0.33 0.11,-0.02 0.3,-0.24 0.31,-0.28l-1.59 -0.01zm14.11 -2.98c-0.02,0.11 0.06,0.04 -0.03,0.34 -0.1,0.34 -0.28,0.44 -0.66,0.47l-0.43 0.04c-0.05,0 -0.15,0.06 -0.07,-0.13 0.01,-0.04 0.1,-0.13 0.12,-0.15 0.32,-0.28 0.6,-0.56 1.07,-0.57zm-2.27 0.28c0.04,-0.11 0,-0.06 0.15,-0.1 0.32,-0.09 0.05,-0.02 0.34,-0.18 0.26,-0.14 0.31,-0.13 0.49,-0.22 0.19,-0.08 0.11,-0.15 0.34,-0.14 -0.02,0.1 -0.11,0.23 -0.19,0.3 -0.07,0.06 -0.08,0.04 -0.15,0.07 -0.11,0.05 -0.05,0.04 -0.13,0.09 0,0 -0.67,0.3 -0.85,0.18zm2.85 0.13c-0.02,-0.48 0.22,-0.8 0.26,-1.12 0.08,-0.58 -0.29,-0.69 0.88,-0.72 1.23,-0.03 0.86,0.29 1.03,0.32l0.68 -0.12 0 -0.08 2.1 0.29 0.03 0.1 -1.01 1.19 1.4 -1.16c0.34,-0.01 1.23,0.25 1.65,0.33 0.46,0.09 0.8,0.51 1.22,0.74 0.83,0.46 0.54,0.22 1.04,0.96 0.3,0.43 0.73,0.86 0.62,1.33l-1.23 -0.3 0.05 -0.41 -0.63 0.11c-0.01,-0.17 0.01,-0.35 -0.07,-0.51l-1.08 0.39 -0.01 -1.22 -0.08 -0.01 -0.36 1.85 0.1 0.09 1.01 -0.4 -0.26 0.55 0.12 -0.02 0.39 0.73 -0.08 0.04c0.44,0.09 0.44,-0.4 0.81,-0.37 0.23,0.02 0.19,0.15 0.45,0.1 0.34,-0.06 0.13,-0.14 0.71,-0.14 0.23,0 0.21,0.55 0.39,0.68l0.39 0.07c0.04,0.1 0.05,0.54 0.04,0.54 -0.09,0.12 -0.66,0.28 -0.88,0.26 -0.49,-0.07 -0.57,0.03 -0.57,-0.44 0,-0.59 -0.31,-0.21 -1.13,-0.31 -0.45,-0.05 -0.38,0.24 -0.48,0.4l-0.01 -0.09 -1.36 0.17 0.05 -0.35 0.9 -0.34 -0.07 -0.16 -1.33 0.46c-0.11,-0.31 0.26,-1.07 0.26,-1.26 0,-0.39 -0.25,-0.37 -0.34,-0.25 -0.06,0.08 -0.05,0.36 -0.11,0.52 -0.13,0.35 -0.55,0.43 -0.47,0.81l0.24 -0.05 0 0.21 -0.42 0.1c-0.03,-0.06 0.23,-1.99 0.33,-2.29 0.1,-0.29 1.44,-1.12 1.21,-1.49l-0.9 0.55 0.13 -0.7c-0.19,0.08 -0.31,0.77 -0.6,0.93 -0.18,0.1 -0.23,-0.09 -0.43,0.2 -0.12,0.16 -0.14,0.34 -0.25,0.53 -0.28,0.47 -0.31,2.32 -0.77,2.29 -0.11,-0.22 0.11,-0.92 0.21,-1.14 0.2,-0.42 0.11,-0.76 0.11,-1.19 0,-1.2 -0.39,-0.51 -0.39,-0.41 0,0.62 -0.3,2.33 -0.54,2.74l0.11 -1.25c0.03,-0.49 -0.11,-0.33 -0.18,-0.53l0.54 -0.78 -0.08 -0.09 -0.65 0.06 -0.34 -0.37 0.47 -1.23c-0.42,-0.17 -0.44,-0.11 -0.73,0.55 -0.15,0.31 -0.52,0.27 -0.85,0.49 -0.24,0.15 -1.46,1 -1.67,1.02 0,-0.94 1.24,-0.6 1.41,-1 0,-0.01 -0.03,-0.27 -0.08,-0.34l-0.9 -0.06zm14.52 4.32c-0.79,0.09 -1.86,-0.12 -2.43,-0.09 -1.15,0.06 -0.83,-0.76 -1.14,-1.49 -0.55,-1.28 -1.04,-2.7 -2.13,-3.29 -0.52,-0.27 -1.14,-0.93 -1.73,-0.99 -0.74,-0.08 -1.48,-0.3 -2.21,-0.48 -0.87,-0.21 -1.53,0.06 -2.24,-0.48 -0.72,-0.54 1.29,-0.68 1.67,-0.77 0.75,-0.18 1.56,-0.22 2.32,-0.42 0.75,-0.19 1.46,-0.25 2.24,-0.47 0.46,-0.13 1.66,-0.59 2.04,-0.64 0.77,-0.11 1.12,0.09 2.12,0.15 0.6,0.04 0.66,0.11 0.7,0.68l0.43 3.55c0.09,0.59 0.47,4.32 0.36,4.74zm-24.53 -8.12c0,-0.45 1.62,-1.28 2.18,-1.28 0.09,0 2.18,0.88 2.45,0.98 1.82,0.66 4.34,1.18 6.34,1.15l0.92 -0.07c0.56,-0.02 0.56,0.5 0.29,0.66 -0.23,0.13 -0.84,-0.02 -1.1,-0.02 -1.48,0 -2.26,0.72 -3.4,1.33 -0.29,0.15 -0.74,0.23 -1.02,0.47 -0.65,0.55 -0.8,0.83 -1.63,1.4 -0.36,0.26 -1.58,0.98 -1.6,1.47l0.69 -0.14c0.02,0.15 -0.29,0.82 -0.61,0.86 -0.46,0.05 -0.99,-0.04 -1.4,-0.03 -1.22,0.05 -0.97,-0.55 -1.2,-1.69 -0.1,-0.46 -0.05,-0.72 -0.17,-1.2 -0.08,-0.31 -0.18,-0.96 -0.23,-1.26 -0.18,-1.01 -0.51,-1.78 -0.51,-2.63zm31.02 7.97c-1.45,1.15 -0.89,0.5 -2.26,0.5l-2.08 -0.17c-0.25,0.06 -0.32,-0.04 -0.52,-0.04 -0.32,0 -0.97,0.05 -1.26,-0.03l-0.9 -8.32 -0.04 -0.59c0.52,-0.07 2.15,-0.01 2.66,0.21 0.62,0.27 1.32,1.02 1.82,1.34 0.87,0.56 3.05,2.03 3.62,2.68 0.45,0.52 1.13,0.92 1.66,1.49 0.47,0.51 0.52,0.46 -0.03,0.89 -0.85,0.67 -1.85,1.38 -2.67,2.04zm-5.42 -8.9l-0.07 0.18c-0.28,0 -0.2,-0.11 -0.48,-0.14l-0.85 -0.05c-0.12,0 -0.31,0.21 -0.31,-0.66 0.32,-0.1 1.53,0.48 1.71,0.67zm-3.56 -0.31c0.11,-0.13 0.99,-0.42 1.18,-0.48 0.43,-0.14 0.29,0.07 0.36,0.33 0.08,0.28 -0.03,0.39 -0.34,0.32 -0.22,-0.06 -0.34,-0.01 -0.53,-0.03 -0.26,-0.03 -0.17,-0.18 -0.37,-0.17 -0.23,0.09 -0.06,0.24 -0.3,0.03zm-2.56 0.11c0.73,0 -0.38,0.33 -0.5,0.35 -0.7,0.12 -1.41,0.31 -2.14,0.47 -0.5,0.11 -4.15,0.82 -4.37,0.62 -0.05,-0.05 -0.29,-0.91 -0.3,-0.99 -0.01,-0.19 0.13,-0.21 0.06,-0.52 -0.03,-0.19 -0.14,-0.35 -0.07,-0.47 0.14,-0.24 3.68,0.11 4.17,0.24 0.43,0.12 1.66,0.02 2.15,0.17 0.43,0.13 0.67,0.13 1,0.13zm19.17 14.35c-0.19,-0.15 -0.56,-2.64 -1.24,-3.57 -0.21,-0.29 0,-0.27 -0.25,-0.49 -0.41,-0.36 -0.78,-0.89 -1.02,-1.38 -0.17,-0.35 -0.24,-0.2 -0.37,-0.46 -0.1,-0.22 -0.09,-0.31 -0.26,-0.51 -0.18,-0.23 -0.46,-0.69 -0.63,-0.96 -0.26,-0.39 -0.42,-0.56 -0.69,-0.91 -0.26,-0.32 -3.17,-2.92 -3.4,-3.01 -1.3,-0.57 -2.96,-2.44 -3.67,-2.67 -0.62,-0.2 -1.45,-0.85 -2.13,-1.09 -0.65,-0.24 -0.51,-0.33 0.11,-0.58 0.73,-0.3 2.73,-1.23 3.24,-1.57 0.91,-0.63 1.21,-0.49 2.15,0.1 1.12,0.69 2.17,2.13 3.44,2.96 0.35,0.24 0.55,0.48 0.87,0.73 0.26,0.2 0.16,0.28 0.37,0.44 0.16,0.13 0.32,0.11 0.53,0.25 0.1,0.06 1.91,1.53 1.36,1.53 -0.23,0 -0.38,-0.06 -0.39,0.3 0.11,0.2 0.97,0.33 1.26,0.43 0.25,0.09 2.08,2.48 2.26,2.74 0.23,0.32 0.41,0.87 0.58,1.1 0.15,0.21 0.22,0.83 0.43,1.23 0.35,0.67 0.47,0.4 0.84,1.64 0.09,0.29 0.22,0.24 0.32,0.51 0.64,1.75 0.62,3.85 1.18,5.48 0.4,1.14 0.28,1.6 0.49,2.71 0.05,0.3 0.39,2.79 0.33,2.87 -0.14,0.32 -0.34,0 -0.41,0.61 -0.17,1.43 -0.07,1.37 0.12,2.96l-1.1 0.9 0.13 0.17 1.04 -0.72c0.05,0.12 0.04,0.6 0.06,0.83 0.05,0.55 0.12,0.34 0.23,0.73 0.08,0.32 -0.21,1.02 -0.21,1.62l-0.14 3.37c-0.01,0.41 0.03,0.62 0.03,0.71l-0.05 1.72c-0.11,0.36 -0.24,0.01 -0.15,0.53 0.05,0.28 -0.01,0.32 -0.09,0.55 -0.18,0.47 -0.21,2 -0.26,2.62 -0.09,0.94 -0.22,4.76 -0.83,4.94l-0.01 -0.67 -0.17 -0.08 -0.71 0.88 -0.11 -0.09c-0.29,-0.26 -1.03,-5.09 -1.03,-5.84l0 -0.45c0,-0.02 0.34,-1.27 0.38,-1.35 0.21,-0.48 0.16,-0.8 0.07,-1.45 -0.07,-0.49 -0.06,-2.69 0.02,-3.16 0.15,-0.94 0.24,-2.26 0,-3.16 -0.09,-0.31 -0.05,-0.49 -0.06,-0.78 -0.01,-0.35 -0.29,-0.08 -0.28,-2.18 0,-1.06 -0.34,-1.94 -0.47,-2.97 -0.07,-0.52 -0.27,-0.78 -0.34,-1.34 -0.05,-0.34 -0.18,-1.02 -0.26,-1.44 -0.27,-1.42 -0.29,-1.67 0.53,-2.48 0.17,-0.18 1.82,-1.54 1.72,-1.62l-0.09 -0.11 -2.35 2.02 -0.15 -0.04 -0.54 -5.23c-0.06,-0.49 0.11,-0.56 -0.34,-0.75l0.2 2.42c0,0.19 0.01,0.35 -0.09,0.51zm-30.43 -15.78c0.33,0 -0.16,-0.14 0.26,-0.18 0.16,-0.02 0.96,-0.01 1.22,-0.08 0.29,-0.09 1.27,-0.49 1.49,-0.49 0.46,0 0.47,0.72 0.37,1.12l-1.37 0.11c0.11,0.31 1.37,-0.08 1.57,0.43 0.12,0.31 0.41,1.87 0.27,1.97 -0.27,0.38 -4.25,-0.13 -4.73,-0.29 -0.33,-0.11 -0.73,-0.15 -1.06,-0.27 -0.36,-0.13 -0.67,-0.25 -0.99,-0.35 -0.23,-0.08 -1.8,-0.71 -1.84,-0.82 0.52,-0.21 1.03,-0.16 1.55,-0.37 0.72,-0.29 0.89,-0.53 1.67,-0.53l3.46 0.31 0.02 -0.19 -2.6 -0.37 0.02 -0.14c0.18,0.04 0.53,0.14 0.69,0.14zm10.23 1.1c-0.39,0 -0.77,-0.11 -1.22,-0.15 -0.48,-0.04 -0.98,0 -1.56,-0.09 -0.47,-0.08 -1.13,-0.18 -1.45,-0.19 -0.44,0 -0.93,0.01 -1.28,-0.08 -1.03,-0.26 -0.6,0.06 -1.03,-0.72 -0.35,-0.61 -0.12,-0.86 0.46,-0.98 1.12,-0.24 2.26,-0.03 3.32,-0.13 1.13,-0.1 5.69,0.26 6.18,0.9 0.37,0.48 0.83,0.4 1.06,0.76 0.14,0.23 -0.94,0.41 -1.2,0.49 -0.54,0.15 -0.83,0.34 -1.44,0.35 -0.27,0.01 -1.13,-0.16 -1.84,-0.16zm-40.02 26.67c0,-0.31 0.27,-0.59 0.28,-0.79 0,-0.27 -0.02,-0.71 0.04,-1.03 0.11,-0.54 0.29,-1.3 0.41,-1.83 0.27,-1.23 0.55,-2.47 0.95,-3.64 0.41,-1.19 0.74,-2.21 1.27,-3.32 0.24,-0.5 0.55,-1.02 0.74,-1.56 0.18,-0.49 0.59,-1.07 0.76,-1.5 0.23,-0.56 0.5,-1.01 0.76,-1.55 0.08,-0.17 0.08,-0.21 0.23,-0.35 0.21,-0.21 0.05,-0.08 0.17,-0.4 0.05,-0.14 0.26,-0.52 0.37,-0.77 0.08,-0.18 0.17,-0.25 0.21,-0.37 0.05,-0.14 0.01,-0.19 0.12,-0.37 0.15,-0.26 0.26,-0.52 0.4,-0.75 0.35,-0.57 0.47,-0.89 0.88,-1.42 0.12,-0.15 0.21,-0.46 0.43,-0.73 0.17,-0.22 0.31,-0.42 0.49,-0.65 1.51,-2 1.73,-1.89 3.41,-3.45 0.78,-0.73 2.69,-2.71 3.57,-3.25 0.22,-0.14 0.46,-0.32 0.69,-0.46 0.32,-0.18 0.68,-0.15 0.88,-0.27 0.2,-0.11 0.33,-0.3 0.68,-0.46 0.28,-0.12 0.52,-0.22 0.81,-0.35 0.54,-0.24 1.13,-0.4 1.66,-0.63 0.63,-0.27 1.01,-0.41 1.65,-0.65 0.45,-0.16 1.33,-0.38 1.71,-0.56l1.64 -0.57c2.12,-0.53 1.83,-0.42 3.94,-0.59 2.06,-0.17 3.19,-0.93 5.87,-0.95 1.22,-0.01 2.75,0.53 4.04,0.53l2.07 -0.03c1.75,-0.02 3.9,0.42 5.11,1.14 0.43,0.26 3.98,1.64 4.06,1.77 -0.18,0.26 -2.16,1.2 -2.56,1.38 -0.24,0.11 -1.9,0.82 -2.11,0.86 -0.43,0.07 -0.34,-0.29 -0.5,-0.35 -0.08,-0.03 -0.34,0.03 -0.52,-0.07 -0.26,-0.16 -0.9,-0.65 -1.24,-0.75 -0.48,-0.16 -1.69,-0.42 -2.2,-0.42 -0.46,-0.06 -2.36,-0.36 -2.67,-0.36l-5.06 0.23 -0.75 -1.62 -0.19 0.07 0.37 1.7c-0.18,0.35 -2.2,0.73 -2.85,0.73 -0.57,0 -1.16,-0.01 -1.65,0.15 -0.32,0.11 -1.04,0.42 -1.36,0.42 -0.72,0 -0.52,0.13 -1.08,0.25 0.12,0.07 0.56,0 0.12,0.21 -0.54,0.24 -1.71,0.32 -2.3,0.32 -0.16,0 -0.94,-0.36 -1.17,-0.18l-0.22 0.26 0.28 0.25c-0.08,0.16 -0.83,0.49 -1,0.55 -0.74,0.27 -0.46,0.33 -0.91,0.65 -0.31,0.23 -1.63,0.98 -1.99,1.13 -0.41,0.17 -1.45,1.03 -1.74,1.37 -0.4,0.46 -0.78,0.78 -1.31,1.04 -0.46,0.23 -0.26,-0.01 -0.54,0l-3.04 3.04c-0.07,0.16 0.15,-0.05 0.04,0.34 -0.04,0.13 -0.1,0.18 -0.17,0.35 -0.51,1.27 -1.07,-0.22 -1.83,-0.22l-0.3 0c-0.71,0 0.04,0.65 0.23,0.75 0.45,0.22 0.55,0.26 0.95,0.53 0,0.42 -1.55,1.58 -1.92,1.99 -0.59,0.66 -1.06,1.47 -1.49,2.41 -0.43,0.91 -0.83,1.7 -1.29,2.61 -0.16,0.32 -0.25,0.14 -0.44,0.56 -0.32,0.72 -0.35,0.65 -0.72,1.21 -0.2,0.31 -0.13,0.3 -0.29,0.59 -0.27,0.51 -0.3,0.87 -0.5,1.39 -0.18,0.43 -0.3,1.09 -0.47,1.5 -0.11,0.3 -0.26,1.26 -0.34,1.62 -0.11,0.54 -0.31,0.95 -0.41,1.52 -0.08,0.41 -0.35,1.15 -0.52,1.45 -0.15,0.28 -0.28,1.14 -0.34,1.48 -0.08,0.41 -0.34,1.18 -0.39,1.52 -0.08,0.48 -0.08,1.3 -0.23,1.72l-0.68 0.08c-0.31,0.23 0.01,0.7 0.2,0.87 0.34,0.3 0.4,0.33 0.4,0.94 0,0.89 -0.27,2.71 -0.39,3.67l-0.36 3.27c-0.06,0.63 0,0.85 0,1.44l-0.14 3.9c-0.01,0.55 -0.04,0.33 -0.48,0.17 -0.27,-0.09 -0.43,0.01 -0.61,-0.17 -0.26,-0.27 -0.68,-0.56 -0.65,-0.92 0.07,-1.06 0,-1.97 0,-2.83 0.04,-1.51 0.08,-3.01 0.07,-4.52 -0.01,-0.36 0.11,-0.31 0.15,-0.47 0.04,-0.16 -0.05,-0.24 -0.05,-0.38 0.04,-0.34 0.01,-0.27 0,-0.6 0,-0.36 0.04,-0.53 0.04,-0.59l-0.04 -0.85 0.86 -7.38zm66.86 2.74c0,-0.3 -0.22,-2.55 -0.28,-2.86 -0.14,-0.67 -0.04,-2.21 -0.13,-3.03 -0.11,-0.96 -0.17,-1.94 -0.33,-2.83 -0.14,-0.79 -0.12,-1.87 -0.27,-2.76 -0.16,-0.88 -0.6,-1.44 -0.69,-2.47 -0.06,-0.65 -0.26,-2.1 -0.43,-2.71 -0.12,-0.41 -0.27,-0.88 -0.36,-1.25 -0.09,-0.38 0.2,-0.23 -0.1,-0.52 -0.34,-0.35 -0.49,-1.2 -0.73,-1.6 -0.18,-0.3 0.01,-0.26 -0.26,-0.52 -0.14,-0.14 -0.21,-0.3 -0.31,-0.48 -0.38,-0.72 -0.71,-1.32 -1.16,-1.99 -0.15,-0.21 -1.39,-1.73 -1.39,-1.75 -0.13,-0.4 0.05,-0.05 -0.26,-0.41 -0.24,-0.29 -0.14,-0.17 -0.39,-0.39 -0.24,-0.2 -0.57,-0.54 -0.78,-0.78 -0.27,-0.31 -0.55,-0.48 -0.81,-0.75 -0.42,-0.45 -0.09,-0.41 -0.81,-0.75 -0.34,-0.16 -3.18,-2.54 -3.41,-2.85 -0.19,-0.27 -1.43,-1.3 -1.71,-1.45 -0.21,-0.11 -0.95,-0.39 -1,-0.53 -0.05,-0.2 0.7,-0.42 0.75,-0.77 -0.38,-0.1 -0.63,0.36 -1.09,0.52 -0.3,0.09 -0.99,-0.25 -1.29,-0.36 -1.84,-0.66 -3.22,-1.48 -4.86,-2.03 -1.45,-0.48 -2.4,-0.53 -3.85,-0.53 -0.1,0 -0.07,0.03 -0.22,0.03 -1.59,-0.02 -2.06,0.08 -3.9,-0.32 -3.31,-0.7 -4.27,0.23 -6.45,0.53 -0.79,0.11 -1.34,0.15 -2.22,0.22 -0.51,0.03 -0.63,0.07 -1.08,0.05 -0.13,0 -0.7,0.21 -0.93,0.25 -1.46,0.26 -2.48,0.78 -3.79,1.11 -0.67,0.17 -2.98,1.06 -3.59,1.38 -0.07,0.04 -1.76,0.7 -1.77,0.7 -0.51,0.13 -0.56,0.29 -0.89,0.38 -0.73,0.2 -0.3,-0.04 -0.78,0.44 -0.41,0.41 -0.9,0.69 -1.37,1.11 -0.42,0.38 -0.88,0.81 -1.29,1.2 -0.86,0.84 -1.57,1.62 -2.56,2.41 -1.38,1.09 -2.32,2.61 -3.36,4.02 -0.14,0.19 -1.4,2.76 -1.68,3.28 -0.27,0.5 -0.58,1.12 -0.82,1.67 -0.15,0.35 -0.28,0.32 -0.45,0.81 -0.06,0.15 -0.3,0.69 -0.39,0.83 -0.3,0.5 -0.52,1.16 -0.79,1.69 -0.11,0.21 -0.34,0.63 -0.42,0.85 -0.17,0.49 -0.26,0.24 -0.41,0.81 -0.15,0.59 -0.36,1.29 -0.6,1.81 -0.36,0.81 -1.2,4.66 -1.37,5.92 -0.08,0.58 -0.39,1.34 -0.43,1.92 -0.05,0.62 -0.16,1.59 -0.29,2.19 -0.11,0.47 -0.31,1.67 -0.31,2.08 0.05,0.33 -0.1,1.08 -0.14,1.44l-0.11 1.94c0,0.6 -0.13,1.21 -0.14,1.78l0 2.59c-0.04,0.77 -0.11,1.53 -0.11,2.3l0.04 2.11c0,0.13 -0.04,0.11 -0.04,0.23 0,0.12 0.04,0.13 0.04,0.29l-0.12 2.52 0.12 0c-0.04,0.16 0.03,0.29 0.03,0.45l0 2.52c0,0.53 0.02,0.57 0.11,1.12l0.04 -0.01c0,0.87 0.28,1.52 0.28,1.82 0,0.41 0.05,0.49 0.17,0.97 0.08,0.3 0.06,0.54 0.15,0.88 0.14,0.55 0.29,1.31 0.38,1.88 0.13,0.88 0.99,2.39 1.44,3.05 0.74,1.1 1.72,2.11 2.83,2.8 1.24,0.78 0.6,1.39 1.44,1.9 0.43,0.26 1.02,0.55 1.42,0.83 0.3,0.22 1.11,0.88 1.3,0.96 0.48,0.22 0.94,0.61 1.44,0.8 0.41,0.15 1.04,0.39 1.57,0.54 1.08,0.3 2.14,0.86 3.17,1.31 0.51,0.22 3.24,0.94 3.36,1.06l0.02 0.12 -2.44 0.33c-0.37,0.03 -2.54,0.02 -2.54,0.29l0 0.26c0,0.22 1.44,0.04 1.85,0 0.71,-0.08 1.29,-0.04 2,-0.15 0.39,-0.06 0.66,-0.08 0.96,0.01 0.02,0 0.54,-0.14 0.81,-0.14 0.43,-0.01 0.58,-0.1 0.86,-0.15 0.3,-0.05 0.53,0.06 0.88,0.06l-0.01 0.1 4 0.31 0.01 -0.13c0.45,0 0.83,-0.08 1.24,-0.08 0.25,0 0.65,0.15 0.66,0.15 0.24,-0.02 1.41,0.17 1.44,0.41l-5.26 0.77c-1.76,0 -3.68,-0.95 -5.3,-0.86 -0.01,0.55 0.81,0.56 1.33,0.6 0.28,0.02 1.22,0.26 1.5,0.35 -0.84,0.12 -1.64,-0.04 -2.47,-0.13 -0.4,-0.04 -0.31,-0.04 -0.51,-0.19 -0.13,-0.1 -0.21,-0.03 -0.51,-0.09 -0.44,-0.09 -0.46,-0.32 -1.09,-0.32 -0.55,0 0.1,0.64 0.34,0.74 0.39,0.15 0.84,0.19 1.23,0.29 0.73,0.18 1.65,0.1 2.02,0.19 0.48,0.13 0.38,0.06 1.05,0.06l0 0.05c0.38,-0.04 0.76,-0.09 1.15,-0.09l5.04 -0.1c0.95,0 1.81,-0.18 2.8,-0.19 0.55,0 0.53,-0.18 1.2,-0.17 0.63,0.01 0.86,-0.04 1.28,-0.17 0.77,-0.23 1.74,-0.28 2.54,-0.46 0.96,-0.21 0.64,-0.26 0.91,0.31 0.31,0.65 0.48,0.55 0.7,0.9l0.6 -0.4c-0.26,-0.35 -0.93,-0.23 -0.89,-1.14 0.2,0 3.23,-0.46 3.53,-0.6 0.46,-0.21 0.47,-0.25 1.04,-0.25 0.23,0 0.61,-0.17 0.92,-0.27 0.36,-0.13 1.78,-0.16 2.61,-0.44 0.35,-0.12 0.56,-0.06 0.96,-0.07 0.35,-0.01 0.45,-0.16 0.78,-0.22 0.53,-0.11 0.33,-0.01 0.78,-0.22 0.26,-0.12 0.5,-0.19 0.8,-0.21 0.63,-0.05 2.43,-0.75 3.07,-1.01 1.14,-0.46 1.53,-1 2.52,-1.51 0.38,-0.2 1.09,-0.35 1.52,-0.52 1.35,-0.52 2.91,-1.14 3.84,-2.24 0.69,-0.8 0.65,-0.87 1.45,-1.63 0.43,-0.42 0.31,-0.08 0.61,-0.24 0.33,-0.17 0.82,-0.71 1.11,-0.93 0.25,-0.19 1.09,-0.56 1.09,-0.92 0,-0.54 -0.31,-0.23 -0.54,-0.34l0.98 -2.03 -0.09 -0.06 0.31 -0.13c0.04,-0.27 0.03,-0.58 0.07,-0.76 0.07,-0.32 0.34,-0.25 0.42,-0.45 0.24,-0.55 0.48,-2.41 0.8,-2.73 0.31,-0.31 0.21,-0.11 0.23,-0.58 0.01,-0.17 0.16,-0.43 0.24,-0.62 0.17,-0.45 0.2,-0.97 0.34,-1.43 0.26,-0.9 0.63,-1.74 0.89,-2.6 0.13,-0.46 0.18,-0.99 0.31,-1.43 0.54,-1.78 0.85,-4.08 1.02,-6.01 0.09,-1 0.31,-2.22 0.31,-3.18 0.01,-0.31 0.1,-0.59 0.07,-0.7 -0.12,-0.39 -0.04,-0.4 0,-0.72 0.29,-2.51 -0.06,-2.33 -0.06,-2.63l0.01 -0.4c0,-0.96 0.1,-1.91 0.1,-2.86z"/>
    <path fill="#00A9B0" d="M35.52 37.67l-0.18 4.75c-0.06,0.7 -0.01,1.16 -0.07,1.81l0 2.15c0.04,0.51 -0.32,0.42 -0.86,0.42 -0.39,0 -0.67,-0.15 -0.92,-0.26 0.01,-0.22 0.11,-0.18 0.11,-0.42l-0.04 -3.63 0.59 -5.65c0.15,-0.04 1.06,-0.1 1.19,-0.08 0.37,0.05 0.01,0.12 0.03,0.37 0,0.07 0.15,0.44 0.15,0.54zm0.06 -0.87l4.8 -0.06 0.01 0.15c0.07,0.1 -0.03,2.72 -0.08,3.06 -0.13,0.99 -0.37,1.76 -0.53,2.68 -0.07,0.38 -0.14,0.97 -0.29,1.23 -0.13,0.22 -0.02,0.31 -0.2,0.57 -0.07,0.1 -0.28,0.4 -0.32,0.5 -0.39,0.86 -1.69,1.91 -2.86,1.98 -0.42,0.02 -0.3,-0.98 -0.3,-1.31 0,-1.78 -0.09,-2.66 0.04,-4.48 0.04,-0.54 -0.01,-1.04 0.04,-1.54 0.14,-1.29 -0.2,-1.8 -0.31,-2.78zm5.13 -0.62c-0.43,0.28 -1.43,-0.1 -2.29,-0.03 -0.89,0.06 -1.21,0.39 -2.24,0.2 -0.5,-0.1 -1.98,-0.12 -2.54,-0.09 -0.97,0.05 -1.44,-0.27 -2.3,-0.23l-0.22 0.61c0.2,-0.03 2.1,0.06 2.46,0.08 0.09,0.43 -0.27,3.92 -0.33,4.67 -0.07,0.74 -0.14,1.61 -0.24,2.34 -0.09,0.68 0.37,1.48 -0.25,2.07 -0.51,-0.08 -0.7,-0.83 -0.93,-1.21 -0.27,-0.44 -0.9,-0.69 -1.04,-1.1 0.15,-0.31 0.35,-3.08 0.33,-3.51 -0.04,-0.75 0.06,-1.1 0.06,-1.79 0,-0.51 0.32,-1.7 -0.31,-1.43l-0.69 7.1c0.17,0.28 0.22,-0.22 0.43,0.25 0.16,0.35 0.19,0.18 0.33,0.45 0.12,0.23 0.57,0.79 0.59,0.91 0.72,0.22 0.76,1.97 3.51,1.96 2.02,-0.01 2.76,-0.57 4.01,-1.47 0.05,-0.19 0.47,-0.79 0.6,-0.98 0.14,-0.24 0.38,-0.83 0.49,-1.1 0.26,-0.67 0.29,-0.23 0.38,-1.19 0.07,-0.73 -0.15,-0.56 0.1,-1.34 0.25,-0.78 0.13,-1.97 0.27,-2.87 0.11,-0.71 0.45,-2.29 0.05,-2.6l-0.23 0.3z"/>
    <path fill="#00A9B0" d="M36.19 32.52c-0.07,-0.2 -0.09,-0.27 0.05,-0.37 0.11,-0.07 0.27,-0.16 0.41,-0.08 -0.03,0.13 -0.01,0.06 -0.09,0.14 -0.05,0.05 -0.07,0.06 -0.12,0.11 -0.21,0.21 -0.09,0.17 -0.25,0.2zm-3.48 -0.85c0.01,-0.23 0.07,-0.16 0.29,-0.22 0.14,-0.04 0.28,-0.08 0.44,-0.03 0.01,0.21 -0.11,0.16 -0.32,0.18 -0.16,0.03 -0.16,0.07 -0.41,0.07zm-1 2.03c0.53,0 0.11,0.26 1.99,-0.19 0.36,-0.08 1.07,-0.09 1.5,-0.13 0.62,-0.06 0.84,-0.45 1.14,-0.43 0.34,0.02 0.29,-0.16 0.53,-0.2 0.26,-0.04 0.45,0.18 1.07,0.13 0.51,-0.04 0.19,-0.07 1,-0.07 0.22,0 1.01,0.39 2.04,0.39 0.56,0 0.83,-0.93 0.33,-0.93 -0.69,0 -0.61,-0.16 -0.91,-0.66 -0.2,-0.33 -0.5,-0.63 -0.62,-0.9 -0.17,-0.38 -1.24,-1.16 -1.87,-1.1 -1.31,0.13 -1.21,0.31 -1.94,1.05 -0.46,0.47 -1.15,-0.68 -2.09,-0.43 -1.56,0.42 -0.96,0.23 -1.84,1.17 -0.25,0.27 -0.44,0.53 -0.8,0.68 -0.59,0.25 -0.17,0.46 -0.7,0.83 -0.31,0.22 -0.54,0.48 -0.92,0.56 -0.57,0.11 -0.85,0.64 -0.38,0.74 0.52,0.12 2.1,-0.51 2.47,-0.51z"/>
    <path fill="#00A9B0" d="M38.15 24.71c0.06,-0.05 1.78,-0.12 1.75,0.43 0,0.12 -1.08,1.84 1.13,1.53 0.63,-0.29 1.5,-0.3 1.43,-0.61l-0.53 -0.1 -0.18 -1.34 0.04 -0.01 0.78 -0.13 0.52 -0.1c0.1,-0.36 -0.19,-0.81 -0.33,-1.03 -0.25,-0.36 -0.09,-0.66 -0.53,-0.87 -0.23,-0.1 -0.37,-0.08 -0.55,-0.17 -0.15,-0.07 -0.29,-0.19 -0.44,-0.25 -0.37,-0.16 -0.77,0.06 -1.05,0.25 -0.57,0.39 -1.17,0.71 -1.71,1.11 -0.23,0.18 -1.23,1.33 -1.16,1.67l0.06 0.1 0.77 -0.48z"/>
    <path fill="#00A9B0" d="M44.17 47.98c-0.01,-0.07 -0.67,-0.44 -0.59,-0.66 0.09,-0.23 0.87,-0.01 1.1,0.01 0.34,0.03 2.02,0.27 2.26,0.36 0.5,0.17 1.54,0.36 2.08,0.5 0.62,0.16 1.23,0.56 1.75,0.85 0.49,0.26 0.82,0.99 1.1,1.5 0.27,0.5 0.4,1.37 0.65,1.94 0.25,0.59 0.84,3.68 0.84,4.43 0,0.33 -0.8,0.99 -0.52,1.41 0.19,-0.01 0.28,-0.45 0.41,-0.62 0.14,-0.17 0.43,-0.29 0.48,-0.55 0.08,-0.32 -0.35,-3.18 -0.47,-3.55 -0.1,-0.29 -0.4,-1.52 -0.4,-1.73 0,-0.05 -0.56,-1.44 -0.62,-1.55 -0.33,-0.62 -0.47,-0.8 -0.91,-1.28 -0.42,-0.47 -0.87,-0.55 -1.35,-0.84 -0.67,-0.43 -0.97,-0.3 -1.63,-0.55 -0.73,-0.28 -2.82,-0.6 -3.6,-0.7 -0.34,-0.04 -1.66,-0.28 -1.58,0.22 0.02,0.18 0.81,1.41 1,0.81z"/>
    <path fill="#00A9B0" d="M21.64 58.61l3.07 -0.95c-0.12,0.9 0,1.21 0.1,2.04 0.04,0.36 0.05,0.28 0.19,0.48 0.19,0.26 0.1,0.39 0.11,0.43l1.25 0.79 0.05 -0.08c0.47,-0.55 -0.62,-0.83 -0.87,-1.31 -0.22,-0.43 -0.43,-1.42 -0.33,-2.08 0.12,-0.86 0.78,-0.67 1.5,-0.94 0.35,-0.12 1.7,-0.49 1.57,-0.92l-2.64 0.83c-0.08,-0.28 0.1,-0.57 0.32,-0.7 0.16,-0.1 0.62,-0.5 0.04,-0.5 -0.51,0 -0.71,0.57 -0.91,0.93 -0.42,0.79 -0.3,0.43 -1,0.85 -0.59,0.36 -1.46,0.56 -2.17,0.6 -0.36,0.03 -0.48,0.39 -0.28,0.53z"/>
    <path fill="#00A9B0" d="M44.2 60.86c-0.5,0 -0.76,-0.13 -1.05,0.08 -0.12,0.1 -0.45,0.55 -0.18,0.65 0.1,0.06 0.34,-0.32 0.82,-0.34 0.42,-0.01 0.78,0.03 1.12,-0.07 0.74,-0.21 1.25,-0.46 1.87,-0.65l2.45 -1.29c0.47,-0.3 0.64,-0.16 0.9,-0.29 0.66,-0.35 0.02,-1.31 -0.67,-0.34 -0.13,0.18 -1.3,0.79 -1.59,0.93 -0.69,0.34 -1.04,0.57 -1.6,0.89 -0.2,0.11 -0.32,0.04 -0.53,0.1 -0.18,0.05 -0.16,0.15 -0.43,0.19 -0.32,0.04 -0.84,0.14 -1.11,0.14z"/>
    <path fill="#00A9B0" d="M38.62 37.19l0.06 0.41 -0.33 6.4c0.08,0.05 0.44,0.02 0.52,-0.05l-0.04 -1.2c0,-0.5 0.14,-2.05 0.18,-2.67 0.03,-0.55 0.07,-0.28 0.07,-0.67 0,-0.09 -0.04,-0.1 -0.03,-0.33l0.03 -0.89c0,-1.12 -0.46,-1.9 -0.46,-1z"/>
    <path fill="#00A9B0" d="M35.38 27.72l0.84 0.42c0.21,-0.18 0.01,-1.17 -0.51,-1.17 -0.74,0 -1.41,1.32 -1.08,1.77 0.29,0.39 0.95,0.44 0.84,0.01 -0.04,-0.14 -0.64,-0.46 -0.09,-1.03z"/>
    <path fill="#00A9B0" d="M14.27 73.36c0.08,0.23 0.11,0.03 0.23,0.29 0.12,0.26 0.06,0.05 0.31,0.2 0.22,0.14 0.05,0.13 0.37,0.15 0.24,0.02 0.2,0.08 0.37,0.14 0.13,-0.11 0.21,-0.17 0.06,-0.35 -0.15,-0.18 -0.21,-0.11 -0.41,-0.21l-0.41 -0.23c-0.14,-0.09 -0.03,-0.07 -0.21,-0.03 -0.14,0.03 -0.12,0.04 -0.31,0.04z"/>
    <path fill="#00A9B0" d="M29.93 50.83l0 0.26c0,0.14 0.24,0.25 0.39,0.21 0.38,-0.09 0.5,-0.7 0,-0.67 -0.18,0.01 -0.39,0.03 -0.39,0.2z"/>
    <path fill="#00A9B0" d="M50.94 57.69c0,0.15 -0.01,0.16 0.04,0.26 0.17,0.05 0.36,-0.07 0.38,-0.23 0.02,-0.12 -0.02,-0.2 -0.06,-0.27 -0.06,-0.13 -0.02,-0.09 -0.17,-0.15 -0.13,0.07 -0.19,0.2 -0.19,0.39z"/>
    <path fill="#00A9B0" d="M41.89 62.96c0,0 0.04,0.17 0.23,0.07l0.08 -0.06c0.01,-0.01 0.02,-0.02 0.02,-0.02 0.28,-0.25 0.13,-0.13 0.36,-0.24 0.17,-0.09 0.14,-0.25 0.06,-0.26l-0.05 0c-0.1,0.01 -0.65,0.42 -0.7,0.51z"/>
    <path fill="#00A9B0" d="M58.81 70.05c0.11,-0.05 0.64,-0.27 0.57,-0.46 -0.03,-0.01 -0.01,-0.04 -0.17,0.04 -0.07,0.03 -0.11,0.05 -0.17,0.08 -0.21,0.08 -0.23,0.06 -0.23,0.34z"/>
    <path fill="#00A9B0" d="M13.77 72.97c0,0.38 0.2,0.38 0.43,0.29 0.01,-0.09 -0.01,-0.16 -0.15,-0.25 -0.14,-0.09 -0.17,-0.06 -0.28,-0.04z"/>
    <path fill="#00A9B0" d="M47.56 5.75c0,0.23 -0.03,0.17 0.12,0.21 0.01,0 0.02,-0.02 0.02,-0.02 0,0.01 0.01,-0.02 0.02,-0.02 0.09,-0.22 -0.05,0.16 0.02,-0.06 0.05,-0.15 0.06,-0.4 -0.02,-0.52 -0.12,0.03 -0.16,0.09 -0.16,0.41z"/>
   </g>
   <path fill="#FBB03B" d="M34.31 25.76l-0.5 -1.42 0.26 0.09 -1.88 -0.43c-0.04,0.22 -0.22,0.72 -0.06,1.08 0.06,0.14 0.15,0.12 0.24,0.31 0.08,0.19 0.03,0.28 0.11,0.45l1.83 -0.08z"/>
   <path fill="#FBB03B" d="M21.28 15.77l0.18 0.06c0.01,0 0.02,0.01 0.03,0.01 -0.21,0.02 -0.16,-0.02 -0.16,0.13 0.17,0.01 0.23,0.01 0.37,0.08l0.05 -0.03c0.18,-0.1 0.21,0.01 0.31,-0.14 -0.13,-0.06 -0.24,-0.05 -0.47,-0.05l-0.05 -0.07c-0.06,-0.07 0.02,-0.02 -0.06,-0.07l-0.2 0.08z"/>
   <path fill="#FFFFFF" d="M28.93 25.49c-0.15,-0.14 -0.25,-0.06 -0.4,-0.19l0 0.27c0.19,0.05 0.31,0.02 0.4,-0.08z"/>
   <path fill="#FFFFFF" d="M30.19 14.54c0.07,0.14 -0.01,0.05 0.11,0.11 0.1,-0.06 0.1,-0.1 0.09,-0.24 -0.15,-0.01 -0.15,0.02 -0.2,0.13z"/>
  </g>
 </g>
</svg>
