<svg xmlns="http://www.w3.org/2000/svg" width="50" height="50" shape-rendering="geometricPrecision" text-rendering="geometricPrecision" image-rendering="optimizeQuality" viewBox="0 0 65.8 65.8"><path d="M32.9 0c3.4 0 6.7 0.5 9.9 1.5l-4.2 4.2c-0.3 0.3-0.5 0.6-0.8 0.9-1.6-0.3-3.2-0.4-4.9-0.4-14.8 0-26.8 12-26.8 26.8 0 14.8 12 26.8 26.8 26.8 14.8 0 26.8-12 26.8-26.8 0-1.7-0.2-3.4-0.5-5.1 0.5-0.3 0.9-0.7 1.4-1.1l3.8-3.6c1 3.1 1.5 6.4 1.5 9.8 0 18.2-14.7 32.9-32.9 32.9-18.2 0-32.9-14.7-32.9-32.9 0-18.2 14.7-32.9 32.9-32.9zm0 13c1.2 0 2.3 0.1 3.5 0.3 0.1 0.7 0.3 1.3 0.6 2l0.9 2.4-1.7 1.7c-1-0.2-2.1-0.4-3.2-0.4-7.7 0-14 6.3-14 14 0 7.7 6.3 14 14 14 7.7 0 14-6.3 14-14 0-1.1-0.1-2.1-0.3-3.1l1.8-1.8 2.8 1c0.5 0.2 1 0.3 1.5 0.4 0.2 1.1 0.3 2.3 0.3 3.4 0 11-8.9 20-20 20-11 0-20-8.9-20-20 0-11 8.9-20 20-20zm10 5.8l-1.9-5c-0.8-2.1-0.6-3.6 0.7-4.9l7.6-7.7c1.7-1.7 4.3-0.9 5 1.4l2.1 6.6 6.8 2.4c2.3 0.8 3.6 3.3 1.7 5.1l-7.3 7c-2 1.9-3.1 2.1-4.9 1.4l-5.4-2-12.4 12.2c-1.2 1.2-3.1 1.2-4.3 0-1.2-1.2-1.2-3.1 0-4.3l12.4-12.1z" fill="#00A9B0"/></svg>