<?xml version="1.0" encoding="UTF-8"?>
<!DOCTYPE svg PUBLIC "-//W3C//DTD SVG 1.1//EN" "http://www.w3.org/Graphics/SVG/1.1/DTD/svg11.dtd">
<!-- Creator: CorelDRAW 2019 (64 Bit) -->
<svg xmlns="http://www.w3.org/2000/svg" xml:space="preserve" width="50px" height="50px" version="1.1" shape-rendering="geometricPrecision" text-rendering="geometricPrecision" image-rendering="optimizeQuality" fill-rule="evenodd" clip-rule="evenodd"
viewBox="0 0 65.84 65.84"
 xmlns:xlink="http://www.w3.org/1999/xlink"
 xmlns:xodm="http://www.corel.com/coreldraw/odm/2003">
 <g id="Camada_x0020_1">
  <metadata id="CorelCorpID_0Corel-Layer"/>
  <path fill="#00A9B0" d="M32.92 0c3.43,0 6.74,0.53 9.85,1.5l-4.18 4.23c-0.28,0.28 -0.54,0.58 -0.77,0.88 -1.59,-0.3 -3.22,-0.45 -4.9,-0.45 -14.78,0 -26.76,11.98 -26.76,26.76 0,14.78 11.98,26.77 26.76,26.77 14.78,0 26.77,-11.99 26.77,-26.77 0,-1.73 -0.17,-3.42 -0.48,-5.06 0.45,-0.34 0.9,-0.72 1.35,-1.15l3.8 -3.59c0.96,3.09 1.48,6.39 1.48,9.8 0,18.18 -14.74,32.92 -32.92,32.92 -18.18,0 -32.92,-14.74 -32.92,-32.92 0,-18.18 14.74,-32.92 32.92,-32.92zm0 12.95c1.18,0 2.33,0.1 3.45,0.3 0.13,0.66 0.32,1.33 0.57,2.01l0.88 2.35 -1.73 1.7c-1.02,-0.24 -2.08,-0.36 -3.17,-0.36 -7.72,0 -13.97,6.25 -13.97,13.97 0,7.72 6.25,13.98 13.97,13.98 7.72,0 13.98,-6.26 13.98,-13.98 0,-1.06 -0.12,-2.1 -0.35,-3.1l1.82 -1.78 2.77 1.02c0.51,0.19 0.99,0.33 1.46,0.43 0.19,1.11 0.3,2.26 0.3,3.43 0,11.03 -8.95,19.98 -19.98,19.98 -11.03,0 -19.97,-8.95 -19.97,-19.98 0,-11.03 8.94,-19.97 19.97,-19.97zm10 5.8l-1.87 -5.02c-0.8,-2.14 -0.61,-3.64 0.65,-4.92l7.63 -7.71c1.68,-1.7 4.26,-0.92 4.99,1.43l2.05 6.63 6.79 2.37c2.29,0.8 3.57,3.32 1.74,5.05l-7.35 6.95c-2,1.88 -3.08,2.08 -4.9,1.42l-5.37 -1.98 -12.45 12.2c-1.2,1.18 -3.12,1.16 -4.29,-0.03 -1.18,-1.2 -1.16,-3.12 0.03,-4.29l12.35 -12.1z"/>
 </g>
</svg>
