<svg xmlns="http://www.w3.org/2000/svg" width="200" height="194" shape-rendering="geometricPrecision" text-rendering="geometricPrecision" image-rendering="optimizeQuality" viewBox="0 0 145.46 140.75"><path d="M5.49 102.71c-0.67 3.94-2.09 5.64-1.36 11.17 1.55 11.86 12.18 22.84 24.7 22.84 8.11 0 20.17-3.37 24.51-10.29 1.56-2.48 4.7-12.87 4.13-16.53-4.68-30.2-50.42-16.3-51.98-7.19zm87.93-37.31c-0.68 3.94-2.09 5.64-1.37 11.17 1.55 11.87 12.19 22.85 24.7 22.85 8.11 0 20.17-3.38 24.52-10.29 1.56-2.49 4.69-12.87 4.13-16.54-4.68-30.2-50.42-16.3-51.98-7.19zm-67.2-41.23c-0.68 3.94-2.09 5.64-1.37 11.16 1.56 11.87 12.19 22.85 24.7 22.85 8.11 0 20.18-3.38 24.52-10.29 1.56-2.49 4.7-12.87 4.13-16.54-4.68-30.19-50.42-16.3-51.98-7.18z" fill="#FEFEFE"/><path d="M31.12 101.59c-6.55 0-8.63 0.83-6.71 9.23 0.88 3.87-3.7 3.45-5.79 4.39-1.45 0.64-1.3-1.1-1.3 3.23 0 3.05-0.28 6.25-0.28 8.92 2.34 0 18.3 0.52 18.88-0.19 0.63-0.79-1.81-7.57-0.4-10.42 0.47-0.96-7.76 0.89-4.17-4.4 1.42-2.09 1.6-10.76-0.23-10.76zm89.24-39.4c-6.55 0-8.62 0.83-6.71 9.23 0.88 3.87-3.69 3.45-5.79 4.39-1.44 0.64-1.3-1.1-1.3 3.23 0 3.05-0.28 6.25-0.28 8.92 2.34 0 18.3 0.52 18.88-0.19 0.63-0.79-1.81-7.57-0.4-10.42 0.48-0.96-7.75 0.89-4.16-4.4 1.42-2.09 1.59-10.76-0.24-10.76zm-67.88-39.88c-6.55 0-8.62 0.84-6.71 9.23 0.88 3.88-3.69 3.45-5.79 4.39-1.45 0.65-1.3-1.09-1.3 3.24 0 3.05-0.28 6.25-0.28 8.92 2.34 0 18.3 0.52 18.88-0.2 0.63-0.78-1.81-7.56-0.4-10.42 0.48-0.95-7.75 0.9-4.17-4.4 1.42-2.09 1.6-10.76-0.23-10.76z" fill="#FBB03B"/><path d="M48.6 22.56c-0.31 0.06-0.54 0.11-0.85 0.21-0.62 0.22-1.04 0.48-1.48 0.98-0.39 0.47-0.58 0.89-0.74 1.47-0.15 0.61-0.2 1.15-0.21 1.78-0.01 1.25 0.14 2.45 0.22 3.7 0.02 0.52 0.03 1.01-0.03 1.54-0.06 0.4-0.14 0.74-0.4 1.06-0.15 0.18-0.36 0.3-0.56 0.4-0.33 0.16-0.65 0.27-0.99 0.39-0.85 0.27-1.72 0.48-2.59 0.68-0.81 0.2-1.63 0.38-2.43 0.6-0.28 0.08-0.55 0.16-0.81 0.29-0.1 0.04-0.19 0.09-0.27 0.16-0.05 0.04-0.07 0.07-0.11 0.12-0.03 0.07-0.05 0.12-0.05 0.19-0.02 2.08-0.02 4.15-0.09 6.24-0.08 1.92-0.18 3.86-0.64 5.74-0.03 0.11-0.02 0.21 0.01 0.32 0.04 0.11 0.08 0.18 0.16 0.26 0.13 0.14 0.27 0.21 0.45 0.28 0.44 0.18 0.9 0.25 1.36 0.32 1.38 0.2 2.79 0.27 4.18 0.32 1.87 0.07 5.78 0.03 7.45 0.38 1.13 0.22 3.58 0.11 4.75 0.03 0.99-0.07 1.95-0.18 2.92-0.43 0.39-0.12 0.73-0.23 1.08-0.46 0.16-0.12 0.28-0.22 0.4-0.39 0.12-0.2 0.18-0.36 0.18-0.6 0.06-2.12 0.17-4.26 0.23-6.39 0.03-1.25 0.06-2.51 0.04-3.76 0.01-0.42-0.03-0.83-0.05-1.25-0.02-0.15-0.04-0.29-0.08-0.43-0.02-0.1-0.05-0.17-0.1-0.25-0.05-0.08-0.1-0.13-0.17-0.18-0.12-0.09-0.23-0.13-0.38-0.13-1.66-0.01-2.96 0.13-4.66-0.13-0.36-0.06-0.68-0.14-1.01-0.28-0.16-0.08-0.34-0.17-0.44-0.33-0.03-0.05-0.04-0.08-0.04-0.13-0.01-0.1 0.01-0.17 0.04-0.26 0.14-0.4 0.42-0.74 0.7-1.04 0.92-1.07 1.4-2.14 1.78-3.48 0.37-1.49 0.46-2.73 0.2-4.25-0.34-1.54-0.87-2.63-2.07-3.67-0.68-0.53-1.26-0.83-2.08-1.07-0.2-0.06-0.4-0.11-0.61-0.15-4.69-0.61-0.69 0.3 0.43 0.7 0.7 0.28 1.2 0.58 1.76 1.09 0.99 0.97 1.4 1.92 1.63 3.27 0.19 1.36 0.07 2.47-0.29 3.8-0.35 1.14-0.79 2.09-1.59 2.98-0.42 0.46-0.75 0.87-0.97 1.45-0.08 0.25-0.11 0.44-0.1 0.7 0.02 0.25 0.07 0.43 0.19 0.65 0.25 0.4 0.55 0.61 0.97 0.82 0.43 0.19 0.83 0.29 1.3 0.38 1.73 0.27 3.07 0.17 4.79 0.16 0 0 0.04 0 0.05 0-0.13 0-0.23-0.04-0.33-0.11-0.06-0.05-0.09-0.09-0.13-0.14-0.01-0.01-0.04-0.07-0.04-0.07 0.02 0.06 0.03 0.16 0.04 0.23 0.04 0.38 0.04 0.77 0.05 1.14 0.02 1.24 0 2.47-0.03 3.71-0.06 2.13-0.17 4.3-0.19 6.42 0-0.01 0.01-0.03 0.02-0.05-0.02 0.03-0.07 0.07-0.1 0.09-0.22 0.15-0.49 0.23-0.74 0.31-0.88 0.24-1.78 0.34-2.69 0.42-1.19 0.08-3.24 0.19-4.41 0.04-1.88-0.35-5.64-0.26-7.67-0.31-1.36-0.04-2.73-0.08-4.09-0.25-0.37-0.05-0.8-0.11-1.15-0.24-0.07-0.03-0.15-0.08-0.15-0.07 0.03 0.02 0.04 0.05 0.05 0.08 0.02 0.04 0.01 0.12 0.01 0.16 0.78-3.77 0.58-8.33 0.54-12.19 0 0.05-0.02 0.1-0.04 0.15-0.01 0.01-0.02 0.03-0.03 0.04 0.01-0.02 0.09-0.06 0.11-0.08 0.23-0.1 0.48-0.18 0.71-0.26 0.79-0.23 1.6-0.43 2.39-0.63 0.89-0.22 1.76-0.45 2.63-0.74 0.36-0.13 0.7-0.26 1.05-0.44 0.28-0.15 0.52-0.3 0.73-0.55 0.22-0.3 0.33-0.57 0.41-0.93 0.03-0.13 0.05-0.26 0.07-0.39 0.06-0.55 0.03-1.08 0-1.63-0.1-1.24-0.27-2.42-0.29-3.67 0-0.6 0.03-1.11 0.16-1.69 0.13-0.54 0.29-0.93 0.63-1.37 0.39-0.46 0.77-0.7 1.33-0.93 0.75-0.24 4.49-0.74 0.77-0.45zm64.25 75.27c0.01 0.01 0 0.12-0.01 0.32-1.41 0.01-2.84-0.05-4.3-0.17-2.44-0.24-4.5-0.62-6.82-1.41-1.89-0.7-3.42-1.46-4.83-2.93-1.67-1.89-2.84-3.64-3.66-5.6 0.33-0.17 1.07-0.55 1.79-0.93 0.13 0.2 0.26 0.4 0.39 0.59 0.17 0.25 0.33 0.49 0.51 0.73 3.73 4.64 2.4 2.62 0.38-0.26-0.28-0.44-0.54-0.88-0.79-1.32 1-0.56 1.75-1.04 0.93-0.83-0.29 0.18-0.65 0.37-1.07 0.58-0.39-0.72-0.75-1.45-1.1-2.23-0.91-2.01-1.86-4.39-2.34-6.58l0-0.11c0.09-0.83 0.24-1.67 0.42-2.57 0.29-1.38 0.67-2.69 1.11-4.04 1.63-4.59 3.45-7.89 7.01-11.23 0.24 0.14 0.49 0.29 0.73 0.43 0.45 0.27 0.94 0.57 1.41 0.79 1.87 0.78-0.95-1.44-0.97-1.46-0.14-0.11-0.28-0.23-0.43-0.34 3.95-2.81 13.19-6.6 5.82-3.86-2.47 1.07-4.06 2.03-6.11 3.64-0.1-0.06-0.19-0.13-0.28-0.2-0.2-0.13-0.46-0.33-0.68-0.4-0.11-0.03-0.21-0.06-0.32-0.1 1.74-1.47 3.7-2.69 6.03-3.75 3.65-1.53 6.58-2.54 10.55-2.92 0.29-0.02 0.58-0.04 0.88-0.05 1.55-0.05 2.97 0.04 4.33 0.24 0.03 0.28 0.21 1.84 0.55 1.32-0.04-0.08-0.05-0.58-0.05-1.24 2.6 0.46 5.01 1.36 7.76 2.57 5.27 2.59 8.63 5.55 11.36 10.81 2.35 5.19 2.56 9.54 1.37 15.08-0.79 2.97-2.63 5.43-4.7 7.64-4.56 4.52-9.29 6.77-15.35 8.77-3.08 0.89-6.1 1.28-9.19 1.33-0.06-0.3-0.16-0.5-0.33-0.31zm-12.68-38.16c-3.62 3.29-5.42 6.62-7.14 11.25-0.61 1.79-1.07 3.43-1.38 5.07l0 0c-0.19-1.9-0.06-3.57 0.38-5.61 0.62-2.51 1.46-4.38 2.83-6.57 1.21-1.79 2.47-3.32 3.87-4.65 0.36 0.11 0.71 0.2 1.05 0.27-0.28-0.08 0.24 0.15 0.36 0.22l0.03 0.02zm-27.52-18.1c0.34 0.1 1.19 0.66 2.21 1.39-0.95 1.92-2.3 3.62-3.78 5.19-4.56 4.52-9.28 6.77-15.34 8.77-4.61 1.34-9.07 1.55-13.84 1.17-0.87-0.09-1.7-0.19-2.5-0.33 0.18-0.26 0.37-0.51 0.6-0.75 0.22-0.2 1.46-0.95 0.22-0.48-0.15 0.1-0.25 0.16-0.39 0.28-0.31 0.28-0.56 0.57-0.8 0.89-1.31-0.23-2.58-0.55-3.94-1.02-1.9-0.7-3.42-1.46-4.84-2.93-2.94-3.35-4.36-6.25-4.98-10.67-0.11-0.97-0.15-1.87-0.15-2.75l0.03 0.01c0.54 1.52 1.2 3.04 1.88 4.43 0.54 1.07 1.08 2.05 1.74 3.04 0.17 0.25 0.34 0.49 0.52 0.73 3.72 4.64 2.4 2.62 0.37-0.26-0.79-1.24-1.41-2.46-2.03-3.8-0.67-1.49-1.37-3.19-1.88-4.85l0.09 0c0.11-0.01 4.67-0.08 3.03-0.41-0.88 0.04-2.06 0-3.26-0.07-0.12-0.42-0.23-0.84-0.32-1.25l0-0.12c0.1-0.82 0.24-1.66 0.42-2.56 0.29-1.38 0.67-2.69 1.12-4.04 1.64-4.65 3.49-7.97 7.13-11.35 0.58-0.47 1.35-0.98 2.21-1.49 0.18 0.18 0.38 0.35 0.59 0.51 0.26 0.2 0.49 0.36 0.79 0.49 0.25 0.1 1.19 0.32 0.42-0.1-0.09-0.03-0.2-0.08-0.29-0.13-0.26-0.15-0.46-0.33-0.68-0.53-0.16-0.15-0.31-0.31-0.45-0.47 4.3-2.51 10.15-4.95 3.84-2.6-1.64 0.72-2.9 1.38-4.17 2.22-0.25-0.31-0.49-0.64-0.73-0.98l-0.07-0.1c1.11-0.71 2.3-1.36 3.61-1.95 3.65-1.53 6.58-2.54 10.56-2.92 0.29-0.02 0.58-0.04 0.87-0.05 3.76-0.12 6.73 0.56 9.96 1.79-0.02 0.23-0.03 0.47-0.04 0.7 0 0.12-0.01 1.89 0.35 1.29-0.04-0.25 0.1-1.03 0.25-1.76 0.68 0.26 1.36 0.56 2.07 0.87 5.28 2.59 8.64 5.55 11.37 10.81 2.34 5.19 2.56 9.53 1.36 15.08-0.18 0.7-0.43 1.38-0.72 2.03-0.9-0.49-3.42-1.84-2.41-0.97zm3.06 2.01c1.93 1.43 4.09 3.16 4.55 3.51 1.4 1.1 2.81 2.18 4.22 3.26 3.21 2.42 8.63 6.61 13.05 8.39-1.29 1.3-2.47 2.78-3.59 4.48-1.42 2.33-2.27 4.29-2.88 6.95-0.55 2.71-0.59 4.81-0.04 7.52 0.07 0.3 0.15 0.6 0.24 0.9l0.02 0.3c-0.08 1.31-0.07 2.67 0.06 4.15 0.24 1.83 0.61 3.4 1.17 4.86-2.69 1.16-5.83 2.37-7.31 2.99-8.07 3.33-23.65 8.81-32.05 12.77-2.8-5.44-6.33-8.52-11.8-11.25-3.5-1.58-6.42-2.58-9.86-2.91 0.36-2.2 0.62-4.93 0.66-5.16 0.62-3.94 1.36-7.75 2.23-11.65 0.87-3.76 1.81-7.38 3.13-11 0.15-0.41 0.32-0.81 0.49-1.22 0.3-0.7 0.61-1.36 0.97-2.01 0.86 0.15 1.73 0.28 2.66 0.38 0.07 0.01 0.13 0.02 0.2 0.02 4.89 0.43 9.42 0.23 14.17-1.09 6.24-2.01 11.07-4.31 15.81-8.91 1.53-1.63 2.91-3.34 3.9-5.28zm-23.59 60.57c-0.41 0.21-0.8 0.4-1.16 0.6-0.91 0.7-0.02 0.6 1.52 0.18 2.08 4.92 2.24 9.13 1.09 14.45-0.78 2.98-2.63 5.43-4.7 7.64-1.51 1.5-3.03 2.75-4.62 3.82-0.12-0.09-0.24-0.18-0.37-0.26-0.41-0.29-0.83-0.57-1.27-0.82-0.23-0.14-1.23-0.7-0.82-0.18 0.12 0.05 0.52 0.36 0.63 0.44 0.46 0.37 0.91 0.75 1.37 1.13-3.08 2-6.4 3.37-10.27 4.64-4.6 1.34-9.07 1.55-13.83 1.18-2.43-0.25-4.5-0.62-6.82-1.42-1.89-0.7-3.41-1.45-4.83-2.92-2.94-3.35-4.36-6.25-4.99-10.67-0.1-0.98-0.14-1.88-0.14-2.76l0.02 0.01c0.54 1.53 1.21 3.04 1.89 4.43 0.54 1.07 1.08 2.05 1.74 3.05 0.17 0.25 0.34 0.49 0.51 0.72 3.73 4.65 2.41 2.62 0.38-0.26-0.79-1.24-1.42-2.46-2.03-3.79-0.91-2.02-1.85-4.4-2.34-6.58l0-0.12c0.1-0.82 0.24-1.66 0.42-2.56 0.29-1.39 0.67-2.7 1.12-4.04 0.94-2.68 1.96-4.91 3.34-6.97 0.54 0.3 2.25 1.12 1.56 0.45-0.33-0.09-0.84-0.47-1.29-0.85 0.97-1.37 2.11-2.68 3.52-3.99 3.49-2.83 14.21-7.21 6.43-4.31-2.67 1.16-4.32 2.18-6.64 4.07-1.46 1.29-2.62 2.59-3.61 3.97-0.23-0.21-0.43-0.4-0.55-0.52-0.14-0.15-0.28-0.3-0.42-0.46 2.65-3.54 5.65-5.96 9.86-7.88 3.65-1.53 6.58-2.53 10.56-2.92 0.29-0.02 0.58-0.03 0.87-0.05 0.7-0.02 1.37-0.01 2.03 0.02 0 0.58 0.05 1.08 0.13 1.47 0.29 0.69 0.59-0.1 0.86-1.4 3.33 0.3 6.2 1.31 9.57 2.81 5.22 2.56 8.57 5.49 11.28 10.65zm1.45 0.46c2.88-0.88 6.81-2.34 6.89-2.37 10.78-4.27 21.72-9.03 32.21-13.94 0.84 2.02 2.04 3.83 3.72 5.79 1.49 1.58 3.08 2.4 5.09 3.16 2.31 0.81 4.36 1.21 6.79 1.49 0.06 0 0.13 0.01 0.19 0.02 1.47 0.13 2.92 0.2 4.34 0.2-0.08 1.39-0.21 3.58-0.21 3.63-0.09 1.98-0.15 3.95-0.2 5.94-0.05 2.24-0.1 4.53 0 6.78 0.03 0.73 0.07 1.58 0.22 2.3 0.02 0.18 0.07 0.44 0.15 0.61 0.01 0.03 0.03 0.06 0.04 0.09 0.04 0.08 0.07 0.16 0.13 0.22 0.15 0.24 0.22 0.16 0.26-0.06 0.03-0.07 0.04-0.14 0.05-0.22 0.07-0.21 0.09-0.47 0.11-0.69 0.11-0.73 0.13-1.55 0.16-2.28 0.03-0.71 0.04-1.4 0.04-2.11-0.01-1.55-0.05-3.1-0.08-4.65-0.05-3.09-0.08-6.2-0.2-9.29 0-0.04 0-0.14-0.01-0.27 3.15-0.03 6.21-0.42 9.37-1.3 6.25-2.01 11.08-4.31 15.81-8.91 2.24-2.37 4.14-4.92 5.02-8.1 1.29-5.81 1.05-10.35-1.38-15.82-2.81-5.54-6.36-8.65-11.88-11.4-2.95-1.33-5.48-2.25-8.26-2.71 0.01-1.09 0.04-2.16 0.04-2.27 0.05-1.95 0.1-3.9 0.18-5.86 0.1-2.22 0.23-4.41 0.41-6.63 0.07-0.72 0.16-1.43 0.24-2.16 0.02-0.18 0.08-0.38 0.09-0.57 0-0.01 0-0.02 0-0.03 0.01-0.05 0.03-0.1 0.02-0.16 0-0.16-0.03-0.29-0.23-0.23-0.09 0.03-0.15 0.09-0.22 0.15-0.19 0.18-0.3 0.41-0.4 0.64-0.34 0.69-0.49 1.5-0.61 2.25-0.13 0.68-0.2 1.34-0.25 2.04-0.11 1.55-0.13 3.13-0.13 4.69 0 2.66 0.05 5.38 0.25 8.05-1.34-0.18-2.74-0.26-4.28-0.23-4.51 0.27-7.74 1.35-11.85 3.09-2.66 1.23-4.85 2.64-6.78 4.39-0.83-0.36-1.64-0.78-2.45-1.21-3.77-2.02-7.45-4.63-10.93-7.09-3.01-2.15-6.02-4.41-9.09-6.48 0.35-0.74 0.64-1.52 0.87-2.34 1.29-5.81 1.05-10.35-1.37-15.82-2.82-5.54-6.37-8.65-11.89-11.4-0.8-0.36-1.56-0.69-2.31-0.99l0.06-0.25c0.24-0.95 0.49-1.87 0.78-2.8 0.34-1.09 0.71-2.12 1.15-3.18 0.21-0.49 0.86-1.68 0.97-2.08 0.21-1.46-1.72 0.96-2.06 1.61-0.11 0.21-0.2 0.41-0.29 0.63-0.35 0.87-0.6 1.85-0.81 2.76-0.23 1.03-0.4 2.02-0.52 3.03-3.25-1.23-6.26-1.84-10.12-1.76-4.51 0.27-7.73 1.35-11.85 3.09-1.37 0.63-2.62 1.31-3.77 2.07-0.24-0.4-0.48-0.81-0.71-1.22-0.63-1.13-1.23-2.26-1.82-3.41-1.08-2.15-4.1-9.4-5.04-10.79-1.55-1.55 0.8 4.66 0.92 4.94 0.97 2.17 2.07 4.27 3.23 6.34 0.91 1.57 1.82 3.06 2.88 4.5-2.74 1.9-4.92 4.23-6.94 7.3-1.42 2.33-2.28 4.29-2.89 6.95-0.54 2.71-0.58 4.81-0.04 7.52 0.07 0.3 0.15 0.6 0.24 0.9l0.03 0.29-0.01 0.1c-1-0.06-1.95-0.14-2.71-0.18-4.08-0.26-12.58-0.91-16.41-0.32-2.66 0.74 5.94 1.04 6.06 1.04 4.33 0.1 8.7 0.08 13.03 0.02-0.04 1.11-0.01 2.26 0.09 3.5 0.6 4.56 2.06 7.56 5.06 11.05 1.49 1.58 3.08 2.39 5.08 3.15 1.29 0.46 2.49 0.78 3.73 1.03-0.62 0.98-1.11 2.02-1.57 3.1-0.62 1.43-1.15 2.85-1.65 4.32-0.75 2.21-1.38 4.39-1.97 6.65-0.74 3.02-2.8 11.89-3.07 16.97-0.68-0.04-1.38-0.05-2.11-0.03-4.51 0.27-7.73 1.35-11.85 3.09-4.32 1.99-7.42 4.48-10.12 8.11-0.45-0.55-0.89-1.11-1.32-1.68-0.76-1-3.69-5.26-4.44-5.84-1.47-0.7 0.96 3.13 1.09 3.33 0.8 1.11 1.66 2.15 2.56 3.18 0.54 0.59 1.06 1.15 1.62 1.68-0.22 0.31-0.43 0.62-0.65 0.95-1.42 2.32-2.27 4.29-2.88 6.94-0.55 2.71-0.58 4.82-0.04 7.53 0.07 0.3 0.15 0.6 0.24 0.9l0.03 0.29c-0.09 1.31-0.08 2.67 0.05 4.15 0.6 4.56 2.06 7.57 5.06 11.06 1.48 1.57 3.08 2.39 5.08 3.15 2.31 0.82 4.36 1.21 6.79 1.49 0.06 0.01 0.13 0.01 0.19 0.02 4.9 0.43 9.43 0.23 14.18-1.1 4.06-1.3 7.52-2.73 10.75-4.84 0.38 0.33 0.76 0.67 1.14 1.01 0.95 0.84 1.91 1.68 2.88 2.51 1.52 1.29 3.04 2.63 4.6 3.86 0.5 0.4 1.07 0.88 1.61 1.22 0.13 0.09 0.28 0.2 0.43 0.26 0.02 0.01 0.05 0.03 0.08 0.03 0.05 0.03 0.11 0.06 0.17 0.06 0.02 0 0.03 0 0.05-0.01 0.03-0.03 0.13-0.07 0.14-0.08 0.01-0.01 0-0.07 0-0.07 0.01-0.07-0.02-0.14-0.05-0.2-0.06-0.2-0.2-0.38-0.33-0.54-0.35-0.55-0.91-1.08-1.38-1.53-0.42-0.42-0.85-0.81-1.31-1.19-1.08-0.91-2.22-1.78-3.34-2.64-1.37-1.04-2.74-2.07-4.14-3.06 1.54-1.05 3.03-2.26 4.5-3.7 2.24-2.36 4.14-4.91 5.02-8.09 1.23-5.53 1.07-9.91-1.04-15.03zm39.51-16.95c-0.55-1.4-0.93-2.92-1.18-4.69-0.1-0.97-0.15-1.87-0.14-2.75l0.02 0.01c0.54 1.52 1.21 3.04 1.89 4.43 0.38 0.76 0.77 1.48 1.2 2.19-0.54 0.26-1.15 0.53-1.79 0.81zm22.15-25.21c-0.31 0.06-0.54 0.11-0.84 0.21-0.63 0.22-1.04 0.48-1.49 0.98-0.39 0.47-0.57 0.89-0.73 1.47-0.16 0.62-0.2 1.15-0.21 1.78-0.01 1.25 0.14 2.45 0.21 3.7 0.03 0.53 0.04 1.01-0.03 1.54-0.06 0.4-0.14 0.74-0.39 1.07-0.15 0.17-0.36 0.29-0.57 0.39-0.32 0.16-0.64 0.27-0.98 0.39-0.86 0.27-1.72 0.48-2.59 0.69-0.81 0.19-1.63 0.37-2.44 0.59-0.27 0.08-0.55 0.17-0.81 0.29-0.1 0.04-0.18 0.09-0.27 0.16-0.04 0.04-0.07 0.08-0.1 0.12-0.03 0.07-0.05 0.12-0.05 0.19-0.03 2.08-0.02 4.15-0.09 6.24-0.08 1.92-0.19 3.86-0.64 5.74-0.03 0.11-0.03 0.21 0.01 0.32 0.03 0.11 0.08 0.18 0.15 0.26 0.14 0.14 0.28 0.21 0.46 0.28 0.43 0.18 0.89 0.26 1.35 0.33 1.39 0.19 2.79 0.26 4.19 0.32 1.86 0.06 5.77 0.03 7.44 0.37 1.14 0.22 3.58 0.11 4.75 0.03 1-0.07 1.96-0.18 2.92-0.43 0.4-0.11 0.74-0.23 1.08-0.46 0.17-0.12 0.29-0.22 0.4-0.39 0.13-0.2 0.18-0.36 0.19-0.59 0.05-2.13 0.16-4.27 0.22-6.4 0.04-1.25 0.07-2.5 0.05-3.76 0-0.42-0.03-0.83-0.06-1.25-0.01-0.15-0.03-0.29-0.07-0.43-0.03-0.1-0.06-0.17-0.11-0.25-0.05-0.08-0.09-0.13-0.16-0.18-0.12-0.09-0.23-0.13-0.38-0.13-1.66 0-2.96 0.13-4.66-0.13-0.36-0.06-0.68-0.14-1.02-0.28-0.16-0.08-0.34-0.17-0.44-0.33-0.02-0.05-0.03-0.08-0.04-0.13 0-0.09 0.02-0.17 0.04-0.26 0.15-0.39 0.43-0.73 0.71-1.04 0.92-1.07 1.4-2.13 1.78-3.48 0.37-1.49 0.46-2.73 0.19-4.25-0.33-1.54-0.87-2.63-2.07-3.67-0.67-0.53-1.25-0.83-2.07-1.07-0.21-0.06-0.4-0.11-0.62-0.15-4.68-0.61-0.68 0.3 0.44 0.7 0.7 0.29 1.2 0.58 1.76 1.09 0.98 0.97 1.39 1.92 1.63 3.27 0.18 1.36 0.07 2.47-0.29 3.8-0.35 1.14-0.79 2.09-1.6 2.98-0.41 0.46-0.74 0.87-0.96 1.45-0.08 0.25-0.12 0.44-0.1 0.7 0.01 0.25 0.07 0.43 0.19 0.65 0.24 0.4 0.54 0.61 0.96 0.82 0.44 0.19 0.83 0.29 1.3 0.38 1.74 0.27 3.08 0.17 4.79 0.16 0 0 0.04 0 0.06 0-0.13 0-0.23-0.04-0.34-0.11-0.05-0.05-0.09-0.08-0.13-0.14 0-0.01-0.03-0.07-0.03-0.07 0.02 0.06 0.03 0.16 0.03 0.23 0.04 0.38 0.05 0.77 0.06 1.15 0.02 1.23-0.01 2.47-0.04 3.7-0.05 2.13-0.17 4.31-0.18 6.43 0-0.02 0-0.04 0.01-0.06-0.01 0.03-0.07 0.07-0.09 0.09-0.22 0.15-0.49 0.23-0.74 0.31-0.88 0.24-1.79 0.34-2.7 0.42-1.19 0.08-3.23 0.19-4.41 0.04-1.88-0.34-5.63-0.25-7.66-0.31-1.37-0.03-2.73-0.08-4.09-0.25-0.38-0.05-0.8-0.11-1.15-0.24-0.08-0.03-0.16-0.08-0.15-0.07 0.02 0.02 0.03 0.05 0.05 0.08 0.02 0.04 0.01 0.12 0 0.16 0.78-3.77 0.58-8.33 0.54-12.19 0 0.05-0.01 0.1-0.04 0.15 0 0.01-0.02 0.03-0.03 0.04 0.02-0.02 0.1-0.06 0.12-0.07 0.22-0.11 0.47-0.19 0.71-0.26 0.78-0.24 1.59-0.44 2.39-0.64 0.89-0.22 1.76-0.45 2.62-0.74 0.37-0.13 0.71-0.26 1.05-0.44 0.29-0.15 0.53-0.29 0.73-0.54 0.23-0.31 0.33-0.58 0.42-0.94 0.03-0.13 0.04-0.25 0.06-0.39 0.06-0.55 0.04-1.08 0-1.63-0.09-1.24-0.26-2.42-0.29-3.67 0-0.6 0.03-1.11 0.16-1.69 0.14-0.54 0.3-0.93 0.64-1.36 0.39-0.47 0.77-0.71 1.33-0.94 0.75-0.24 4.48-0.74 0.76-0.45zm-88.85 38.98c-0.3 0.06-0.54 0.11-0.84 0.21-0.62 0.23-1.04 0.49-1.49 0.98-0.38 0.47-0.57 0.89-0.73 1.48-0.15 0.61-0.2 1.14-0.21 1.77-0.01 1.25 0.14 2.46 0.21 3.7 0.03 0.53 0.04 1.02-0.03 1.55-0.05 0.4-0.14 0.73-0.39 1.06-0.15 0.18-0.36 0.29-0.56 0.4-0.33 0.15-0.65 0.27-0.99 0.38-0.85 0.27-1.72 0.48-2.59 0.69-0.81 0.19-1.63 0.37-2.43 0.6-0.28 0.08-0.55 0.16-0.82 0.28-0.1 0.05-0.18 0.1-0.26 0.17-0.05 0.04-0.08 0.07-0.11 0.12-0.03 0.06-0.05 0.11-0.05 0.18-0.02 2.09-0.02 4.16-0.09 6.25-0.08 1.92-0.19 3.86-0.64 5.73-0.03 0.12-0.02 0.21 0.01 0.33 0.03 0.1 0.08 0.17 0.15 0.25 0.14 0.14 0.28 0.21 0.46 0.29 0.44 0.17 0.89 0.25 1.36 0.32 1.38 0.2 2.78 0.26 4.18 0.32 1.87 0.07 5.77 0.03 7.45 0.38 1.13 0.21 3.57 0.1 4.74 0.03 1-0.08 1.96-0.18 2.93-0.44 0.39-0.11 0.73-0.23 1.07-0.46 0.17-0.11 0.29-0.22 0.41-0.39 0.12-0.19 0.18-0.36 0.18-0.59 0.06-2.13 0.16-4.27 0.23-6.4 0.03-1.25 0.06-2.5 0.04-3.75 0.01-0.42-0.03-0.83-0.06-1.25-0.01-0.15-0.03-0.29-0.07-0.44-0.03-0.09-0.05-0.16-0.1-0.25-0.05-0.07-0.1-0.12-0.17-0.18-0.12-0.08-0.23-0.12-0.38-0.13-1.66 0-2.96 0.13-4.66-0.13-0.36-0.06-0.68-0.13-1.01-0.28-0.17-0.07-0.35-0.17-0.44-0.32-0.03-0.05-0.04-0.09-0.04-0.14-0.01-0.09 0.01-0.17 0.04-0.25 0.14-0.4 0.42-0.74 0.7-1.05 0.92-1.06 1.4-2.13 1.78-3.48 0.37-1.49 0.46-2.72 0.19-4.24-0.33-1.54-0.87-2.63-2.07-3.67-0.67-0.54-1.25-0.83-2.07-1.08-0.2-0.06-0.4-0.1-0.61-0.14-4.69-0.62-0.69 0.3 0.43 0.7 0.7 0.28 1.2 0.58 1.76 1.09 0.99 0.96 1.4 1.92 1.63 3.26 0.19 1.37 0.07 2.48-0.29 3.8-0.35 1.15-0.79 2.09-1.59 2.99-0.42 0.45-0.75 0.87-0.97 1.45-0.08 0.24-0.11 0.44-0.1 0.7 0.02 0.25 0.07 0.43 0.19 0.64 0.25 0.41 0.54 0.62 0.97 0.82 0.43 0.2 0.83 0.3 1.29 0.38 1.74 0.28 3.08 0.18 4.79 0.17 0 0 0.05 0 0.06 0-0.13-0.01-0.23-0.04-0.34-0.12-0.05-0.04-0.09-0.08-0.12-0.14-0.01 0-0.04-0.07-0.04-0.07 0.02 0.07 0.03 0.17 0.04 0.23 0.03 0.38 0.04 0.77 0.05 1.15 0.02 1.23-0.01 2.47-0.03 3.7-0.06 2.13-0.17 4.31-0.19 6.43 0-0.02 0.01-0.04 0.01-0.05-0.01 0.03-0.07 0.07-0.09 0.09-0.22 0.14-0.49 0.23-0.74 0.3-0.88 0.24-1.78 0.34-2.69 0.42-1.2 0.09-3.24 0.19-4.41 0.05-1.88-0.35-5.64-0.26-7.67-0.31-1.36-0.04-2.73-0.09-4.09-0.25-0.37-0.05-0.8-0.12-1.15-0.25l-0.15-0.07c0.02 0.03 0.04 0.05 0.05 0.09 0.02 0.03 0.01 0.11 0 0.15 0.78-3.77 0.59-8.32 0.54-12.19 0 0.06-0.01 0.1-0.04 0.15 0 0.01-0.01 0.03-0.02 0.04 0.01-0.02 0.09-0.06 0.11-0.07 0.22-0.11 0.47-0.19 0.71-0.26 0.79-0.24 1.59-0.43 2.39-0.63 0.89-0.23 1.76-0.45 2.63-0.75 0.36-0.13 0.7-0.26 1.05-0.43 0.28-0.15 0.52-0.3 0.73-0.55 0.22-0.3 0.32-0.57 0.41-0.94 0.03-0.12 0.05-0.25 0.06-0.38 0.06-0.56 0.04-1.08 0.01-1.64-0.1-1.23-0.27-2.42-0.3-3.67 0-0.59 0.03-1.1 0.16-1.69 0.14-0.53 0.3-0.92 0.64-1.36 0.39-0.47 0.77-0.71 1.33-0.93 0.75-0.25 4.48-0.74 0.76-0.46zm-18.75 1.44c-1.41 2.07-2.44 4.33-3.45 7.04-0.6 1.78-1.07 3.42-1.37 5.06l-0.01 0c-0.19-1.89-0.06-3.57 0.39-5.6 0.62-2.52 1.45-4.38 2.83-6.58 0.18-0.27 0.36-0.53 0.54-0.78 0.14 0.11 0.27 0.23 0.42 0.35 0.21 0.18 0.43 0.34 0.65 0.51zm27.32-85.9l0.1 0.12c0.18 0.22 0.36 0.44 0.55 0.66 0.08 0.08 0.15 0.17 0.23 0.25-0.66 0.46-1.34 0.98-2.08 1.58-3.77 3.36-5.6 6.73-7.36 11.45-0.6 1.79-1.07 3.43-1.37 5.07l0 0c-0.2-1.9-0.06-3.57 0.38-5.61 0.62-2.52 1.45-4.38 2.83-6.57 1.96-2.93 4.08-5.15 6.72-6.95z" fill="#00A9B0"/></svg>