<?xml version="1.0" encoding="UTF-8"?>
<!DOCTYPE svg PUBLIC "-//W3C//DTD SVG 1.1//EN" "http://www.w3.org/Graphics/SVG/1.1/DTD/svg11.dtd">
<!-- Creator: CorelDRAW 2019 (64 Bit) -->
<svg xmlns="http://www.w3.org/2000/svg" xml:space="preserve" width="200px" height="227px" version="1.1" shape-rendering="geometricPrecision" text-rendering="geometricPrecision" image-rendering="optimizeQuality" fill-rule="evenodd" clip-rule="evenodd"
viewBox="0 0 79.46 90.02"
 xmlns:xlink="http://www.w3.org/1999/xlink"
 xmlns:xodm="http://www.corel.com/coreldraw/odm/2003">
 <g id="Layer_x0020_1">
  <metadata id="CorelCorpID_0Corel-Layer"/>
  <g id="_2829492325984">
   <path fill="#FBFAFA" d="M65.9 77.79c0.27,-0.09 0.58,-0.3 0.6,-0.56 -0.13,0.01 -0.06,-0.03 -0.32,0.21 -0.11,0.11 -0.21,0.15 -0.28,0.35z"/>
   <path fill="#FBFAFA" d="M68.43 76.3c0.17,-0.05 0.38,-0.34 0.35,-0.56 -0.1,0.03 -0.14,0.14 -0.22,0.22 -0.12,0.12 -0.22,0.14 -0.13,0.34z"/>
   <path fill="#FBFAFA" d="M65.04 79.77c0.18,-0.04 0.26,-0.27 0.3,-0.46 -0.31,0.02 -0.33,0.37 -0.3,0.46z"/>
   <path fill="#FBFAFA" d="M9.31 32.98c-0.03,-0.15 -0.04,-0.15 -0.17,-0.2 -0.16,0.17 -0.03,0.28 0.17,0.2z"/>
  </g>
  <g id="_2829492329248">
   <path fill="#FDFDFD" d="M33.99 87.42c0.05,0.17 0.02,0.11 0.17,0.17 0.17,-0.09 -0.01,-0.1 0.21,-0.15 0.17,0.22 -0.09,0.1 0.13,0.27 0.27,-0.12 -0.12,-0.22 0.25,-0.24 -0.06,0.2 -0.09,0.07 -0.11,0.24 0.29,0.08 1.15,0.03 1.48,0l0.68 -0.15c0.25,-0.08 0.25,0.05 0.88,-0.06 -0.05,-0.08 0.04,-0.07 -0.13,-0.07l-1.13 0.04c-0.3,0 -0.29,-0.08 -0.88,-0.08 -0.33,0 0.15,0.08 -0.58,0.08 -0.2,0 -0.08,-0.08 -0.84,-0.08 -0.05,0 -0.11,0.02 -0.13,0.03z"/>
   <path fill="#FDFDFD" d="M42.35 87.18c0.09,0.07 0.04,0.01 0.13,0.03 0.3,0.03 0.52,-0.13 1,-0.2 0.1,-0.01 0.25,-0.03 0.33,-0.05l0.89 -0.28c-0.27,-0.02 -0.38,0.03 -0.66,0.03 -0.39,0 -0.33,-0.01 -0.67,0.09 -0.18,0.05 -0.11,-0.01 -0.28,0.02 -0.31,0.04 -0.64,0.08 -0.74,0.36z"/>
   <path fill="#FDFDFD" d="M24.81 39.53c0.04,0.19 -0.07,0.12 0.47,0.21 0.38,0.07 0.99,0.29 1.15,-0.24 -0.28,-0.08 -0.18,-0.03 -0.46,-0.05 -0.64,-0.04 -0.36,0.04 -0.56,0.06 -0.22,0.02 -0.52,0.07 -0.6,0.02z"/>
   <path fill="#FDFDFD" d="M73.16 69.68c0.21,-0.01 -0.07,0.15 0.3,-0.32 0.13,-0.17 0.56,-1.2 0.43,-1.3 -0.09,-0.07 -0.24,0.14 -0.29,0.23 -0.04,0.09 -0.48,1.29 -0.44,1.39z"/>
   <path fill="#FDFDFD" d="M3.33 69.51c0.15,-0.01 0.29,-0.08 0.39,-0.14 0.03,-0.56 -0.52,-0.51 -0.65,-0.52 -0.1,-0.16 -0.01,-0.19 -0.2,-0.21 -0.02,0.1 0.01,0.46 0.08,0.54 0.16,0.16 0.17,-0.02 0.3,0.21 0.07,0.14 -0.09,0.05 0.08,0.12z"/>
   <path fill="#FDFDFD" d="M35.56 14.65c0.2,0.14 0.96,-0.2 0.96,-0.2 0.08,-0.05 0.02,-0.04 0.14,-0.1 0.08,-0.04 0.1,-0.02 0.17,-0.08 0.1,-0.08 0.19,-0.23 0.21,-0.34 -0.25,-0.01 -0.16,0.06 -0.37,0.16 -0.21,0.1 -0.27,0.09 -0.56,0.25 -0.33,0.18 -0.02,0.1 -0.39,0.2 -0.17,0.05 -0.11,-0.01 -0.16,0.11z"/>
   <path fill="#FDFDFD" d="M50.19 23.37c0.1,-0.13 0.14,-0.56 0.08,-0.68 -0.08,-0.18 -0.08,-0.07 -0.19,-0.23 -0.1,-0.13 -0.06,-0.17 -0.24,-0.2 0,0.03 0.01,0.58 0.04,0.66 0.03,0.14 0.06,0.1 0.13,0.24 0.08,0.18 -0.01,0.16 0.18,0.21z"/>
   <path fill="#FDFDFD" d="M37.97 17.5c0.32,-0.03 0.28,-0.14 0.58,-0.23 0.66,-0.2 0.34,-0.74 -0.23,-0.26 -0.1,0.09 -0.1,0.11 -0.22,0.2 -0.11,0.09 -0.13,0.1 -0.13,0.29z"/>
   <path fill="#FDFDFD" d="M70 75.77c0.09,0.48 -0.01,0.27 -0.01,0.5 -0.01,0.07 0,0.06 0.01,0.09 0.16,-0.01 0.09,-0.08 0.22,-0.32l0.54 -1.21c-0.14,0.02 -0.15,0.08 -0.21,0.2 -0.09,0.19 -0.04,0.12 -0.17,0.25l-0.38 0.49z"/>
   <path fill="#FDFDFD" d="M31.7 26.42c0.16,-0.21 0.2,-0.7 0.14,-1.04 -0.21,-0.06 -0.07,0.03 -0.29,-0.07 -0.11,-0.06 0.03,-0.02 -0.11,-0.05 -0.11,0.24 0.08,0.14 0.12,0.34 0,0.01 0,0.12 0,0.15l0.14 0.67z"/>
   <path fill="#FDFDFD" d="M74.7 59.74c0.12,-0.04 0.1,0.02 0.15,-0.16 0.02,-0.1 0.03,-0.18 0.06,-0.28 0.01,-0.04 0.03,-0.39 0.02,-0.47 -0.22,-0.06 -0.45,0.03 -0.38,0.3 0.02,0.09 0.09,0.13 0.13,0.24 0.04,0.11 0.02,0.24 0.02,0.37z"/>
   <path fill="#FDFDFD" d="M71.12 30.59c0.51,0.09 0.46,-0.04 0.49,-0.5 -0.28,-0.01 -0.44,0.23 -0.49,0.5z"/>
   <path fill="#FDFDFD" d="M40.12 20.03c0.09,-0.18 0.31,-0.5 0.24,-0.73 -0.24,-0.06 -0.31,0.08 -0.36,0.27 -0.03,0.13 0.05,0.38 0.12,0.46z"/>
   <path fill="#FDFDFD" d="M35.32 15.42c0.21,0.06 0.1,0 0.21,-0.02 0.21,-0.06 0.17,0.18 0.4,-0.07 0.08,-0.08 0.15,-0.09 0.15,-0.18 -0.02,-0.2 -0.29,-0.01 -0.41,0.03 -0.24,0.08 -0.39,0.02 -0.35,0.24z"/>
   <path fill="#FDFDFD" d="M36.92 35.75c0.28,0 0.29,-0.05 0.47,-0.07 0.23,-0.04 0.37,0.03 0.36,-0.21 -0.18,-0.06 -0.34,-0.01 -0.49,0.03 -0.26,0.07 -0.32,-0.01 -0.34,0.25z"/>
   <path fill="#FDFDFD" d="M36.53 20.87c0.07,-0.01 0.04,0 0.1,-0.03 0.29,-0.16 0.17,-0.05 0.29,-0.21 0.11,-0.13 0.22,-0.24 0.29,-0.42 -0.25,0.03 -0.17,0.16 -0.42,0.25 -0.14,0.05 -0.24,0.02 -0.26,0.41z"/>
   <path fill="#FDFDFD" d="M14.46 50.1c0.35,0 0.3,-0.07 0.15,-0.32 -0.16,-0.01 -0.43,-0.05 -0.47,0.08 -0.05,0.17 0.15,0.24 0.32,0.24z"/>
   <path fill="#FDFDFD" d="M45.41 19.83c0.18,-0.02 0.15,-0.02 0.2,-0.18 0.32,-0.06 0.2,-0.04 0.24,-0.15 -0.07,-0.12 0.07,-0.05 -0.12,-0.1 -0.24,-0.06 -0.33,0.23 -0.32,0.43z"/>
   <path fill="#FDFDFD" d="M48.89 20.64c0.25,0 0.17,-0.23 0.13,-0.36 -0.36,0.02 -0.45,0.36 -0.13,0.36z"/>
  </g>
  <path fill="black" d="M16.11 82.81c0.09,0.26 0.13,0.04 0.26,0.33 0.14,0.29 0.07,0.05 0.35,0.23 0.25,0.15 0.06,0.14 0.41,0.17 0.27,0.02 0.24,0.09 0.42,0.15 0.15,-0.12 0.24,-0.19 0.07,-0.39 -0.17,-0.21 -0.24,-0.12 -0.46,-0.24l-0.46 -0.26c-0.16,-0.1 -0.04,-0.08 -0.24,-0.03 -0.16,0.03 -0.14,0.04 -0.35,0.04z"/>
  <path fill="black" d="M66.38 79.07c0.13,-0.05 0.73,-0.3 0.65,-0.51 -0.04,-0.01 -0.01,-0.05 -0.19,0.04 -0.08,0.04 -0.12,0.06 -0.2,0.09 -0.22,0.09 -0.25,0.07 -0.26,0.38z"/>
  <path fill="black" d="M15.54 82.37c0,0.44 0.23,0.43 0.49,0.33 0.01,-0.1 -0.02,-0.18 -0.16,-0.28 -0.17,-0.11 -0.21,-0.07 -0.33,-0.05z"/>
  <path fill="#EED1D1" d="M32.65 28.77c-0.16,-0.15 -0.28,-0.06 -0.44,-0.2l-0.01 0.3c0.22,0.05 0.36,0.02 0.45,-0.1z"/>
  <path fill="#FEFEFE" d="M32.48 2.46c-10.27,3.66 -13.77,2.86 -19.28,12.25 -3.14,5.36 -6.01,7.55 -8.44,14.84 -1.35,4.03 -2.37,5.63 -2.94,10.41 -0.92,7.77 -1.82,8.05 -1.82,17.29 0,8.87 1.43,13.56 5.67,21.42 2.02,3.76 20.06,8.81 25.38,8.81 4.32,0 6.77,0.32 11.02,-0.75 4.01,-1.01 6.4,-0.3 11.7,-2.61 6.49,-2.82 13.98,-3.06 16.54,-10.76 0.23,-0.08 6.18,-10.18 6.09,-12.79 -0.08,-2.15 1.64,-5.29 1.4,-10.39 -0.26,-5.61 3.96,-10.08 -0.15,-20.05 -1.55,-3.77 1.03,-9.65 -6.21,-18.2 -6.6,-7.78 -4.54,-4.8 -14.51,-10.27 -2.82,-1.55 -18.23,-2.7 -21.24,-0.2 -0.3,0.25 -2.95,0.79 -3.21,1zm-17.07 76.13c3.07,-1.36 6.9,-7.54 9.68,-7.51 2.66,0.02 11.05,0.59 10.69,-3.74 -0.1,-1.29 2.3,-1.41 -2.99,-4.36 -3.72,-2.09 -7,-12.55 -4.97,-17.29 2.26,-5.29 -3.52,1.04 0.23,-10 1.89,-5.57 -0.4,-6.36 2.06,-10.8 0.7,-1.26 7.61,-1.08 -0.45,-4.4 -0.75,-0.31 -10.38,-1.62 -4.01,-1.99 5.33,-0.31 10.1,0.81 14.65,3.26 3.06,1.65 -7.09,-9.93 -1.07,-5.34 3.49,2.67 4.66,4.02 7.6,7.32 3.02,3.38 -7.08,-17.18 1.35,-1.96 3.46,6.25 2.34,3.1 3.76,3.95l-0.03 0.4c5.12,-0.36 4.76,8.44 3.9,9.87 0,0.02 2.95,0.07 0.77,5.36 -1.22,2.96 1.06,1.3 -1.64,3.49 -1.31,1.05 -0.22,6.78 -2.08,10.4 -1.39,2.7 1.01,2.18 -3.19,5.81 -0.31,0.27 -0.58,4.42 1.95,4.93 0.92,0.18 -0.39,4.08 4.32,1.68 2.46,-1.25 3.45,2.45 4.64,3.86 0.48,0.55 1.31,2.11 1.54,3.58 1.62,-1.13 2.93,-2.68 3.72,-5.01 0.2,-0.07 5.45,-8.88 5.36,-11.15 -0.07,-1.88 1.45,-4.62 1.24,-9.06 -0.23,-4.9 3.49,-8.8 -0.13,-17.49 -1.37,-3.29 0.9,-8.41 -5.48,-15.87 -5.82,-6.79 -4.01,-4.19 -12.8,-8.96 -2.49,-1.35 -16.08,-2.35 -18.73,-0.18 -0.27,0.22 -2.61,0.69 -2.83,0.88 -9.06,3.19 -12.15,2.49 -17.01,10.68 -2.77,4.67 -5.29,6.58 -7.44,12.94 -1.19,3.52 -2.09,4.92 -2.59,9.08 -0.82,6.78 -1.61,7.02 -1.61,15.08 0,7.74 1.26,11.82 5,18.68 0.66,1.23 3.3,2.61 6.59,3.86z"/>
  <path fill="#00A9B0" d="M36.12 87.71c-0.33,0.03 -1.19,0.08 -1.48,0 0.02,-0.17 0.05,-0.04 0.11,-0.24 -0.37,0.02 0.02,0.12 -0.25,0.24 -0.22,-0.17 0.04,-0.05 -0.13,-0.27 -0.22,0.05 -0.04,0.06 -0.21,0.15 -0.15,-0.06 -0.12,0 -0.17,-0.17 0.02,-0.01 0.08,-0.03 0.13,-0.03 0.76,0 0.64,0.08 0.84,0.08 0.73,0 0.25,-0.08 0.58,-0.08 0.59,0 0.58,0.08 0.88,0.08l1.13 -0.04c0.17,0 0.08,-0.01 0.13,0.07 -0.63,0.11 -0.63,-0.02 -0.88,0.06l-0.68 0.15zm4.7 -77.72c-0.04,-0.13 0.04,-0.26 0.17,-0.3l0 0c-0.08,-0.45 -0.18,-0.89 -0.24,-1.04 -0.23,-0.58 -1.64,-0.13 -1.77,-0.49l1.55 -0.12c0.11,-0.46 0.1,-1.27 -0.43,-1.27 -0.24,0 -1.35,0.46 -1.67,0.55 -0.3,0.09 -1.21,0.08 -1.38,0.09 -0.47,0.05 0.08,0.21 -0.29,0.21 -0.18,0 -0.58,-0.11 -0.78,-0.16l-0.03 0.16 2.94 0.42 -0.02 0.21 -3.91 -0.35c-0.88,0 -1.07,0.28 -1.88,0.6 -0.59,0.23 -1.17,0.19 -1.76,0.42 0.05,0.12 1.83,0.83 2.08,0.92 0.36,0.12 0.72,0.25 1.12,0.4 0.38,0.14 0.83,0.18 1.2,0.3 0.53,0.18 4.84,0.73 5.31,0.36 -0.07,-0.35 -0.13,-0.66 -0.21,-0.91zm0.4 -0.25c0.03,0.03 0.06,0.07 0.07,0.11 0.07,0.24 0.14,0.53 0.2,0.85 0.03,0.08 0.05,0.14 0.06,0.15 0.25,0.24 4.38,-0.57 4.94,-0.69 0.81,-0.18 1.62,-0.4 2.41,-0.53 0.13,-0.02 1.39,-0.4 0.56,-0.4 -0.37,0 -0.64,0 -1.12,-0.15 -0.56,-0.16 -1.94,-0.05 -2.43,-0.18 -0.55,-0.15 -4.55,-0.54 -4.71,-0.27 -0.08,0.13 0.05,0.31 0.09,0.52 0.07,0.35 -0.09,0.38 -0.07,0.59zm0.41 1.88c0.24,1.76 0.38,4.06 0.46,5.53 0.04,0.76 -0.18,1.19 -0.05,1.23 0.12,0.05 0.19,0.19 0.15,0.31 -0.04,0.13 -0.18,0.2 -0.31,0.16 -0.18,-0.07 -0.22,-0.71 -0.28,-1.68 -0.09,-1.54 -0.23,-3.99 -0.49,-5.76 -0.06,-0.01 -0.13,-0.02 -0.21,-0.02l-1.04 0.08c-2.26,0.03 -5.11,-0.55 -7.16,-1.3 -0.31,-0.11 -2.67,-1.11 -2.76,-1.11 -0.64,0 -2.46,0.95 -2.46,1.44 0,0.97 0.37,1.84 0.57,2.98 0.06,0.34 0.17,1.07 0.26,1.42 0.13,0.51 0.09,0.8 0.17,1.27 -0.1,0 -0.2,0.01 -0.3,0.02 -0.21,-1.27 -0.58,-3.2 -0.68,-3.79 -0.09,-0.53 -0.17,-0.7 -0.23,-1.18 -0.17,-1.22 -0.44,-0.43 -2.49,0.61 -1.28,0.64 -2.06,1.73 -3.19,2.59 -0.25,0.19 -0.77,0.19 -0.84,0.57 -0.08,0.48 0.2,0.8 0.28,1.14 0.08,0.31 0.16,0.93 0.32,1.13 0.17,0.21 0.49,0.44 0.85,0.44l1.78 0.02c0,0.03 -0.22,0.28 -0.35,0.31 -0.56,0.09 -1.72,-0.35 -1.86,0.37 -0.07,0.37 0.7,2.72 0.87,2.88 0.01,0 2.41,0.38 2.61,0.36 0.72,-0.07 0.2,0 0.84,0 0.16,0 0.08,-0.04 0.33,-0.04l2.05 0c0.25,0 0.15,0.29 -0.09,0.34l-2.05 0.14c-0.91,0.07 -1.93,-0.16 -2.75,-0.16 -0.73,0 -1.15,-0.15 -0.73,0.78l0.75 2.8c0.13,0.42 0.43,1.55 0.48,1.94 0.18,1.34 0.58,1.17 1.71,1.2 0.8,0.01 2.16,0.12 2.64,0.12 0,0 0.2,0.02 0.45,0.03 -0.04,0.06 -0.09,0.12 -0.13,0.19l-0.06 0c-0.35,0.01 -0.94,-0.02 -1.34,0 -0.35,0.02 -0.99,0.07 -1.29,-0.01 -0.18,-0.05 -0.8,-0.14 -0.8,-0.14 -1.13,0.08 -0.58,1.05 -0.34,2.13 0.18,0.86 0.48,1.74 0.6,2.68 0.1,0.81 1.16,4.85 1.12,5.2 0.07,0.04 0.14,0.07 0.21,0.1 -0.28,0.42 -0.22,0.81 -0.16,1.74 -0.09,-0.23 -0.22,-0.39 -0.43,-0.4 -0.65,-0.03 -1.19,-0.09 -1.91,-0.21 -1.23,-0.2 -2.67,-0.76 -3.74,-0.74 -1.05,0.01 -1.31,-0.01 -2.39,-0.05 -0.25,0.05 -0.46,0.03 -0.69,0.21l2.63 9.7c0.86,0.02 1.51,0.08 2.33,0.01l2.34 -0.11 2.3 0.04c0.02,0.12 0.04,0.25 0.07,0.39l-4.67 0.08 -1.17 0.01c-0.19,0.02 -0.99,0.11 -1.08,0.23l0.56 1.84 0.12 -0.03c-0.36,-0.06 -0.32,0.5 0.86,0.5 0.16,0 1.12,0.22 1.4,0.26 0.97,0.15 2.19,0.25 3.04,0.42 0.42,0.08 0.98,0.09 1.43,0.19l0.02 0c0,0.14 0,0.28 0,0.42 -0.34,-0.03 -0.62,-0.07 -0.74,-0.09 -0.54,-0.12 -1.88,-0.26 -2.48,-0.35 -0.43,-0.05 -0.78,-0.01 -1.27,-0.11 -0.49,-0.1 -1.04,-0.22 -1.44,-0.22 -0.45,0 -0.09,0.07 -0.42,-0.1l-0.12 0.3 -0.11 -0.13c0,0.15 0.05,0.35 0.1,0.55 0.08,0.03 0.15,0.1 0.17,0.19 0.1,0.43 1.68,4.34 3.69,8.24 0.81,-0.09 1.62,-0.18 2.36,-0.29 1.89,-0.26 3.36,-0.56 3.46,-0.84 0.04,-0.12 0.18,-0.19 0.31,-0.15 0.12,0.05 0.19,0.19 0.15,0.31 -0.17,0.49 -1.8,0.88 -3.85,1.17 -0.69,0.09 -1.44,0.18 -2.19,0.26 0.39,0.75 0.8,1.49 1.21,2.21 1.12,1.94 2.29,3.65 3.33,4.63 2.5,-0.12 4.95,-0.36 5.72,-0.94 0.11,-0.08 0.26,-0.05 0.34,0.05 0.08,0.11 0.06,0.26 -0.05,0.34 -0.8,0.6 -3.07,0.87 -5.45,1 0.1,0.07 0.2,0.13 0.29,0.19 0.12,0.06 0.16,0.21 0.1,0.33 -0.06,0.11 -0.21,0.16 -0.33,0.1 -0.26,-0.14 -0.52,-0.34 -0.79,-0.58 -1.03,0.05 -2.05,0.08 -2.96,0.11 -0.86,0.02 -1.63,0.05 -2.19,0.08 0.27,0.43 0.53,0.8 0.76,1.08 0.09,0.1 0.07,0.25 -0.03,0.34 -0.11,0.09 -0.26,0.07 -0.35,-0.03 -0.27,-0.34 -0.59,-0.8 -0.93,-1.35 -0.16,0.01 -0.28,0.03 -0.36,0.06 -1.43,0.42 -2.88,0.68 -4.33,0.83 0.72,1.6 1.38,3.01 1.76,3.52 0.08,0.11 0.06,0.26 -0.05,0.34 -0.11,0.08 -0.26,0.06 -0.34,-0.05 -0.42,-0.57 -1.12,-2.08 -1.89,-3.75 -1.38,0.12 -2.78,0.16 -4.19,0.17 -0.07,0.13 -0.14,0.27 -0.22,0.41 0.02,-0.13 -0.02,-0.25 -0.13,-0.32l-2.56 0.21c0.01,0.25 0.16,0.38 0.16,0.79l0 0.02c0.67,1.06 1.43,2.6 2.04,3.83 0.46,0.93 0.83,1.69 0.98,1.87 0.03,0.04 0.05,0.07 0.05,0.11l0.22 0.06c0.35,0.1 1.2,0.48 1.58,0.44 0.35,-0.04 0.71,-0.01 0.89,-0.04 0.41,-0.05 0.34,-0.13 0.78,-0.13 0.61,0 0.76,-0.02 1.37,-0.13l0.01 0.09c1.02,0 1.34,-0.09 2.36,-0.19 0.59,-0.06 1.1,-0.58 1.36,-0.62 0.02,0.03 -0.04,1.7 -0.05,2.03 -0.01,0.57 0.34,0.34 0.52,0.4 0.38,0.12 0.42,0.21 0.93,0.29 9,1.41 16.39,3.92 24.02,1.69 1.02,-0.3 1.56,-0.58 2.41,-0.94 0.49,-0.2 0.74,-0.38 0.86,-0.61 0.15,-0.06 0.3,-0.13 0.46,-0.2l-0.01 0.17c0.34,0.1 2.09,-0.92 2.47,-1.09 0.29,-0.12 0.77,-0.47 1.13,-0.67 0.49,-0.27 0.75,-0.69 1.02,-0.82 0,-0.02 -0.01,-0.03 -0.01,-0.04 0.39,-0.23 0.77,-0.46 1.14,-0.69 0.17,-0.03 0.16,0.05 0.98,-0.56 0.31,-0.23 0.37,-0.11 0.67,-0.28l1.71 -1.22c0.28,-0.26 0.36,-0.41 0.35,-0.57 0.12,-0.11 0.23,-0.22 0.32,-0.32l0.02 0.06c0.1,-0.03 2.14,-1.93 2.68,-2.26 1.54,-0.93 2,-1.78 2.75,-3.34 0.16,-0.33 0.27,-0.34 0.45,-0.69 0.44,-0.89 0.38,-0.62 0.05,-1.78 -0.13,-0.47 -0.9,-3.78 -1.02,-3.87 -0.36,0.02 -3.74,2.62 -4.69,2.74 -0.67,0.26 -1.71,0.87 -2.66,1.43 -1.04,0.62 -1.98,1.17 -2.33,1.16 -0.13,0 -0.24,-0.11 -0.24,-0.24 0.01,-0.14 0.12,-0.24 0.25,-0.24 0.21,0 1.1,-0.52 2.08,-1.1 1.08,-0.64 2.28,-1.34 2.98,-1.55 0.02,0 0.04,0 0.06,-0.01 0.73,-0.61 2.43,-1.38 2.91,-1.66 0.3,-0.17 1.51,-0.9 1.54,-1.22 0.01,-0.13 -0.4,-2.09 -0.49,-2.25 -0.11,-0.22 -0.24,-0.06 -0.15,-0.41 0.11,-0.39 -0.07,-1.35 -0.14,-1.72 -0.05,-0.25 -0.1,-0.52 -0.14,-0.8l-0.76 0.46c-4.72,2.86 -10.04,6.09 -13.03,5.97 -0.01,0 -0.96,0.56 -1.66,1.01 -0.32,0.21 -0.57,0.37 -0.57,0.38 -0.02,0.13 -0.15,0.22 -0.28,0.2 -0.13,-0.03 -0.22,-0.15 -0.2,-0.28 0.03,-0.17 0.36,-0.44 0.79,-0.71 0.56,-0.36 1.35,-0.79 1.73,-0.98 0.04,-0.07 0.12,-0.11 0.21,-0.11 2.84,0.11 8.1,-3.07 12.76,-5.9 0.31,-0.19 0.62,-0.38 0.93,-0.56 -0.05,-0.38 -0.08,-0.76 -0.1,-1.11 -0.03,-0.76 -0.29,-1.73 -0.29,-2.42 0,-0.36 -0.14,-2.35 -0.37,-2.42l-2.32 0.01c-1,-0.08 -1.32,-0.26 -2.07,0.33 -0.26,0.2 -1.33,0.72 -1.42,0.93 -0.08,0.17 0.16,0.96 0.2,1.23 0.04,0.23 0.06,0.44 0.1,0.69 0.08,0.59 0.14,0.19 0.18,0.86 0.05,0.77 0.47,3.35 0.45,3.85l-0.11 0.67c-0.12,-0.02 -0.14,-0.18 -0.14,-0.3l0.1 -0.01 -1.06 -6.74c-0.59,0.09 -1.83,0.96 -2.99,1.07 -0.43,0.05 -1.52,0.23 -2.34,0.19 0.01,-0.15 0.03,-0.31 0.06,-0.47 0.13,0.04 0.26,0.06 0.38,0.07 0.66,0.04 1.25,-0.04 1.85,-0.12 0.77,-0.09 2.64,-0.8 2.85,-1.23 0.05,-0.11 -0.04,-1.14 -0.6,-1.11 -0.57,0.04 -0.59,0.06 -1.26,0.04 -0.8,-0.01 -1.59,-0.06 -2.39,-0.02 0.02,-0.13 0.02,-0.25 0.01,-0.38 0.63,-0.02 1.14,-0.03 1.34,-0.01 0.22,0.03 2.36,0.11 2.48,-0.01l-1.56 -9.18c-0.1,-0.03 -0.3,-0.05 -0.55,-0.07 -0.01,-0.08 -0.01,-0.16 -0.01,-0.24 0.13,0.01 0.27,-0.01 0.44,-0.05 0,-0.11 0.01,-0.21 0.02,-0.28 0,-0.07 -0.02,-0.16 -0.02,-0.29 -0.19,0 -0.31,0.02 -0.46,0.06 -0.01,-0.12 -0.02,-0.24 -0.03,-0.36 0.21,-0.08 0.36,-0.16 0.41,-0.23 0,-0.47 -0.29,-3.14 -0.39,-3.61 -0.2,-0.83 -0.33,-2.64 -0.43,-3.58 -0.03,-0.25 -0.26,-1.53 -0.26,-1.53 0.11,-0.36 0.02,-1.15 -0.03,-1.68 -0.11,-1.18 -0.15,-2.55 -0.22,-3.64 -0.56,-0.08 -3.9,2.04 -3.9,0.85 0,-0.31 1.85,-0.61 2.24,-0.75 0.28,-0.11 0.74,-0.31 1.09,-0.43 0.53,-0.18 0.48,-0.35 0.4,-0.9 -0.14,-0.86 -0.14,-1.85 -0.2,-2.64 -0.06,-0.77 -0.11,-0.56 -0.8,-0.63 -0.46,-0.04 -0.96,-0.09 -1.4,-0.1l-0.02 0c0.01,-0.09 0.01,-0.18 0.02,-0.27 0.63,0.05 1.42,0.15 2.05,0.07 0.12,-0.47 -0.31,-4.68 -0.41,-5.35l-0.49 -4.01c-0.05,-0.64 -0.11,-0.71 -0.79,-0.76 -1.12,-0.06 -1.52,-0.29 -2.39,-0.17 -0.43,0.06 -1.79,0.58 -2.31,0.72 -0.87,0.25 -1.67,0.32 -2.52,0.54 -0.86,0.22 -1.77,0.26 -2.62,0.46 -0.33,0.08 -1.73,0.19 -2.01,0.52zm30.99 40.51c0.06,-0.02 0.12,-0.02 0.18,0.01 0.03,-0.14 0.07,-0.27 0.1,-0.41 0.2,-0.8 -0.02,-1.36 -0.01,-2.01l-4 -0.03c-0.45,-0.09 -1.09,-0.04 -1.64,-0.07 -0.52,-0.04 -1.32,-0.23 -1.32,0.39 0.01,1.01 0.33,2.4 0.33,3.23l0.33 2.11c2.39,-1.44 4.54,-2.69 6.03,-3.22zm0.06 0.5c-1.49,0.55 -3.63,1.8 -6.01,3.23l0.82 5.26c0.51,-0.09 1.99,-1.39 2.56,-1.71 0.52,-0.29 0.6,-0.55 1.2,-0.88 0.62,-0.35 0.69,-0.47 0.81,-1.34 0.16,-1.26 0.46,-2.24 0.51,-3.7 0.01,-0.3 0.06,-0.59 0.11,-0.86zm-61.55 19.15c-0.08,-0.11 -0.06,-0.26 0.05,-0.34 0.04,-0.02 0.08,-0.04 0.12,-0.04 -0.01,-0.04 -0.03,-0.07 -0.05,-0.1 -0.25,-0.28 -1.03,-0.14 -1.4,-0.14 -0.21,0 -0.08,-0.15 -0.32,-0.23 -0.19,-0.06 -0.23,0.06 -0.72,0.06 -0.01,0 -1.51,-0.43 -1.78,-0.49 -0.32,-0.08 -0.72,-0.18 -0.76,-0.18 -0.58,-0.06 0.35,0 -0.43,-0.26 -0.41,-0.14 -0.01,0.09 -0.27,0.01 -0.05,-0.02 -0.15,-0.27 -0.21,-0.05 -0.12,0.37 -0.25,-0.22 -0.52,0.42 -0.16,0.4 -0.04,0.6 -0.11,0.89 -0.1,0.37 -0.25,0.47 0.2,0.73 -0.08,0.29 -0.06,0.62 0.21,0.88 0.24,0.22 0.4,0.44 0.71,0.54 0.78,0.26 1.16,0.62 1.65,0.81 0.17,0.07 0.54,0.27 0.83,0.39 0.46,0.19 0.07,0.32 0.61,0.57 0.57,0.27 0.82,0.61 1.59,0.96 0.54,0.24 0.81,0.44 1.04,0.3 0.18,0.03 0.42,0.03 0.7,0.01 -0.05,0.1 -0.09,0.21 -0.13,0.32 0.1,0.14 1.21,0.48 2.11,0.74 -0.21,-0.37 -0.48,-0.92 -0.8,-1.56 -0.7,-1.42 -1.6,-3.25 -2.32,-4.24zm7.21 -9.39c0.02,-0.11 0.12,-0.19 0.24,-0.19 0.24,0 0.75,-0.02 1.42,-0.06l0 0c0.02,-0.02 -0.7,-1.54 -0.82,-1.82 -0.09,-0.19 -0.51,-0.84 -0.51,-0.86 -0.16,-0.62 -0.18,-0.41 -0.39,-0.92 -0.53,-1.33 -1.17,-2.61 -1.62,-3.95 -0.19,-0.52 -0.52,-1.48 -0.79,-1.97 -0.13,-0.24 -0.33,-0.7 -0.43,-0.95 -0.28,-0.78 -0.25,-0.43 -0.73,-0.69 -0.78,-0.42 -1.15,-0.46 -1.98,-0.79 -0.92,-0.35 -0.1,-0.42 -1.96,-0.42 -0.82,0 -0.34,0.52 -0.19,1.06 0.03,0.1 0.17,0.61 0.2,0.67 0.09,0.18 0.33,0.26 0.4,0.54 0.15,0.67 0.64,1.91 1.04,2.52 0.25,0.39 -0.14,0.09 0.27,0.45 0.05,0.04 0.06,0.32 0.18,0.56 0.13,0.27 0.45,0.97 0.53,1.27 0.16,0.54 0.47,0.77 0.61,1.18 0.11,0.34 0.24,1.2 0.65,1.2l-0.14 0.05c0.33,0.81 1.11,2.64 1.35,3.34l2.67 -0.22zm1.74 -1.24c0.06,0.02 0.11,0.07 0.13,0.13l0.15 0.3 0.04 -0.05 -0.03 0.08 0.23 0.49c1.12,-0.07 2.54,-0.18 3.97,-0.33 -1.99,-3.89 -3.55,-7.75 -3.65,-8.19 -0.01,-0.07 0,-0.14 0.04,-0.2 -0.06,-0.21 -0.11,-0.4 -0.14,-0.48 -0.19,-0.54 -0.72,-0.56 -1.31,-0.66 -0.63,-0.11 -1.06,-0.19 -1.62,-0.34l-1.64 -0.48c-0.4,0 -0.15,0.39 -0.06,0.59 0.1,0.22 0.12,0.46 0.25,0.71 0.18,0.38 0.32,0.95 0.49,1.38 0.27,0.69 1,2.71 1.43,3.18 0.36,0.4 -0.06,0.18 0.16,0.64 0.4,0.83 0.39,0.29 0.57,1.3 0.08,0.46 0.32,0.11 0.29,0.6 -0.01,0.24 0.12,0.23 0.28,0.56 0.07,0.14 0.25,0.48 0.42,0.77zm-10.79 9.2c0.03,-0.01 0.06,-0.02 0.09,-0.02 0.43,0 0.89,0.01 1.37,0.01 -0.08,-0.68 -0.84,-2.01 -1.08,-2.53 -0.35,-0.78 -0.67,-1.75 -1.14,-2.62 -0.3,-0.55 -0.9,-2.35 -1.19,-2.74 -0.31,-0.4 -0.11,-0.26 -0.56,-0.34 -0.06,-0.01 -1.29,-0.57 -2.25,-0.56 0,0.86 0,1.22 0.08,2.12 0.04,0.49 0.13,1.56 0.1,2.01 -0.01,0.18 0.05,1.93 0.13,2.12 0.17,0.37 -0.06,0.43 0.17,0.96 0.25,0.59 0.46,0.29 0.64,0.23 0.09,0.32 0.83,0.43 1.17,0.55 0.73,0.25 0.39,0.25 1.34,0.42 0.26,0.05 0.58,0.29 1.13,0.39zm2.07 0l0.46 0c0.74,0.01 1.49,0.02 2.23,0.02 0.31,-0.06 0.53,-0.16 0.82,-0.19 0.03,0 0.06,-0.01 0.08,-0.02l-0.1 0.21c1.25,-0.01 2.5,-0.05 3.73,-0.15l-0.08 -0.17c-0.8,-1.78 -1.65,-3.63 -2.25,-4.65 -0.06,-0.09 -0.05,-0.2 0.01,-0.27 -0.28,-0.51 -0.54,-1.31 -0.63,-1.6 -0.12,-0.42 -0.53,-0.47 -0.99,-0.4l-1.73 -0.09c-0.14,0 -0.52,-0.12 -0.55,-0.12 -1.06,0 -3.1,-0.33 -4.26,-0.48 0.19,1.13 0.78,2 1.11,2.78 0.16,0.37 -0.1,0.05 0.18,0.4 0.08,0.1 0.17,0.29 0.21,0.44 0.21,0.83 0.41,1.12 0.71,1.88 0.08,0.19 0.15,0.24 0.23,0.4 0.2,0.42 -0.09,0.12 0.04,0.46 0.05,0.15 0.5,0.56 0.5,0.85 0,0.22 0.15,0.51 0.28,0.7zm5.3 -5.21l0.01 0.01c0.62,1.05 1.46,2.91 2.28,4.7l0.14 0.32c1.49,-0.15 2.96,-0.41 4.42,-0.84 0.05,-0.02 0.13,-0.03 0.22,-0.05 -1.16,-1.96 -2.5,-4.73 -3.42,-6.67l-0.35 0.02c-0.02,0.04 -0.04,0.08 -0.05,0.11l-3.97 0.38c0.08,0.87 0.65,1.48 0.72,2.02zm8.15 -2.9c-1.42,0.14 -2.84,0.26 -3.98,0.33 0.95,1.99 2.3,4.77 3.43,6.66 0.6,-0.04 1.47,-0.07 2.47,-0.1 0.77,-0.02 1.62,-0.05 2.49,-0.08 -1.01,-1.05 -2.07,-2.65 -3.1,-4.42 -0.45,-0.77 -0.88,-1.58 -1.31,-2.39zm13.83 25.11c0.22,0 0.53,0.01 0.84,0 0.43,-0.01 1.85,-0.22 2.26,-0.24l0.01 0.16c0.02,0.26 -0.92,0.32 -1.14,0.32 -0.46,0.02 -0.96,0.08 -1.38,0.08 -0.25,0 -0.28,-0.06 -0.52,-0.1 -0.25,-0.04 -0.29,0.02 -0.34,-0.2l0.27 -0.02zm3.71 -0.17c0.1,-0.28 0.43,-0.32 0.74,-0.36 0.17,-0.03 0.1,0.03 0.28,-0.02 0.34,-0.1 0.28,-0.09 0.67,-0.09 0.28,0 0.39,-0.05 0.66,-0.03l-0.89 0.28c-0.08,0.02 -0.23,0.04 -0.33,0.05 -0.48,0.07 -0.7,0.23 -1,0.2 -0.09,-0.02 -0.04,0.04 -0.13,-0.03zm5.65 -4.74c0.19,-0.05 0.37,-0.14 0.59,-0.13 0.37,0.01 0.05,0 0.47,-0.14 0.31,-0.11 0.75,-0.25 1.1,-0.38 0.4,-0.14 1.95,-0.9 2.02,-0.91 0.13,0.34 0.1,3.01 0.54,2.68 0.4,-0.29 -0.36,-2.51 0.1,-2.95 0.02,-0.02 2.07,-1 2.29,-1.1 1.13,-0.51 2.67,-1.8 3.13,-1.98 0.28,-0.11 0.48,-0.05 0.65,-0.23 0.44,-0.46 1.96,-1.45 2.49,-1.73 0.31,-0.17 0.82,-0.82 0.88,-0.41 0.05,0.36 0.05,1.03 0.19,1.35 0.18,0.42 0.27,2.54 0.22,3.03 -0.11,0.98 -3.38,2 -4.35,2.47 -0.61,0.29 -1.74,0.59 -2.46,0.92 -0.78,0.34 -1.76,0.59 -2.44,0.96 -1.05,0.57 -3.77,1.4 -5.24,1.46 -0.85,0.03 -5.31,1.18 -5.67,0.73l0.01 -0.01c-0.04,0 -0.08,0 -0.12,0 -0.32,0.03 -0.47,0.03 -0.53,0.01 -0.09,0.07 -0.22,0.11 -0.38,0.11 -0.92,0 -1.8,0.06 -2.69,0.07 -2.22,0.42 -6.59,0.29 -9.24,0.45 -0.25,0.01 -0.22,-0.04 -0.38,-0.04 -0.7,0 -0.22,0.08 -1.08,0.08 -0.67,0 -4.15,-1.22 -4.92,-1.52 -0.84,-0.33 -1.39,-0.65 -2.3,-0.95 -0.27,-0.09 -0.89,-0.38 -1.1,-0.54 -0.34,-0.27 -0.13,-0.06 -0.53,-0.18 -0.39,-0.12 -0.09,-0.13 -0.44,-0.34l0 0.17 -0.13 0.02c-0.71,0 -0.4,-0.08 -0.73,0.17l0.2 0.04c-0.25,0.22 0.44,0.86 0.82,0.73l-0.31 -0.28 0.07 -0.07 4.26 1.82c-0.74,0.06 -2.16,-0.33 -2.94,-0.64 -0.48,-0.18 -1.8,-0.9 -2.47,-1.06 -0.37,-0.1 -0.11,-0.07 -0.25,-0.14 0,0 -1.17,-0.28 -1.54,-0.69 -0.19,-0.22 -0.31,-0.11 -0.57,-0.35 -0.37,-0.34 -0.67,-0.46 -1,-0.83 -0.13,-0.13 -1.17,-0.74 -1.17,-0.41 0,0.5 0.19,0.28 0.36,0.67 -0.57,-0.01 -1.37,-0.95 -1.37,-0.95 -0.09,-0.06 -0.22,-0.06 -0.43,-0.26 -0.25,-0.24 -0.51,-0.54 -0.76,-0.8 -0.13,-0.13 -0.34,-0.21 -0.41,-0.38 -0.07,-0.18 -0.01,-0.14 -0.06,-0.27 -0.09,-0.22 -0.19,0.07 -0.11,-0.15 0.08,-0.19 0.48,-0.29 0.71,-0.29 0.63,-0.02 1.85,-0.2 2.35,-0.2 0.7,0 1.61,-0.06 2.31,-0.09 1.06,-0.04 1.32,0.41 2.25,0.41 0.36,0 0.39,-0.03 0.5,-0.04 0.23,0 3.92,0.67 4.45,0.77l-0.18 1.75c0.06,0.47 -0.15,1.86 -0.21,2.42 0.8,0.09 0.5,-3.58 1.01,-3.96 0.9,0.48 19.87,3.82 24.54,2.11zm17.04 -2.67c-0.03,-0.09 -0.01,-0.44 0.3,-0.46 -0.04,0.19 -0.12,0.42 -0.3,0.46zm-16.88 6.13c0.78,-0.03 1.81,-0.34 2.52,-0.48 1.09,-0.22 1.21,-0.32 2.14,-0.72 1.3,-0.56 2.9,-1.08 4.19,-1.7 0.4,-0.19 0.64,-0.25 1.11,-0.4 0.27,-0.09 0.61,-0.31 1.04,-0.46 0.75,-0.25 3.37,-1.53 4.08,-1.95 0.33,-0.2 1.52,-1.06 1.89,-1.08 -0.04,0.27 -0.18,0.05 -0.38,0.42 -0.1,0.19 -0.17,0.28 -0.28,0.47 -0.32,0.53 -0.31,0.4 -0.89,0.65 -0.35,0.14 -0.9,0.16 -1.16,0.39 -0.29,0.24 -0.5,0.45 -0.81,0.69 -0.68,0.54 -0.85,0.91 -1.77,1.34 -0.71,0.34 -1.44,0.6 -2.11,0.94 -0.77,0.4 -3.73,1.22 -4.74,1.41 -1.01,0.19 -1.21,0.49 -2.55,0.57 -0.62,0.03 -0.67,-0.05 -1.18,0.01 -0.33,0.04 -0.15,-0.17 -0.64,-0.06 -0.15,0.03 -0.47,0.17 -0.46,-0.04zm-26.38 -7.47l1.12 0.05c0.09,1.13 0.2,1.06 -1.6,0.77 -0.5,-0.08 -1.24,-0.28 -1.74,-0.52l2.22 -0.3zm-7.61 -0.04c-0.4,0.12 -1.57,0.11 -2.06,0.14 -1.38,0.08 -0.79,-0.23 -0.44,-0.95l2.5 0.81zm50.32 2.86c0.04,-0.13 0.68,-0.52 0.92,-1.03 0.19,-0.41 0.43,-0.87 0.62,-1.25 0.26,-0.5 1.3,-1.8 1.96,-1.68 -0.09,1.24 -2.14,2.5 -2.21,2.77 -0.14,0.52 2.46,-1.98 2.6,-2.03 0.18,0.29 -1.32,1.67 -1.6,1.98 -0.26,0.29 -1.94,1.33 -2.29,1.24zm1.41 -3.46c0.07,-0.2 0.17,-0.24 0.28,-0.35 0.26,-0.24 0.19,-0.2 0.32,-0.21 -0.02,0.26 -0.33,0.47 -0.6,0.56zm2.53 -1.49c-0.09,-0.2 0.01,-0.22 0.13,-0.34 0.08,-0.08 0.12,-0.19 0.22,-0.22 0.03,0.22 -0.18,0.51 -0.35,0.56zm1.95 -1.02c0.13,-0.13 0.08,-0.06 0.17,-0.25 0.06,-0.12 0.07,-0.18 0.21,-0.2l-0.54 1.21c-0.13,0.24 -0.06,0.31 -0.22,0.32 -0.01,-0.03 -0.02,-0.02 -0.01,-0.09 0,-0.23 0.1,-0.02 0.01,-0.5l0.38 -0.49zm-64.45 0.14c0.03,-0.28 -0.12,-0.72 -0.15,-1.02 0.55,-0.16 2.68,1.51 3.12,1.81 0.88,0.62 2.4,0.95 1.98,1.61 -0.29,0.45 -0.11,-0.19 -0.23,0.24 -0.09,0.29 0,0.18 -0.21,0.37 -1.01,0.9 -2.36,-0.33 -3.06,-1 -0.18,-0.17 -0.52,-0.37 -0.71,-0.54 -0.13,-0.13 -0.42,-0.59 -0.53,-0.68 -0.57,-0.45 -0.27,-0.27 -0.21,-0.79zm62.07 0.56c0.08,-0.24 0.28,-0.56 0.4,-0.71 0.15,-0.19 0.28,-0.43 0.43,-0.67 0.09,-0.13 0.15,-0.19 0.24,-0.3 0.07,-0.09 0.14,-0.2 0.23,-0.32 0.25,-0.35 0.32,-0.59 0.47,-0.61 0.11,0.25 -0.54,1.15 -0.61,1.51 -0.08,0.42 -0.26,0.4 -0.52,0.62 -0.14,0.12 -0.39,0.43 -0.64,0.48zm-64.71 -5.41c0.02,-0.06 0.09,-0.27 0.11,-0.31 0.06,-0.11 -0.05,-0.03 0.11,-0.1l0.58 0.05c0.01,0.01 0.02,0.01 0.02,0.02 0.07,0.05 0.06,-0.08 0.06,0.08 0,0.31 0.01,0.23 -0.17,0.38 -0.14,0.13 -0.28,0.19 -0.48,0.26 -0.19,-0.43 -0.12,-0.17 -0.23,-0.38zm24.8 -25.13l-0.51 -2.32c-0.15,-0.05 -0.28,-0.11 -0.4,-0.18 0.06,0.31 0.12,0.6 0.13,0.8 0.04,0.51 0.36,1.14 0.44,1.72 0.02,0.12 0.05,0.25 0.07,0.38 0.09,-0.18 0.19,-0.31 0.27,-0.4zm0.69 -25.28c0.12,0.74 0.26,1.51 0.43,2.03 0,0.01 0.6,2.59 0.6,1.75l-0.65 -3.81c-0.13,0.01 -0.25,0.02 -0.38,0.03zm41.73 51.76c-0.02,-0.09 0.08,-0.32 0.12,-0.45 0.06,-0.22 0.1,-0.16 0.19,-0.39 0.3,-0.76 0.34,-0.71 0.58,-1.22 0.07,-0.13 0.09,-0.31 0.18,-0.41 0.1,-0.11 0.06,0 0.16,-0.14 0.06,-0.09 0.14,-0.41 0.42,-0.46 -0.05,0.19 -0.11,0.24 -0.15,0.46 -0.15,0.8 -0.48,1.41 -0.93,2.07 -0.2,0.3 -0.35,0.63 -0.57,0.54zm-66.79 -2.55c-0.1,0.06 -0.24,0.13 -0.39,0.14 -0.17,-0.07 -0.01,0.02 -0.08,-0.12 -0.13,-0.23 -0.14,-0.05 -0.3,-0.21 -0.07,-0.08 -0.1,-0.44 -0.08,-0.54 0.19,0.02 0.1,0.05 0.2,0.21 0.13,0.01 0.68,-0.04 0.65,0.52zm69.44 0.31c-0.04,-0.1 0.4,-1.3 0.44,-1.39 0.05,-0.09 0.2,-0.3 0.29,-0.23 0.13,0.1 -0.3,1.13 -0.43,1.3 -0.37,0.47 -0.09,0.31 -0.3,0.32zm-69.41 -8.17c0.21,1 0.5,6.35 0.26,6.63 -0.14,0.04 -0.78,-0.21 -0.97,-0.25 -0.71,-0.17 -0.25,-0.4 -0.54,-0.86 -0.09,-0.15 -0.26,-0.86 -0.26,-0.94 0.01,-0.61 0.05,-0.52 -0.07,-1.07 -0.14,-0.65 -0.1,-1.72 -0.1,-2.49 0,-0.39 -0.09,-2.04 -0.03,-2.25l0.16 0.28c0.56,-0.12 1.44,0.43 1.55,0.95zm63.96 0.27c0,-0.32 2.05,-1.71 2.41,-1.99 1.01,-0.78 2.08,-1.77 1.22,0.63 -0.4,1.13 -1.79,5.92 -2.55,6.19 -0.06,-0.22 -0.2,-0.96 -0.23,-1.2 -0.07,-0.52 -0.23,-0.63 -0.3,-1.11 -0.06,-0.41 -0.19,-0.68 -0.25,-1.17 -0.08,-0.69 -0.3,-0.45 -0.3,-1.35zm6.99 -2.04c0,-0.13 0.02,-0.26 -0.02,-0.37 -0.04,-0.11 -0.11,-0.15 -0.13,-0.24 -0.07,-0.27 0.16,-0.36 0.38,-0.3 0.01,0.08 -0.01,0.43 -0.02,0.47 -0.03,0.1 -0.04,0.18 -0.06,0.28 -0.05,0.18 -0.03,0.12 -0.15,0.16zm-5.28 9.89c0.15,-0.23 0.01,-0.71 -0.08,-1.06 -0.11,-0.47 -0.2,-0.22 -0.24,-1.09 -0.03,-0.4 0.64,-1.39 0.82,-1.79 0.61,-1.41 0.99,-2.34 1.46,-3.89 0.14,-0.46 0.87,-2.68 0.83,-3.12 -0.05,-0.4 0.14,-0.52 0.23,-1.02 0.13,-0.76 0.32,-1.47 0.45,-2.21 0.06,-0.33 0.2,-2.37 0.25,-2.44 0.13,0.02 0.78,5.42 0.98,5.8 0.03,0.06 0.5,1.72 0.5,1.75 0,0.56 -1.78,6.6 -2.33,7.17 -0.31,0.32 -0.98,1.41 -1.21,1.8 -0.8,1.4 -1.19,2.96 -2.15,4.12 -0.48,0.59 -0.93,1.15 -1.43,1.72 -0.12,0.13 -1.47,1.47 -1.58,1.55 -0.24,-0.06 -0.36,-0.13 -0.52,-0.08l0.08 0.55 0.1 -0.01c-0.68,0.52 -0.04,0.9 -0.93,1.42 -0.24,0.13 -1.44,0.87 -1.58,0.87l-0.06 -1.7c-0.01,-0.4 0.04,-0.41 0.04,-0.54 0,-0.86 -0.19,-0.64 -0.23,-1.13 -0.1,-1.44 -0.5,-1.73 0.14,-2.25 0.76,-0.61 1.2,-1.21 2.1,-1.83 1.1,-0.76 1.32,-0.63 2.12,-1.82 0.51,-0.78 1.01,-2.16 1.72,-2.37l0.52 1.6zm-64.85 -9.23c0.04,-0.33 0.18,-0.01 0.16,-0.31 -0.01,-0.2 -0.07,-0.11 -0.04,-0.38 0.05,-0.36 -0.06,-0.32 -0.11,-0.8 -0.1,-1.12 0.19,0.24 0.15,-0.42 -0.02,-0.27 -0.04,-0.51 -0.06,-0.79 -0.08,-1.08 0.15,-2.51 0.04,-3.47 -0.06,-0.52 0.26,-3.25 0.39,-3.71 0.27,-0.97 0.42,-0.62 1.13,-0.73 0.4,-0.06 1.28,-0.05 1.71,-0.05 2.45,-0.03 1.12,-0.04 2.19,1.33 0.04,0.06 0.54,1.3 0.59,1.46 0.15,0.41 0.25,0.31 0.37,0.69 0.11,0.35 0.08,0.41 0.27,0.73 0.4,0.66 0.96,2.07 1.3,2.8 0.28,0.6 1.14,2.33 1.03,2.99 0.52,0.01 0.66,0.91 0.85,1.33 0.08,0.19 0.61,1.4 0.59,1.46 -0.32,0.1 -3.71,-0.24 -4.44,-0.34 -0.18,-0.02 -0.62,-0.03 -0.64,-0.04 -0.29,-0.09 -0.02,-0.17 -0.56,-0.14 -0.25,0.02 -1.04,-0.2 -1.34,-0.28 -0.57,-0.17 -0.54,-0.48 -0.72,-0.96 -0.16,-0.41 0.06,-0.33 -0.2,-0.55 -0.45,-0.39 -0.04,-0.35 -0.42,-1.18 -0.26,-0.58 -0.02,-0.03 -0.29,-0.41 -0.11,-0.63 -0.32,-1.22 -0.53,-1.9 -0.14,-0.43 -0.21,-0.58 -0.3,-1.05 -0.07,-0.37 0.01,-0.66 -0.43,-0.76 -0.53,0.43 -0.26,1.08 -0.04,1.62 0.32,0.78 0.64,1.69 0.86,2.5 0.06,0.23 0.04,0.3 0.06,0.37 0.04,0.13 0.12,0.14 0.21,0.31 0.07,0.14 0.54,1.32 0.45,1.59 -0.32,0.15 -2.08,-0.57 -2.23,-0.91zm9.57 -10.54c0.04,-0.13 0.31,-0.09 0.47,-0.08 0.15,0.25 0.2,0.32 -0.15,0.32 -0.17,0 -0.37,-0.07 -0.32,-0.24zm6.31 1.96c-0.66,0 -2.78,-0.5 -3.26,-0.73 -0.59,-0.27 -0.86,-0.22 -1.46,-0.55 -0.18,-0.1 -0.38,-0.48 -0.32,-0.63 0.1,-0.25 1.73,-0.11 2.19,-0.19 0.7,-0.11 0.9,0.02 1.32,-0.05 0.68,-0.1 1.03,-0.22 1.15,0.54 0.09,0.63 0.38,0.96 0.38,1.61zm38.95 -2.17c0.24,-0.1 0.6,-0.04 0.91,-0.08 0.16,-0.02 0.35,-0.17 0.44,0 0.09,0.21 -0.39,0.33 -0.54,0.46 -0.12,0.1 -0.15,0.13 -0.28,0.22 -0.58,0.39 -0.59,0 -0.53,-0.6zm5.97 -2.82l0.08 0.05 0.13 1.75 0 0.34c0,0.2 -0.03,0.32 -0.25,0.32l-0.83 -0.03 -2.38 -0.11 3.25 -2.32zm-58.56 0.08c0.7,0.42 2.8,1.4 2.37,2.42 -0.33,0 -0.34,-0.12 -1.25,-0.12 -0.32,0 -0.36,0.13 -0.65,0.1 -0.17,-0.01 -0.5,-0.09 -0.71,-0.12 -0.36,-0.04 -1.23,0.47 -1.23,-0.35 0,-0.38 0.33,-1.97 0.31,-2.09 -0.05,-0.23 0.05,-0.65 0.45,-0.35 0.24,0.19 0.46,0.36 0.71,0.51zm1.42 0.05c-0.26,-0.03 -1.42,-0.94 -1.62,-1.11 -0.58,-0.48 -0.85,-0.75 -0.83,-1.69 0.02,-1.51 0.27,-3.38 0.81,-4.52 0.29,-0.62 1.15,-0.48 1.88,-0.43 0.4,0.02 1.84,-0.16 2.18,0.09 0.23,0.17 1.34,3.33 1.51,3.85 0.31,0.94 2.09,5.22 2.22,5.86 0.1,0.45 -1.59,0.26 -1.95,0.18 -1.1,-0.25 -2.87,-1.11 -3.38,-2.01 -0.21,-0.37 0,-0.22 -0.08,-0.58 -0.05,-0.25 -0.16,-0.15 -0.29,-0.4 -0.15,-0.3 -0.1,-0.69 -0.25,-0.91 -0.43,-0.58 -0.13,-1.72 -0.84,-1.74 -0.07,0.08 -0.12,0.35 -0.12,0.48 0,1.07 0.76,1.89 0.76,2.93zm61.54 -6.63c0.59,-0.04 1.75,0.02 2.4,0.04l0.59 9.06c-0.11,0.04 -2.33,-0.03 -2.78,-0.06 -0.87,-0.05 -1.2,-0.03 -2.05,-0.05l-2.02 -0.03c-0.1,-0.21 -0.17,-1.65 -0.17,-2.04 0,-0.73 -0.08,-0.67 0.53,-1.08 0.32,-0.21 0.69,-0.51 1.04,-0.71 0.41,-0.25 1.79,-1.15 2.06,-1.42 0.96,-1 -2.71,1.49 -2.88,1.61 -0.21,0.13 -0.91,0.8 -0.91,0.14 -0.01,-1.79 -0.28,-3.59 -0.28,-5.44 0,-0.35 3.58,-0.06 4.05,-0.06l0.42 0.04zm3.93 2.03l0 0.58c-0.01,0.72 -0.28,2.64 -0.28,3.39l0.04 2.56c0,0.63 -0.08,0.51 -0.34,0.53l-0.63 -9.01c0.25,-0.09 0.74,0.01 0.78,0.03 0.11,0.11 0.43,1.65 0.43,1.92zm-13.13 -2.34c0.75,0 2.5,0.13 3.38,0.15 0.23,0 0.16,-0.04 0.34,-0.04 0.98,0 0.62,0.25 0.75,1.15 0.07,0.47 0.08,0.92 0.1,1.37 0.02,0.98 0.2,1.94 0.2,2.8 0,1.29 -0.06,0.98 -0.91,1.61 -0.41,0.3 -0.95,0.66 -1.33,0.97 -0.4,0.32 -0.97,0.65 -1.35,0.95 -0.71,0.56 -1.6,0.09 -2.52,0.24l-1.61 -9.3 2.95 0.1zm-44.19 9.19c-0.58,0.05 -0.8,0.01 -1.39,-0.04 -0.15,-0.4 -0.31,-0.85 -0.42,-1.24 -0.06,-0.24 -0.36,-0.75 -0.44,-1.13 -0.13,-0.6 -0.32,-0.58 -0.44,-1.17 -0.11,-0.52 -1.13,-2.58 -1.41,-3.52 -0.12,-0.41 -0.19,-0.94 -0.41,-1.27 -0.21,-0.33 -0.1,-0.29 -0.17,-0.67 -0.1,-0.59 -0.3,-0.04 -0.3,-0.7 0,-0.35 1.04,-0.26 1.3,-0.26l2.38 0.09 0 -0.09 2.02 0.12 2.66 9.76 -0.16 0.12 -0.92 0c-0.75,-0.01 -1.54,0.04 -2.3,0.06l0 -0.06zm8.43 -9.68c0.08,0.05 0.38,0 0.6,-0.02 0.2,-0.02 -0.08,-0.1 0.56,-0.06 0.28,0.02 0.18,-0.03 0.46,0.05 -0.16,0.53 -0.77,0.31 -1.15,0.24 -0.54,-0.09 -0.43,-0.02 -0.47,-0.21zm-6.18 -1.05c0.53,0.14 0.32,0.14 0.49,0.34 -0.09,0.09 0.03,-0.02 -0.08,0.08 -0.12,0.11 -0.08,0.08 -0.2,0.07 -0.46,-0.04 -0.02,-0.05 -0.87,-0.04 -0.5,0 -0.37,-0.08 -0.43,-0.15 -0.12,-0.15 -0.13,-0.06 -0.2,-0.22 -0.05,-0.09 -0.08,-0.22 -0.09,-0.31l-0.04 -0.17c-0.05,-0.12 -0.08,0 -0.03,-0.1 0.05,-0.12 0.2,-0.05 0.28,-0.01 0.15,0.07 0.09,0.06 0.28,0.13l0.89 0.38zm-10.99 0.16c-0.33,0 -0.91,0.44 -0.56,-0.7 0.14,-0.47 0.25,-1.05 0.39,-1.52 0.31,-0.98 0.44,-2.06 0.78,-3.08 0.38,0.22 1.17,2.33 1.36,2.76 0.22,0.48 0.24,1.12 0.55,1.56 0.25,0.35 0.1,0.3 0.2,0.68 0.13,0.46 -0.18,0.42 -0.51,0.42l-0.01 0.12c-0.38,-0.05 -1.76,-0.24 -2.2,-0.24zm51.08 1.01c-1.37,0 -2,-0.6 -0.39,-1.03 0.82,-0.22 1.68,-0.6 2.4,-0.91 0.79,-0.35 1.5,-0.78 2.14,-1.17 0.38,-0.24 0.66,-0.38 1.04,-0.59 0.42,-0.23 0.82,-0.65 0.82,-0.12 0.11,1.12 0.14,2.74 0.19,3.91 -1.01,0.17 -3.53,-0.05 -4.52,-0.11l-1.68 0.02zm14.53 0.33c-0.18,0.15 -0.59,0.22 -0.75,0.1 -0.16,-0.11 -0.11,-0.56 -0.13,-0.86 -0.04,-0.61 -0.16,-1.51 -0.16,-2.05 -0.01,-1.46 -0.16,-2.58 -0.16,-4.13 0.63,0.27 1.18,5.9 1.2,6.94zm-62.29 -5.89c0.49,0.29 1.16,0.87 1.6,1.12 0.39,0.22 1.37,0.92 1.65,1.02 0.47,0.18 1.41,0.82 1.71,0.91 0.66,0.18 0.86,1.05 0.83,1.77l-5.35 -0.11c-0.16,-0.05 -0.54,-0.63 -0.58,-0.81 -0.06,-0.24 -0.01,-0.4 -0.12,-0.55 -0.2,-0.28 -0.08,0.02 -0.16,-0.35 -0.13,-0.61 -1.44,-3.77 -1.18,-3.98 0.31,-0.25 1.33,0.82 1.6,0.98zm-1.65 -1.11c-0.2,0.08 -0.33,-0.03 -0.17,-0.2 0.13,0.05 0.14,0.05 0.17,0.2zm-0.36 -1.76c0,-0.34 1.08,-2.3 1.29,-2.54 0.35,-0.4 2.39,-0.36 3.06,-0.18 0.43,0.12 0.96,2.23 1.06,2.74 0.17,0.83 0.77,1.96 0.99,2.82 0.09,0.37 0.69,1.93 0.62,2.21 -0.02,0.08 -0.14,0.07 -0.24,0.06 -0.2,-0.02 0.02,0.03 -0.26,-0.13 -0.46,-0.29 -0.77,-0.39 -1.23,-0.7 -1.02,-0.7 -2.38,-1.32 -3.35,-2.34 -0.19,-0.21 -1.94,-1.74 -1.94,-1.85l0 -0.09zm55.86 -0.08c0,-0.67 0,-0.65 0.82,-0.58 0.34,0.02 1.12,0.13 1.25,0.13 0.88,-0.04 1.46,0.02 2.35,0.07l0 0.05c0.25,0 0.13,-0.04 0.33,-0.04 1.04,0 0.06,0.58 -0.45,1.09 -0.56,0.54 -3.72,2.95 -4.11,2.91 -0.07,-1.14 -0.19,-2.52 -0.19,-3.63zm0.21 4.35c0,-0.35 2.63,-2.07 3.04,-2.34 0.62,-0.4 2.39,-2.36 2.96,-2.35 0.91,0.01 0.59,0.79 0.69,1.85 0.06,0.72 0.06,1.66 0.13,2.39 0.1,1.13 0.24,4.12 0.2,5.02l-1.35 -0.09c-0.11,0 -0.08,0.04 -0.25,0.04 -0.67,-0.01 -1.74,-0.12 -2.26,-0.12l-0.38 0.02c-0.61,0.01 -1.6,-0.06 -2.3,-0.06 -0.42,0 -0.37,-1.59 -0.36,-2.06 0,-0.8 -0.12,-1.51 -0.12,-2.3zm-7.86 1.35c-0.09,-0.85 -0.56,-5.77 -0.64,-6.18 -0.18,-0.82 0.17,-0.55 0.81,-0.51 0.46,0.03 1.09,0.05 1.6,0.05 0.95,0 1.04,0.13 1.68,0.16l1.51 -0.02 2.36 0.23c0.12,1.09 0.04,2.25 0.19,3.32 0.21,1.53 -0.2,1.35 -1.29,1.99 -0.83,0.5 -3.82,2.22 -4.66,2.32 -1.61,0.21 -1.3,1.02 -1.56,-1.36zm13.96 -6.25c0.05,-0.27 0.21,-0.51 0.49,-0.5 -0.03,0.46 0.02,0.59 -0.49,0.5zm-58.77 -5.6c0.09,0.1 0.92,2.76 1.04,3.12l-2.62 0.01 0.45 -0.19 -0.44 -0.03 1.57 -2.91zm1.65 3.05c-0.18,-0.15 -0.91,-2.43 -0.91,-2.8 0.02,-0.84 -0.74,-0.44 -0.35,-1.25 0.16,-0.33 0.49,-0.86 0.75,-1.1 0.32,-0.3 0.19,-0.52 0.81,-1.03 0.11,-0.09 0.9,-0.77 0.97,-0.87 0.05,-0.05 0.9,-0.94 0.91,-0.95 0.25,-0.14 1.14,0.26 1.37,0.39 0.49,0.28 2.06,0.77 2.79,0.9 0.37,0.07 1.13,0.3 1.47,0.34 0.58,0.06 0.51,0.5 0.65,1.14 0.21,0.98 1.53,5.18 1.33,5.61l0 0.08 -0.98 0.01 -0.07 0.16c0.13,0.09 0.33,0.13 0.5,0.13 0.85,0 0.74,0.09 0.93,0.83 0.1,0.4 0.27,0.85 0.34,1.29 0.13,0.83 0.52,1.87 0.64,2.61 0.09,0.61 1.17,5.25 1,5.38 -0.04,0.15 -0.23,0.17 -0.4,0.17l-0.92 0c-0.38,0 -0.51,-0.18 -0.63,-0.2l-0.71 0.16c-0.89,0.07 -3.44,-0.46 -4.14,-0.96 -0.14,-0.1 -1.29,-0.52 -1.7,-0.77 -0.36,-0.21 -0.64,0.11 -1.18,-1.24 -0.48,-1.2 -0.78,-2.44 -1.19,-3.75 -0.14,-0.48 -0.61,-1.3 -0.68,-1.79 -0.04,-0.28 -0.36,-1.21 -0.3,-1.45 0.03,-0.14 0.17,-0.11 0,-0.4l1.46 -0.21 -0.02 -0.17 -0.78 0.01c-0.1,0 -0.92,-0.23 -0.96,-0.27zm50.69 1.05c0,-0.25 -0.19,-2.12 -0.24,-2.3 -0.16,-0.56 -0.22,-3.62 -0.46,-4.64 -0.33,-1.38 -0.27,-1.43 0.8,-1.43 1.15,0 2.05,0.19 3.39,0.24 1.25,0.06 1.29,1.25 1.77,2.09 0.29,0.51 0.54,2.32 0.83,3.01 0.53,1.24 0.75,2.05 0.75,3.4 0,0.24 -0.98,1.1 -1.22,1.1l-4.77 -0.28c-0.95,-0.02 -0.85,0 -0.85,-1.19zm-2.75 -8.6c0.06,-0.01 0.82,0.05 1.02,0.06 0.53,0.01 0.57,-0.13 0.6,0.4 0.02,0.62 0.18,1.41 0.25,2.08 0.13,1.4 0.22,2.95 0.42,4.33 0.09,0.64 0.16,1.57 0.15,2.19 0,1.14 -0.22,0.57 -1.42,0.63 -0.56,0.03 -3.76,-0.14 -4.23,-0.23 -2.15,-0.38 -2.44,0.81 -2.54,-1.91 -0.02,-0.65 -0.43,-3.65 -0.06,-3.89 0.38,-0.25 1.13,-0.55 1.58,-0.8 0.96,-0.54 4.02,-2.8 4.23,-2.86zm-6.05 3.19c0,-0.67 -0.15,-1.31 -0.19,-2.04 -0.13,-1.96 -0.83,-1.72 4.68,-1.27 1.21,0.1 0.54,0.39 -0.09,0.82 -0.77,0.55 -3.73,2.64 -4.4,2.49zm6.98 -3.32c-1.59,0 0.05,-0.53 0.74,-1.28l2.45 -1.97c0.4,-0.18 0.25,0.11 0.44,0.35 0.23,0.32 0.51,0.64 0.71,1.05 0.23,0.5 1.28,1.85 1.26,2.23l-4.64 -0.32 -0.25 -0.56c-0.44,0.2 0.44,0.5 -0.71,0.5zm-44.87 -2.91c0.16,-0.52 1.29,-1.65 1.78,-1.96 0.79,-0.48 0.55,0.39 0.73,0.76 0.2,0.4 0.37,0.94 0.18,1.35l-0.37 -0.07 -0.02 0.28 0.83 0.28 0.8 2.82c-0.92,0.56 -5.08,-1.45 -5.12,-1.54 0,-0.1 0.73,-1.3 0.85,-1.4 0.27,-0.23 1.36,-0.15 1.86,-0.15 0.16,0 0.16,-0.24 0.03,-0.29 -0.2,-0.07 -0.03,0.03 -0.21,0.21l-0.08 -0.22 -1.26 -0.07zm44.49 2.05c-1.64,1.3 -1.01,0.58 -2.55,0.58l-2.35 -0.21c-0.28,0.08 -0.36,-0.04 -0.58,-0.04 -0.37,0.01 -1.1,0.06 -1.42,-0.03l-1.02 -9.4 -0.04 -0.65c0.58,-0.09 2.42,-0.02 3,0.23 0.7,0.31 1.48,1.15 2.05,1.51 0.98,0.64 3.44,2.3 4.08,3.03 0.52,0.58 1.28,1.04 1.88,1.68 0.53,0.57 0.59,0.52 -0.03,1.01 -0.96,0.75 -2.09,1.55 -3.02,2.29zm-6.12 -10.04l-0.08 0.2c-0.31,0 -0.22,-0.12 -0.53,-0.16l-0.97 -0.06c-0.13,0.01 -0.34,0.24 -0.34,-0.74 0.35,-0.11 1.72,0.54 1.92,0.76zm-4.01 -0.35c0.12,-0.15 1.12,-0.47 1.33,-0.54 0.49,-0.16 0.32,0.08 0.41,0.37 0.08,0.31 -0.04,0.45 -0.39,0.36 -0.25,-0.06 -0.38,-0.01 -0.6,-0.03 -0.29,-0.04 -0.19,-0.21 -0.41,-0.2 -0.26,0.11 -0.07,0.28 -0.34,0.04zm18.75 16.32c-0.22,-0.17 -0.63,-2.97 -1.4,-4.03 -0.24,-0.32 0,-0.31 -0.28,-0.55 -0.47,-0.41 -0.89,-1 -1.16,-1.56 -0.19,-0.39 -0.27,-0.22 -0.41,-0.52 -0.12,-0.25 -0.11,-0.34 -0.3,-0.57 -0.21,-0.26 -0.51,-0.78 -0.71,-1.09 -0.29,-0.44 -0.47,-0.63 -0.78,-1.02 -0.29,-0.37 -3.58,-3.29 -3.83,-3.41 -1.47,-0.63 -3.35,-2.75 -4.15,-3 -0.7,-0.23 -1.63,-0.96 -2.4,-1.24 -0.73,-0.26 -0.58,-0.36 0.12,-0.65 0.83,-0.34 3.08,-1.39 3.65,-1.78 1.04,-0.7 1.37,-0.54 2.43,0.12 1.27,0.78 2.46,2.4 3.89,3.35 0.39,0.26 0.62,0.53 0.98,0.81 0.29,0.23 0.18,0.32 0.42,0.5 0.18,0.15 0.36,0.12 0.6,0.28 0.11,0.07 2.16,1.73 1.53,1.73 -0.26,0 -0.43,-0.06 -0.44,0.34 0.12,0.22 1.09,0.37 1.42,0.49 0.28,0.1 2.35,2.79 2.56,3.09 0.25,0.36 0.46,0.98 0.64,1.24 0.17,0.24 0.25,0.94 0.49,1.39 0.4,0.75 0.54,0.45 0.95,1.85 0.1,0.33 0.25,0.27 0.36,0.57 0.73,1.98 0.7,4.36 1.34,6.19 0.45,1.29 0.31,1.8 0.55,3.07 0.06,0.33 0.43,3.14 0.37,3.24 -0.16,0.35 -0.38,-0.01 -0.47,0.68 -0.18,1.61 -0.07,1.55 0.15,3.34l-1.24 1.02 0.14 0.19 1.17 -0.82c0.06,0.15 0.05,0.68 0.07,0.94 0.05,0.62 0.14,0.39 0.26,0.82 0.09,0.37 -0.24,1.16 -0.24,1.83l-0.16 3.81c-0.01,0.47 0.04,0.69 0.04,0.8l-0.06 1.94c-0.12,0.41 -0.27,0.01 -0.17,0.6 0.06,0.31 0,0.36 -0.1,0.62 -0.2,0.53 -0.23,2.26 -0.29,2.96 -0.1,1.07 -0.24,5.37 -0.94,5.58l-0.01 -0.77 -0.19 -0.08 -0.81 0.99 -0.12 -0.1c-0.33,-0.29 -1.16,-5.75 -1.16,-6.6l0 -0.5c0,-0.02 0.39,-1.43 0.43,-1.52 0.24,-0.54 0.18,-0.91 0.08,-1.64 -0.08,-0.55 -0.06,-3.03 0.02,-3.57 0.17,-1.06 0.27,-2.55 0,-3.57 -0.1,-0.35 -0.05,-0.54 -0.06,-0.88 -0.02,-0.39 -0.33,-0.09 -0.32,-2.46 0,-1.19 -0.38,-2.18 -0.54,-3.35 -0.08,-0.59 -0.3,-0.88 -0.38,-1.51 -0.05,-0.38 -0.2,-1.15 -0.29,-1.62 -0.31,-1.61 -0.33,-1.89 0.59,-2.81 0.2,-0.2 2.06,-1.74 1.95,-1.83l-0.11 -0.12 -2.65 2.28 -0.16 -0.05 -0.61 -5.89c-0.07,-0.56 0.12,-0.64 -0.38,-0.86l0.22 2.74c0,0.21 0.01,0.39 -0.1,0.57zm-22.8 -16.57c-0.45,0 -0.87,-0.12 -1.38,-0.16 -0.55,-0.05 -1.12,-0.01 -1.77,-0.11 -0.53,-0.09 -1.28,-0.21 -1.64,-0.21 -0.49,0 -1.05,0.01 -1.44,-0.09 -1.16,-0.29 -0.67,0.07 -1.16,-0.81 -0.39,-0.7 -0.13,-0.97 0.52,-1.12 1.26,-0.27 2.55,-0.02 3.74,-0.14 1.29,-0.12 6.43,0.29 6.98,1.01 0.42,0.55 0.94,0.46 1.2,0.87 0.16,0.26 -1.06,0.46 -1.35,0.54 -0.61,0.18 -0.94,0.39 -1.63,0.4 -0.3,0.01 -1.28,-0.18 -2.07,-0.18zm-45.19 30.11c0,-0.36 0.32,-0.67 0.32,-0.89 0,-0.31 -0.02,-0.8 0.05,-1.16 0.12,-0.62 0.32,-1.47 0.46,-2.07 0.31,-1.39 0.62,-2.8 1.07,-4.11 0.47,-1.34 0.84,-2.5 1.44,-3.75 0.27,-0.57 0.62,-1.15 0.84,-1.76 0.19,-0.55 0.65,-1.21 0.85,-1.7 0.26,-0.63 0.56,-1.13 0.86,-1.74 0.09,-0.2 0.08,-0.24 0.25,-0.4 0.24,-0.23 0.07,-0.09 0.2,-0.44 0.05,-0.17 0.29,-0.6 0.41,-0.88 0.09,-0.21 0.2,-0.28 0.25,-0.41 0.05,-0.16 0.01,-0.22 0.13,-0.43 0.17,-0.29 0.3,-0.59 0.45,-0.84 0.4,-0.65 0.54,-1.01 1,-1.6 0.13,-0.18 0.24,-0.52 0.48,-0.82 0.2,-0.25 0.35,-0.48 0.55,-0.75 1.71,-2.25 1.96,-2.13 3.85,-3.89 0.88,-0.82 3.04,-3.05 4.03,-3.67 0.26,-0.15 0.52,-0.36 0.79,-0.51 0.36,-0.21 0.76,-0.18 0.99,-0.3 0.22,-0.13 0.36,-0.35 0.77,-0.53 0.31,-0.14 0.58,-0.25 0.91,-0.39 0.61,-0.27 1.27,-0.46 1.87,-0.72 0.71,-0.3 1.14,-0.45 1.87,-0.73 0.5,-0.18 1.49,-0.43 1.92,-0.63l1.85 -0.65c2.4,-0.59 2.07,-0.46 4.45,-0.66 2.33,-0.19 3.61,-1.05 6.63,-1.07 1.37,-0.01 3.1,0.6 4.56,0.6l2.34 -0.04c1.97,-0.02 4.39,0.48 5.76,1.29 0.49,0.29 4.5,1.85 4.59,1.99 -0.21,0.3 -2.44,1.36 -2.89,1.56 -0.27,0.13 -2.15,0.93 -2.38,0.97 -0.49,0.08 -0.38,-0.32 -0.57,-0.39 -0.09,-0.04 -0.39,0.04 -0.58,-0.08 -0.3,-0.18 -1.02,-0.73 -1.41,-0.85 -0.53,-0.17 -1.9,-0.47 -2.48,-0.47 -0.52,-0.07 -2.67,-0.4 -3.01,-0.4l-5.72 0.25 -0.84 -1.82 -0.22 0.07 0.42 1.92c-0.21,0.4 -2.49,0.83 -3.22,0.82 -0.64,0 -1.3,-0.01 -1.85,0.18 -0.37,0.13 -1.18,0.47 -1.54,0.47 -0.82,0 -0.59,0.14 -1.22,0.29 0.13,0.07 0.63,0 0.13,0.23 -0.61,0.27 -1.93,0.36 -2.59,0.36 -0.19,0 -1.06,-0.41 -1.32,-0.2l-0.25 0.3 0.32 0.27c-0.1,0.18 -0.95,0.56 -1.14,0.63 -0.83,0.3 -0.51,0.37 -1.02,0.73 -0.36,0.26 -1.84,1.1 -2.25,1.27 -0.47,0.19 -1.63,1.17 -1.96,1.55 -0.45,0.52 -0.88,0.88 -1.48,1.17 -0.52,0.27 -0.29,0 -0.62,0.01l-3.42 3.42c-0.09,0.19 0.16,-0.05 0.04,0.38 -0.04,0.16 -0.12,0.22 -0.19,0.4 -0.58,1.44 -1.21,-0.24 -2.07,-0.24l-0.33 0c-0.81,0 0.04,0.73 0.26,0.84 0.5,0.25 0.62,0.3 1.07,0.6 -0.01,0.48 -1.76,1.79 -2.17,2.25 -0.66,0.74 -1.19,1.66 -1.69,2.72 -0.47,1.02 -0.93,1.92 -1.44,2.94 -0.19,0.36 -0.29,0.16 -0.5,0.64 -0.37,0.8 -0.4,0.73 -0.82,1.36 -0.23,0.35 -0.14,0.34 -0.32,0.67 -0.31,0.58 -0.34,0.98 -0.57,1.56 -0.2,0.5 -0.34,1.24 -0.52,1.71 -0.13,0.32 -0.3,1.41 -0.39,1.82 -0.13,0.61 -0.35,1.07 -0.47,1.72 -0.09,0.46 -0.39,1.29 -0.58,1.63 -0.17,0.32 -0.32,1.29 -0.39,1.67 -0.09,0.47 -0.38,1.33 -0.44,1.72 -0.08,0.54 -0.09,1.46 -0.26,1.94l-0.77 0.09c-0.35,0.26 0.02,0.79 0.23,0.98 0.38,0.35 0.45,0.37 0.45,1.07 0,1 -0.3,3.06 -0.44,4.14l-0.4 3.69c-0.07,0.71 0,0.95 0,1.63l-0.16 4.39c-0.01,0.62 -0.04,0.37 -0.55,0.2 -0.3,-0.11 -0.47,0.01 -0.68,-0.2 -0.3,-0.3 -0.77,-0.63 -0.74,-1.03 0.08,-1.2 0,-2.22 0,-3.19 0.04,-1.71 0.09,-3.41 0.08,-5.11 0,-0.41 0.12,-0.35 0.17,-0.53 0.05,-0.17 -0.05,-0.27 -0.05,-0.43 0.04,-0.38 0.01,-0.3 0,-0.67 -0.01,-0.41 0.04,-0.6 0.04,-0.67l-0.04 -0.97 0.96 -8.32zm75.48 3.09c0,-0.34 -0.24,-2.88 -0.32,-3.23 -0.15,-0.76 -0.04,-2.49 -0.14,-3.42 -0.12,-1.08 -0.19,-2.19 -0.37,-3.19 -0.16,-0.89 -0.14,-2.11 -0.31,-3.12 -0.18,-0.99 -0.67,-1.62 -0.78,-2.79 -0.06,-0.73 -0.29,-2.37 -0.49,-3.06 -0.13,-0.46 -0.3,-0.99 -0.4,-1.41 -0.1,-0.42 0.22,-0.26 -0.11,-0.59 -0.39,-0.39 -0.56,-1.35 -0.83,-1.8 -0.2,-0.34 0.01,-0.3 -0.29,-0.59 -0.16,-0.15 -0.24,-0.34 -0.34,-0.54 -0.43,-0.81 -0.81,-1.49 -1.32,-2.24 -0.16,-0.24 -1.56,-1.95 -1.57,-1.98 -0.14,-0.45 0.06,-0.05 -0.29,-0.47 -0.27,-0.32 -0.16,-0.19 -0.45,-0.43 -0.27,-0.23 -0.63,-0.62 -0.87,-0.89 -0.31,-0.34 -0.62,-0.54 -0.91,-0.84 -0.48,-0.51 -0.11,-0.46 -0.92,-0.84 -0.39,-0.19 -3.59,-2.88 -3.85,-3.23 -0.22,-0.3 -1.61,-1.46 -1.93,-1.63 -0.24,-0.13 -1.07,-0.44 -1.12,-0.6 -0.07,-0.22 0.78,-0.48 0.84,-0.87 -0.44,-0.11 -0.71,0.41 -1.23,0.58 -0.34,0.11 -1.12,-0.27 -1.46,-0.39 -2.07,-0.75 -3.63,-1.68 -5.49,-2.3 -1.63,-0.54 -2.71,-0.6 -4.34,-0.6 -0.11,0 -0.08,0.04 -0.25,0.04 -1.79,-0.03 -2.32,0.08 -4.4,-0.36 -3.74,-0.8 -4.82,0.25 -7.29,0.59 -0.89,0.12 -1.51,0.17 -2.5,0.25 -0.58,0.04 -0.71,0.08 -1.22,0.06 -0.14,-0.01 -0.78,0.24 -1.05,0.28 -1.65,0.29 -2.8,0.88 -4.27,1.25 -0.77,0.19 -3.38,1.2 -4.06,1.56 -0.08,0.05 -1.99,0.79 -1.99,0.79 -0.58,0.15 -0.64,0.33 -1.01,0.43 -0.83,0.23 -0.35,-0.05 -0.88,0.5 -0.47,0.46 -1.02,0.77 -1.55,1.25 -0.47,0.43 -1,0.91 -1.46,1.35 -0.97,0.95 -1.77,1.84 -2.89,2.72 -1.55,1.24 -2.62,2.95 -3.79,4.54 -0.16,0.22 -1.58,3.12 -1.9,3.71 -0.3,0.56 -0.65,1.26 -0.92,1.88 -0.17,0.4 -0.31,0.36 -0.51,0.91 -0.06,0.17 -0.33,0.78 -0.43,0.95 -0.35,0.56 -0.6,1.3 -0.9,1.9 -0.12,0.24 -0.39,0.71 -0.48,0.95 -0.19,0.56 -0.29,0.28 -0.46,0.92 -0.17,0.66 -0.41,1.46 -0.67,2.05 -0.41,0.91 -1.36,5.25 -1.55,6.68 -0.09,0.65 -0.44,1.51 -0.49,2.17 -0.05,0.7 -0.18,1.79 -0.33,2.46 -0.11,0.54 -0.34,1.9 -0.34,2.36 0.05,0.37 -0.11,1.21 -0.16,1.63l-0.12 2.18c-0.01,0.68 -0.16,1.36 -0.16,2.01l0 2.93c-0.05,0.86 -0.12,1.73 -0.12,2.59l0.04 2.39c0,0.14 -0.04,0.12 -0.04,0.25 0,0.14 0.04,0.15 0.04,0.33l-0.14 2.84 0.14 0.01c-0.04,0.18 0.03,0.32 0.04,0.5l0 2.85c-0.01,0.6 0.01,0.65 0.11,1.26l0.05 -0.01c0,0.99 0.32,1.72 0.32,2.05 0,0.47 0.06,0.56 0.19,1.1 0.08,0.34 0.07,0.6 0.17,0.99 0.16,0.62 0.32,1.48 0.42,2.12 0.15,1 1.12,2.7 1.63,3.45 0.84,1.24 1.94,2.38 3.19,3.16 1.41,0.88 0.68,1.57 1.63,2.14 0.49,0.3 1.15,0.62 1.61,0.95 0.34,0.24 1.25,0.98 1.47,1.08 0.53,0.24 1.06,0.68 1.62,0.9 0.46,0.17 1.17,0.44 1.77,0.61 1.22,0.34 2.41,0.97 3.57,1.48 0.58,0.25 3.66,1.06 3.81,1.19l0.02 0.14 -2.76 0.37c-0.42,0.03 -2.87,0.02 -2.87,0.33l0 0.29c0,0.25 1.63,0.05 2.09,0 0.8,-0.09 1.46,-0.05 2.26,-0.16 0.44,-0.07 0.74,-0.09 1.08,0 0.02,0.01 0.62,-0.15 0.91,-0.16 0.49,0 0.66,-0.11 0.98,-0.16 0.34,-0.06 0.59,0.06 0.99,0.06l-0.01 0.12 4.52 0.34 0.01 -0.14c0.5,0 0.93,-0.1 1.4,-0.09 0.28,0 0.73,0.17 0.74,0.17 0.28,-0.02 1.59,0.19 1.63,0.46l-5.95 0.87c-1.98,0 -4.15,-1.07 -5.98,-0.96 0,0.61 0.92,0.62 1.51,0.67 0.31,0.02 1.37,0.29 1.69,0.39 -0.95,0.14 -1.85,-0.04 -2.78,-0.14 -0.46,-0.05 -0.36,-0.04 -0.59,-0.22 -0.14,-0.11 -0.23,-0.03 -0.57,-0.1 -0.49,-0.1 -0.52,-0.36 -1.23,-0.36 -0.62,0 0.11,0.72 0.39,0.83 0.43,0.18 0.94,0.21 1.38,0.33 0.83,0.21 1.86,0.11 2.29,0.22 0.54,0.14 0.43,0.06 1.18,0.06l0 0.06c0.43,-0.04 0.86,-0.1 1.29,-0.1l5.69 -0.12c1.08,0 2.05,-0.2 3.17,-0.2 0.61,-0.01 0.59,-0.21 1.35,-0.2 0.71,0.01 0.97,-0.04 1.44,-0.19 0.87,-0.26 1.97,-0.32 2.88,-0.52 1.07,-0.24 0.71,-0.29 1.02,0.35 0.35,0.73 0.55,0.62 0.8,1.02l0.66 -0.45c-0.29,-0.41 -1.04,-0.27 -0.99,-1.29 0.22,0 3.64,-0.52 3.98,-0.68 0.52,-0.24 0.53,-0.29 1.17,-0.29 0.27,0 0.7,-0.18 1.04,-0.3 0.4,-0.14 2.01,-0.18 2.94,-0.5 0.4,-0.13 0.64,-0.07 1.09,-0.08 0.4,-0.01 0.51,-0.18 0.88,-0.25 0.6,-0.11 0.38,0 0.88,-0.24 0.29,-0.13 0.56,-0.21 0.91,-0.24 0.7,-0.06 2.74,-0.84 3.46,-1.14 1.29,-0.51 1.72,-1.13 2.85,-1.7 0.43,-0.22 1.22,-0.4 1.71,-0.59 1.52,-0.59 3.28,-1.29 4.34,-2.52 0.78,-0.92 0.73,-0.99 1.63,-1.85 0.49,-0.48 0.36,-0.09 0.69,-0.27 0.37,-0.19 0.92,-0.81 1.25,-1.05 0.28,-0.21 1.23,-0.63 1.23,-1.03 0,-0.61 -0.34,-0.27 -0.6,-0.4l1.1 -2.28 -0.1 -0.07 0.35 -0.14c0.04,-0.31 0.04,-0.66 0.08,-0.87 0.08,-0.35 0.38,-0.28 0.47,-0.5 0.27,-0.63 0.54,-2.73 0.9,-3.08 0.36,-0.35 0.25,-0.13 0.27,-0.66 0.01,-0.19 0.18,-0.49 0.26,-0.7 0.2,-0.51 0.23,-1.09 0.39,-1.62 0.3,-1.01 0.71,-1.96 1,-2.93 0.16,-0.52 0.21,-1.12 0.36,-1.61 0.61,-2.01 0.95,-4.61 1.15,-6.79 0.1,-1.12 0.35,-2.5 0.35,-3.59 0,-0.35 0.11,-0.66 0.07,-0.79 -0.13,-0.44 -0.04,-0.44 0.01,-0.81 0.32,-2.83 -0.07,-2.63 -0.07,-2.96l0 -0.46c0.01,-1.08 0.12,-2.15 0.12,-3.23z"/>
  <path fill="#FBB03B" d="M48.54 52.42c-3.11,2.24 -6.56,3.02 -10.43,2.85 -0.87,-0.04 -5.52,-1.83 -2.25,0.25 1.45,0.92 3.13,1.11 4.8,1.11 1.48,0 3.3,-0.4 4.58,-1.18 2.1,-1.3 1.73,-0.29 3.07,-2.44 0.34,-0.55 -0.1,-0.35 0.23,-0.59zm-13.16 6.44c0.86,1.61 2.82,3.95 4.64,4.38 1.45,0.34 1.93,0.14 3.15,-0.22 2.28,-0.68 2.91,-4.1 2.77,-4.1 -0.99,0 -2.29,3.28 -5.24,3.28 -3.28,0 -3.69,-2.2 -4.93,-3.7 -0.24,-0.28 -0.44,0.26 -0.39,0.36z"/>
  <g id="_2829492344480">
   <g>
    <path fill="#00A9B0" fill-rule="nonzero" d="M60.52 78.75c-0.06,-0.03 -0.11,-0.03 -0.17,0 0.02,0.05 -0.02,0.1 0.1,0.08 0.06,-0.01 0.06,-0.02 0.07,-0.08z"/>
    <path fill="#00A9B0" fill-rule="nonzero" d="M48.19 16.62l-0.01 -0.11 -0.1 0c-0.02,0.11 0,0.11 0.11,0.11z"/>
    <path fill="#00A9B0" fill-rule="nonzero" d="M39.35 30.56l0.13 -0.01c-0.02,-0.1 -0.03,-0.11 -0.12,-0.1l-0.01 0.11z"/>
   </g>
   <g>
    <path fill="#00A9B0" fill-rule="nonzero" d="M28.71 27.89c0.08,0.04 0.11,0.05 0.22,0.03 0,-0.08 -0.03,-0.07 -0.08,-0.11 -0.1,0.02 -0.1,0.01 -0.14,0.08z"/>
    <path fill="#00A9B0" fill-rule="nonzero" d="M18.07 16.5c0.11,0.01 0.07,0.02 0.13,-0.03 0.03,-0.15 -0.16,-0.19 -0.13,0.03z"/>
    <path fill="#00A9B0" fill-rule="nonzero" d="M20.34 18.53l0 0.07c0.16,0 0.08,0.02 0.12,-0.04 -0.04,-0.06 0.04,-0.03 -0.05,-0.05 -0.1,-0.02 -0.07,0.02 -0.07,0.02z"/>
    <path fill="#00A9B0" fill-rule="nonzero" d="M18.7 19.09l0.12 0c-0.03,-0.15 -0.11,-0.13 -0.12,0z"/>
   </g>
   <g>
    <path fill="#00A9B0" fill-rule="nonzero" d="M63.15 13.47c0.13,0.01 0.13,0.03 0.17,-0.06 -0.08,-0.08 -0.08,-0.07 -0.19,-0.05l0.02 0.11z"/>
    <path fill="#00A9B0" fill-rule="nonzero" d="M23.17 83.14c-0.01,-0.16 -0.1,-0.11 -0.12,0.02l0.12 -0.02z"/>
    <path fill="#00A9B0" fill-rule="nonzero" d="M30.89 18.04l0.09 -0.02c-0.02,-0.08 0,-0.06 -0.08,-0.07l-0.01 0.09z"/>
   </g>
   <g>
    <path fill="#00A9B0" fill-rule="nonzero" d="M30.98 32.95c0.01,0.06 0.01,0.07 0.04,0.13 0.04,0.12 -0.01,0.05 0.07,0.09 0.1,-0.09 0.04,-0.08 0.02,-0.24 0.06,-0.1 0.07,-0.05 0.11,-0.17l-0.13 0.01 -0.04 0.09c-0.03,0.06 -0.03,0.05 -0.07,0.09z"/>
    <path fill="#00A9B0" fill-rule="nonzero" d="M63.5 78.7c-0.01,-0.08 -0.06,-0.09 -0.16,-0.08 -0.06,0.09 -0.04,0.14 0.03,0.21 0.08,-0.01 0.14,-0.03 0.13,-0.13z"/>
    <path fill="#00A9B0" fill-rule="nonzero" d="M44.96 17.33c-0.06,0.12 -0.04,0.27 0.09,0.2 0.08,-0.04 0.06,-0.19 -0.09,-0.2z"/>
    <path fill="#00A9B0" fill-rule="nonzero" d="M38.12 24.66l0.17 0.03 0.02 -0.15c-0.16,0 -0.2,-0.02 -0.19,0.12z"/>
    <path fill="#00A9B0" fill-rule="nonzero" d="M24.62 18.14c0.1,0.04 0.16,0.03 0.16,-0.04 0,-0.11 -0.19,-0.15 -0.16,0.04z"/>
    <path fill="#00A9B0" fill-rule="nonzero" d="M19.75 79.32c0.09,0 0.15,0.01 0.15,-0.09 0,-0.07 -0.08,-0.06 -0.15,-0.05l0 0.14z"/>
    <path fill="#00A9B0" fill-rule="nonzero" d="M26.2 42.98c0,0.06 0,0.03 0.01,0.08l0.12 -0.01c0.03,-0.13 0.02,-0.14 -0.12,-0.12 -0.01,0.02 -0.01,0.03 -0.01,0.05z"/>
   </g>
   <g>
    <path fill="#00A9B0" fill-rule="nonzero" d="M41.57 65.89c0.23,0 0.92,-0.11 1.06,-0.18 0.06,-0.04 0.74,-0.6 0.42,-0.6l-0.03 0c-0.45,0 -2.71,0.78 -1.45,0.78z"/>
    <path fill="#00A9B0" fill-rule="nonzero" d="M45.07 72.21c-0.13,0 -0.36,0.02 -0.4,0.18 0,0 0,0.01 0,0.01l0.01 0.06c0.11,0.05 0.42,0 0.53,-0.04 0.16,-0.07 0.24,-0.23 0.39,-0.25 0.36,-0.05 0.23,0.01 0.48,-0.17 0.12,-0.08 0.27,-0.16 0.25,-0.37 -0.1,-0.03 -0.27,0.03 -0.36,0.07 -0.11,0.06 -0.05,0.07 -0.13,0.11 -0.1,0.04 -0.1,-0.02 -0.19,0.05 -0.11,0.1 0.03,0.16 -0.3,0.16 -0.19,0 -0.27,-0.01 -0.28,0.19z"/>
    <path fill="#00A9B0" fill-rule="nonzero" d="M49.46 23.17c0,-0.47 -0.16,-0.34 -0.28,-0.64 -0.09,-0.25 -0.2,-0.06 -0.15,0.15 0.03,0.12 0.06,0.12 0.08,0.27 0.01,0.11 0.05,0.56 0.21,0.44l0.14 -0.22z"/>
    <path fill="#00A9B0" fill-rule="nonzero" d="M45.09 64.56c0.21,0.06 0.28,-0.05 0.38,-0.17 0.11,-0.13 0.25,-0.26 0.25,-0.35 -0.43,-0.02 -0.18,-0.08 -0.17,-0.21 -0.17,-0.04 -0.12,0.05 -0.28,0.31 -0.1,0.16 -0.21,0.21 -0.18,0.42z"/>
   </g>
   <g>
    <path fill="#00A9B0" fill-rule="nonzero" d="M45.61 55.41l0.91 -0.29 -0.01 -0.06 0.28 0.09 -0.04 -0.26c0.24,-0.06 1.04,-0.29 1.22,-0.3l0.23 0.71c-0.11,0.07 -0.15,0.07 -0.29,0.12 -0.05,0.2 0.07,0.18 -0.1,0.5 -0.08,0.16 -0.22,0.3 -0.25,0.4 -0.12,0.47 -0.34,0.42 -0.6,0.71 -0.27,0.32 -0.31,0.29 -0.59,0.73 -0.53,0.86 -0.4,0.54 -0.62,0.47 0.01,0.47 0.04,0 -0.23,0.44 -0.08,0.13 -0.99,1.13 -1.13,1.26 -0.26,0.25 -0.55,0.54 -0.81,0.77 -0.17,0.15 -0.63,0.78 -0.87,0.6 -0.18,0.3 -0.59,0.35 -0.95,0.51 -0.18,0.07 -0.17,0.02 -0.27,0.03 -0.18,0.04 -0.07,0.29 -1.1,0.29 -0.57,0 -1.41,-0.36 -1.69,-0.65 -0.19,-0.2 -0.37,-0.38 -0.58,-0.56 -0.7,-0.61 -1.22,-0.99 -1.77,-1.75 -0.13,-0.17 -0.43,-0.48 -0.51,-0.67 -0.08,-0.2 0.01,-0.71 0.32,-0.71 0.32,0 0.55,0.29 0.74,0.41 0.59,0.37 0.21,0.41 0.38,0.76l0.35 0.24c0.17,-0.17 0.19,-0.6 0.69,-0.42 0.39,0.14 0.35,0.2 0.9,0.29 0.37,0.06 0.74,-0.02 1.05,0.12 0.26,0.11 0.42,0.43 0.72,0.5 0.21,-0.58 -0.14,-0.51 0.67,-0.75 0.38,-0.11 1.04,-0.13 1.04,-0.43 0,-0.47 -1.3,0.16 -1.5,0.16 -0.25,0 -0.8,-0.06 -0.97,0 -0.26,0 -1.38,-0.21 -1.58,-0.3 -0.07,-0.04 -0.51,-0.32 -0.55,-0.39 -0.48,-0.85 -0.43,-0.44 -0.74,-0.44 -0.39,0 -0.78,-0.1 -1.05,-0.28 -0.49,-0.33 -0.12,-0.69 -0.14,-0.89 -0.17,-0.09 -0.95,-0.04 -0.7,-0.72 0.29,-0.13 0.96,0.46 1.21,0.59 0.8,0.43 0.37,0.28 1.06,0.4 0.24,0.04 0.16,0.12 0.37,0.12 1.1,0 2.18,0.41 3.28,-0.07 0.44,-0.19 1.99,-0.31 2.53,-0.37 0.13,-0.02 0.25,-0.06 0.4,-0.08 0.29,-0.06 0.25,0.01 0.21,-0.25 0.1,-0.01 0.43,0.04 0.41,-0.22 -0.02,-0.28 -0.43,0.02 -0.49,0.07 -0.21,0.16 -1.11,0.21 -1.43,0.24l-1.66 0.22c-0.44,0 -0.88,0.33 -1.09,0.35 -0.27,0.03 -0.8,-0.08 -1.32,-0.08 -0.36,0 -1.69,-0.44 -1.97,-0.61 -0.35,-0.21 -0.45,-0.25 -0.78,-0.5 -0.25,-0.19 -0.5,-0.35 -0.76,-0.53 -0.24,-0.17 -2.82,-2.32 -2.82,-2.32 -0.11,0.18 0.16,0.33 -0.11,0.51 -0.3,0.21 0.04,0.4 0.11,0.47 0.09,0.2 -0.09,0.06 0,0.25 0.04,0.09 0.09,0.03 0.15,0.22 0.25,0.75 0.48,0.87 0.74,1.52 0.24,0.6 0.77,1.37 1.05,1.92 0.18,0.35 0.31,0.7 0.49,0.99 0.28,0.46 0.34,0.49 0.65,0.85 0.41,0.48 0.63,1.81 1.17,1.89l0.08 -0.54c0.24,-0.05 0.57,0.46 0.72,0.59 0.33,0.29 1.16,1.03 1.51,1.17 0.06,0.02 1.06,0.24 1.13,0.24l0.81 0c0.9,0 2.03,-0.76 2.55,-1.3 0.33,-0.35 0.69,-0.62 1.04,-0.92 0.37,-0.32 0.19,-0.42 0.36,-0.61 0.19,-0.2 0.65,-0.23 0.69,-0.25 0.04,-0.03 1.03,-1.3 1.15,-1.45 0.38,-0.5 0.96,-0.97 1.22,-1.41 0.2,-0.35 0.28,-0.32 0.46,-0.83 0.13,-0.39 0.33,-0.42 0.45,-0.85 0.19,-0.67 0.35,-1.39 0.39,-2.14 0.03,-0.4 0.09,-0.78 0.11,-1.18 0,-0.21 0.1,-0.37 0.03,-0.52 -0.22,-0.49 -0.5,0.69 -0.8,0.93 -0.17,0.13 -0.47,0.53 -0.64,0.68 -0.27,0.24 -0.41,0.27 -0.7,0.58 -0.15,0.17 -0.54,0.49 -0.77,0.55 -0.18,0.05 -0.53,0.52 -0.69,0.62 -0.36,0.22 -0.1,0.07 -0.21,0.38 -0.07,0.2 -0.26,0.24 -0.15,0.44z"/>
    <path fill="#00A9B0" fill-rule="nonzero" d="M31.63 34.86l-0.02 0.07 -1.08 0.14c-0.22,0.27 0.31,0.16 0.18,0.59 -0.04,0.14 -0.2,0.47 -0.22,0.65 -0.02,0.18 0.06,0.47 0.02,0.76 -0.05,0.29 0.09,0.15 0.05,0.35 -0.02,0.14 -0.1,0.1 -0.06,0.38 0.02,0.16 0.12,0.55 0.16,0.73 0.05,0.27 0,0.58 0.05,0.83 0.1,0.44 0.39,1.13 0.39,1.5 0,0.24 -0.23,0.29 -0.34,0.37 0.03,0.33 0.75,0.38 1.06,0.44 0.4,0.07 0.8,0.22 1.14,0.32 0.23,0.07 0.93,0.11 1.27,0.17 0.25,0.04 0.39,0.06 0.66,0.08 0.18,0.01 0.16,0.05 0.28,0.09 0.17,0.06 0.08,-0.05 0.26,-0.05l0.3 0c0.07,0 1.22,0.17 1.23,0.17 0.17,0.07 0.17,0.26 0.43,0.28 0.27,0.01 0.34,-0.13 0.62,-0.13 0.55,0 0.38,-0.23 0.72,-0.42 0.24,-0.13 0.52,-0.23 0.82,-0.39 0.33,-0.18 0.18,-0.99 0.23,-1.46 0.02,-0.21 0.11,-0.25 0.11,-0.62 0,-0.07 -0.15,-0.24 -0.19,-0.26 -0.17,0.16 -0.1,0.45 -0.16,0.58 -0.07,0.17 -0.14,0.32 -0.22,0.54 -0.11,0.31 -0.26,0.89 -0.46,1.07 -0.14,0.12 -0.29,0.3 -0.39,0.36 -0.21,0.1 -0.34,0.08 -0.54,0.21 -0.09,0.07 -0.45,0.18 -0.56,0.17 -0.42,-0.04 -0.34,-0.02 -0.45,-0.32 -0.24,-0.07 -3.54,-0.57 -3.83,-0.57 -0.64,0.01 -1.13,-0.32 -1.38,-0.76 -0.2,-0.36 -0.1,-0.6 -0.19,-0.94 -0.23,-0.83 -0.27,-0.39 -0.27,-1.29 0,-0.87 -0.34,-0.08 -0.34,-1.26 0,-0.23 0.29,-0.9 0.38,-1.11 0.21,-0.51 0.31,-0.59 1,-0.51 0.64,0.07 1.74,-0.37 2.58,-0.37 0.7,0 2.16,0.12 2.72,0.31 0.47,0.16 0.85,0.04 1.26,0.28 0.32,0.18 0.65,0.42 0.65,0.89l0.21 1.84 -0.06 0.01c0,0.28 0.53,0.2 0.56,0.38l-0.05 0.43c0.09,0.05 0.62,0.21 0.74,0.21l0.91 -0.07c0.14,0 0.12,0.02 0.33,0.02 0.65,-0.01 0.1,-0.45 0.47,-0.62 0.15,-0.07 0.43,-0.07 0.6,-0.13l-0.08 -0.05 0.4 -0.54c-0.01,-0.16 -0.1,-0.24 -0.07,-0.51 0.01,-0.13 0.08,-0.36 0.07,-0.48 0,-0.26 -0.07,-0.46 0.21,-0.57 1.04,-0.43 2.18,0.04 2.79,0.02 0.18,-0.01 0.16,-0.04 0.49,-0.02l2.68 0.12c0.33,0 0.85,0 1.16,0.04 0.34,0.06 0.23,0.14 0.35,0.34 0.17,0.31 0.28,0.69 0.28,1.14 0,0.18 0.08,0.94 0.06,1.07 -0.03,0.27 -0.11,-0.02 -0.09,0.27 0.02,0.4 -0.26,0.87 -0.24,1.34 0.38,0.25 0.33,0.26 0.22,0.75 -0.11,0.47 0.05,0.29 0.05,0.97 0,0.28 -0.18,0.26 -0.39,0.33 -0.2,0.06 -0.23,0.19 -0.38,0.34 -0.18,0.18 -0.27,0.09 -0.46,0.21 -0.07,0.04 -0.59,0.07 -0.72,0.06 -0.29,-0.02 -0.13,-0.06 -0.46,-0.03 -0.2,0 -0.51,-0.19 -0.99,-0.19 -0.53,-0.01 -1.7,-0.07 -2.2,-0.19 -0.26,-0.06 -0.69,-0.02 -1.05,-0.1 -0.65,-0.15 -1.02,-0.61 -1.37,-1.02 -0.45,-0.54 -0.45,-1.43 -0.6,-1.78l-0.38 -0.04c-0.15,0.31 0.06,1.07 0.13,1.39 0.12,0.52 1.16,1.4 1.6,1.72 0.07,0.04 0.52,0.18 0.63,0.21 0.51,0.14 0.26,0.03 0.66,0.03l4.82 0.45 0.01 -0.09 1.12 -0.09 -0.24 -0.52 0.08 -0.09 0.69 0.12 0.18 -1.98c0,-0.82 -0.06,-1.23 0.11,-2.01 0.07,-0.34 -0.55,-2.69 -0.73,-3.04 -0.17,-0.33 -2.8,-0.32 -3.22,-0.3l-0.64 0.03c-0.04,0 -0.2,-0.04 -0.43,-0.03l-1.29 0.03 -1.6 -0.23 -0.01 0.08c-0.37,0 -0.74,-0.05 -1.12,-0.09 -0.05,0.12 0.02,0.28 0.05,0.41 -0.02,0 -0.32,0.43 -0.38,0.56 -0.14,0.28 -0.19,0.33 -0.22,0.69 -0.08,0.85 0.12,1.07 -0.77,1.08 -2.22,0.04 -1.53,-0.09 -1.97,-1.73 -0.11,-0.43 -0.33,-0.92 -0.66,-1.16 -0.62,-0.44 -0.58,-0.25 -1.41,-0.4 -0.24,-0.04 -0.47,-0.16 -0.68,-0.22l-2.38 -0.36c-0.42,0 -1.57,0.02 -1.89,0.12 -0.12,0.03 -0.49,0.29 -0.64,0.31 -0.47,0.06 -0.06,-0.31 -0.66,-0.31z"/>
    <path fill="#00A9B0" fill-rule="nonzero" d="M44.19 72.68c0.02,-0.08 -0.01,-0.04 0.05,-0.09 0,0 0.07,-0.03 0.07,-0.03 0.19,-0.07 0.17,0 0.17,0 -0.05,0.14 -0.15,0.16 -0.29,0.12zm0.88 -0.47c0.01,-0.2 0.09,-0.19 0.28,-0.19 0.33,0 0.19,-0.06 0.3,-0.16 0.09,-0.07 0.09,-0.01 0.19,-0.05 0.08,-0.04 0.02,-0.05 0.13,-0.11 0.09,-0.04 0.26,-0.1 0.36,-0.07 0.02,0.21 -0.13,0.29 -0.25,0.37 -0.25,0.18 -0.12,0.12 -0.48,0.17 -0.15,0.02 -0.23,0.18 -0.39,0.25 -0.11,0.04 -0.42,0.09 -0.53,0.04l-0.01 -0.06c0,0 0,-0.01 0,-0.01 0.04,-0.16 0.27,-0.18 0.4,-0.18zm7.09 -2.66c0.34,-0.16 0.66,0.07 1.03,-0.15 0.39,-0.23 0.6,-0.13 1,-0.28l0.07 -0.23 0.38 -0.13 -0.05 -0.14 -1.75 0.63c-0.01,-0.01 -0.35,-0.27 -0.37,-0.29 -0.36,-0.3 -0.53,-1.22 -0.72,-1.26 -0.17,0.54 0.6,1.33 0.45,1.46 -0.4,0.36 -0.87,0.35 -1.36,0.72l-0.22 -0.15c-0.04,0.04 -0.04,0.16 -0.05,0.22l-0.05 -0.05 -3.29 1.51c-0.35,-0.09 -0.21,-0.33 -0.68,-0.18 -0.62,0.21 0.15,0.09 -0.52,0.34 -0.33,0.12 -0.45,0.08 -0.72,0.25 -0.28,0.17 -0.25,-0.16 -0.68,0.27l-0.02 -0.06 -1.28 0.34 -0.03 -0.08c-0.13,0.33 -0.22,0.26 -0.62,0.35 -0.25,0.05 -0.29,0.2 -0.62,0.35 -0.26,0.11 -0.49,0.14 -0.7,0.24 -0.88,0.43 -1.52,0.31 -2.4,0.07 -0.23,-0.06 -1.15,-0.5 -1.33,-0.6 -0.2,-0.12 -0.41,-0.33 -0.6,-0.35 -0.24,-0.04 -1.39,-0.86 -1.84,-1.08 -0.36,-0.19 -0.32,-0.29 -0.16,-0.62 0.07,-0.15 0.16,-0.52 0.24,-0.72 0.11,-0.26 0.56,-1.41 0.01,-1.38l-0.49 0.56c0,0.61 -0.25,0.64 -0.69,0.88 -0.32,0.17 -0.21,-0.08 -0.51,0.21 -0.17,0.16 -0.29,0.09 -0.54,-0.01l-0.43 0.14c-0.15,0.29 -0.05,0.58 0.24,0.18 0.11,-0.01 0.57,0.03 0.63,0.07 0.16,0.12 0.35,-0.01 0.53,0.2 0.16,0.19 0.09,0.26 0.31,0.46 0.14,0.13 0.27,0.25 0.4,0.38 0.21,0.21 1.67,0.97 2.01,1.11 0.66,0.27 3.83,2.04 4.15,2.01 0.21,-0.39 -0.17,-0.35 0.5,-0.54 0.26,-0.08 0.58,-0.16 0.83,-0.22 0.23,-0.06 1.44,-0.52 1.53,-0.53 0.35,-0.03 1.1,-0.38 1.46,-0.56 0.16,-0.08 0.31,-0.08 0.38,-0.16 0.18,-0.2 0.11,-0.07 0.29,-0.22 0.24,-0.2 0.13,0.02 0.32,-0.02 0.13,-0.04 0.08,-0.2 0.19,-0.33l0.27 0.07c0.22,-0.17 0.06,-0.26 0.4,-0.32 0.26,-0.05 0.23,-0.12 0.47,-0.24 0.23,-0.11 0.32,-0.04 0.46,-0.23 0.11,-0.13 0.31,-0.17 0.48,-0.22 0.19,-0.06 0.71,-0.34 0.94,-0.45 0.18,-0.08 0.37,-0.06 0.55,-0.15 0.37,-0.19 0.14,0.01 0.41,-0.29 0.12,-0.04 0.11,0.06 0.25,-0.04 0.11,-0.07 0.02,-0.08 0.16,-0.16 0.2,-0.11 0.19,0 0.47,-0.2 0.41,-0.28 0.54,-0.2 0.91,-0.38z"/>
    <path fill="#00A9B0" fill-rule="nonzero" d="M33.23 28.88c0.11,-0.28 0.38,0.03 0.52,-0.18 0.06,-0.1 0.03,-0.16 0.23,-0.14 0.13,0.02 0.44,0.23 0.21,0.36 -0.09,0.05 -0.23,0.04 -0.34,0.03 -0.24,0 -0.45,0.09 -0.62,-0.07zm3.25 -0.54c-0.56,0 -0.62,-0.16 -1.26,-0.12l-1.06 0.13 -0.01 -0.08c-0.19,0.07 -0.05,0.14 -0.27,0.12 -0.17,-0.01 -0.17,0.02 -0.36,0.05 -0.33,0.05 -0.44,0.15 -0.71,0.15 -0.16,0 -0.17,0.11 -0.23,0.19 -0.23,0.01 -0.28,-0.21 -0.28,0.26 0,0.12 0.42,0.28 0.54,0.3 0.31,0.04 0.47,0.02 0.78,-0.03 0.23,-0.03 0.57,-0.02 0.82,-0.04 0.38,-0.03 0.47,0.08 0.75,0.08 0.83,0 0.38,0 1.12,-0.11 0.3,-0.04 0.34,0.06 0.58,0.04 0.17,-0.01 1.16,-0.05 1.19,-0.06 0.25,-0.08 0.7,0.14 1.16,-0.03 0.01,-0.01 0.43,0 0.48,0.04 0.1,0.07 0.25,0.26 0.35,0.37 0.27,0.27 0.36,0.5 0.53,0.87 0.13,0.28 0.4,0.61 0.55,0.87 0.13,0.22 0.43,0.7 0.64,0.77 0.63,0.19 0.53,0.41 1.2,0.41 0.18,0 0.27,-0.18 0.45,-0.32 0.14,-0.11 0.08,-0.12 0.16,-0.25 0.12,-0.16 0.15,-0.05 0.24,-0.16 0.11,-0.13 -0.01,-0.24 0.41,-0.58 0.3,-0.23 0.26,-0.32 0.53,-0.54 0.36,-0.29 0.37,-0.07 0.73,-0.18 0.12,-0.04 1.02,-0.14 1.29,-0.12l4.09 0.66 0.01 -0.07c0.64,0 2.19,0.5 2.39,0.34 -0.02,-0.12 -0.62,-0.37 -0.73,-0.39 -0.46,-0.07 -0.31,-0.15 -0.89,-0.23 -0.66,-0.1 -1.32,-0.2 -1.93,-0.3 -1.31,-0.21 -2.6,-0.57 -3.98,-0.57 -0.19,0 -0.3,0.32 -0.37,0.46 -0.21,-0.01 -0.07,-0.13 -0.36,-0.08l-0.77 0.19c-0.34,0.23 -0.11,0.04 -0.35,0.06l0.04 0.04 -1.05 1.04 -0.2 0.39c-0.33,0.12 -1.14,-0.78 -1.07,-0.94l0.66 0.25 0.17 -0.27c-0.31,-0.2 -0.77,-0.22 -1.18,-0.65 -0.19,-0.2 -0.82,-0.74 -0.75,-1.03l0.36 -0.01c0.02,-0.38 -0.26,-0.11 -0.51,-0.29 -0.08,-0.06 -0.41,-0.01 -0.63,-0.01l0 -0.04c-0.17,-0.01 -1.59,-0.09 -1.77,-0.04 -0.4,0 -0.33,-0.22 -0.42,-0.46l-0.53 0.08c-0.02,-0.17 0.1,-0.47 -0.15,-0.35 -0.26,0.11 0.11,0.19 -0.4,0.19z"/>
    <path fill="#00A9B0" fill-rule="nonzero" d="M28.57 17.84l-2.04 0.13c-0.37,0 -0.29,0.07 -0.75,0.07 -0.01,0 -0.38,0.17 -0.48,0.2 -0.23,0.08 -0.3,0.04 -0.55,0.08 -0.22,0.04 -0.37,0.04 -0.57,0.08 -0.32,0.06 -0.11,0.23 -0.49,0.23 -0.25,0 -0.16,-0.14 -0.39,0.02 -0.14,0.09 -0.24,0.1 -0.44,0.09 -0.23,-0.01 -0.15,0.05 -0.36,0.1 -0.27,0.07 -0.22,-0.03 -0.42,-0.04 -0.13,0.16 0.09,0.16 -0.31,0.25 -0.18,0.04 -0.3,0.09 -0.51,0.09 0.05,0.57 0.21,0.66 0.74,0.66 1.15,0 0.51,-0.51 2.77,-0.02 0.51,0.11 0.43,0.17 0.72,0.38l0.88 0.04c0.06,0.03 0.34,0.46 0.34,-0.01 -0.1,-0.25 -1.35,-0.38 -1.15,-0.77l0.3 -0.16c0.19,0.09 -0.13,0.15 0.4,0.15l0.01 -0.06 1.04 0.16c1.05,0 1.06,0.27 1.42,0.27 0.14,0 1.23,0.25 1.39,0.31 0.68,0.26 0.61,-0.27 1.26,0.3 0.39,0.34 1.24,0.79 1.52,1.1 0.04,0.05 0.17,0.18 0.22,0.21 0.12,0.07 0.24,0.03 0.26,0.21l-0.33 0.2c0.01,0.29 0.4,0.44 0.65,0.49 0.5,0.09 0.41,0.29 0.43,0.66l0.03 -0.06 1.4 0.53 0.16 -0.32c-0.45,-0.22 -0.62,-0.13 -0.8,-0.48 -0.15,-0.32 -0.93,-1.02 -1.24,-1.26 -0.17,-0.12 -0.06,-0.18 -0.34,-0.28 -0.38,-0.12 -0.19,-0.09 -0.35,-0.28l-1 -0.56 -0.03 0.06c-0.12,-0.42 -0.17,-0.15 -0.39,-0.33 -0.14,-0.11 -0.26,-0.25 -0.45,-0.31 -0.13,-0.05 -0.13,-0.04 -0.26,-0.06 -0.24,-0.03 -0.06,-0.04 -0.19,-0.16 -0.09,-0.09 -0.14,-0.02 -0.28,-0.1 -0.16,-0.09 -0.02,-0.12 -0.19,-0.19 -0.49,0 -0.23,0.1 -0.81,-0.06 -0.5,-0.14 -0.38,0.04 -0.68,-0.31l-0.01 0.04c-0.14,-0.03 -0.64,-0.19 -0.75,-0.14 0,0.17 0.02,0.13 -0.04,0.22l-1.18 -0.22 -0.08 0.14c-0.51,0.18 -0.41,-0.19 -0.79,-0.16 -0.08,0.01 -0.6,0.09 -0.64,-0.09 0.01,-0.28 0.52,-0.32 0.73,-0.37 0.46,-0.11 0.81,-0.23 1.22,-0.2l1.02 -0.02c0.45,0 0.5,0.08 0.7,0.07l0.99 -0.05c0.11,0 0.24,-0.04 0.49,-0.02l0.46 0.07c0.01,-0.08 -0.34,-0.45 -0.34,-0.45 -0.13,-0.07 -0.17,-0.03 -0.34,-0.04 -0.23,-0.01 -0.08,-0.05 -0.24,-0.12l-0.01 0.07 -0.65 -0.08 -0.68 0.1z"/>
    <path fill="#00A9B0" fill-rule="nonzero" d="M17.6 76.58l0 1.23c0.13,-0.01 0.6,-0.61 0.7,-0.7 0.11,-0.1 0.31,-0.18 0.39,-0.3 0.16,-0.25 0.18,-0.18 0.32,-0.34 0.25,-0.28 0.36,-0.49 0.69,-0.68 0.41,-0.24 0.44,-0.26 0.67,-0.71 0.21,-0.43 1.24,-1.38 1.27,-1.46 0.15,-0.35 0.42,-0.39 0.68,-0.69 0.49,-0.58 0.63,0 0.83,0.01l0.07 -0.03 -0.22 -0.41c0.13,-0.56 0.4,-0.53 1.01,-0.58 0.09,-0.01 0.7,-0.05 0.7,-0.06 0.11,-0.04 0.46,-0.18 0.61,-0.1 0.07,0.17 -0.01,0.37 -0.17,0.42 -0.35,0.1 -0.16,-0.02 -0.48,0.15 -0.06,0.03 -0.98,0.11 -1.09,0.08l0.02 0.05c-0.09,0.03 -0.33,0.09 -0.39,0.14l0.08 0.2c0.26,0.12 0.02,-0.12 0.32,-0.01 0.27,0.1 -0.08,-0.1 0.34,-0.09 0.3,0 0.22,-0.03 0.44,-0.09 0.31,-0.09 0.16,0.09 0.35,0.11l0.06 -0.29c0.45,0.18 0.63,-0.02 0.9,-0.19 0.65,0.25 0.53,-0.06 0.75,-0.12 0.37,-0.1 0.49,-0.02 0.83,-0.18 0.24,-0.12 -0.08,-0.12 0.34,-0.2 0.22,-0.05 0.11,-0.11 0.39,-0.15 0.22,-0.02 0.77,-0.07 0.93,-0.01 0.04,-0.01 0.19,-0.24 0.65,-0.25 0.34,0 0.66,-0.1 0.8,-0.1 0.61,-0.02 0.84,0.17 1.56,-0.01 0.51,-0.12 0.72,-0.98 -0.07,-0.66 -0.45,0.19 -1.03,0.18 -1.53,0.29 -0.48,0.1 -1.06,0.11 -1.57,0.2 -0.16,0.03 -0.65,0.06 -0.72,0.03 -0.24,-0.09 -0.47,0.09 -0.69,0.18 -0.19,0.07 -0.22,-0.02 -0.34,-0.03 -0.17,-0.01 -0.08,0.12 -0.3,0.1 -0.21,-0.01 -0.71,-0.06 -0.83,0.01 -0.2,0.11 -0.92,0.12 -1.2,0.13 -0.23,0 -0.1,0.09 -0.29,0.11 -0.38,-0.23 -0.22,-0.8 -0.94,-0.4 -0.15,0.09 -0.39,0.22 -0.54,0.27 -0.07,0.02 -0.63,0.15 -0.63,0.15 -0.03,0.2 0.2,0.1 0.06,0.48 -0.07,0.19 -0.06,0.08 -0.16,0.17 -0.1,0.08 -0.02,0.04 -0.11,0.18 0,0.01 -0.58,0.55 -0.64,0.6 -0.4,0.29 -0.9,0.9 -1.26,1.2 -0.14,0.11 -0.18,0.22 -0.29,0.33 -0.14,0.14 -0.29,0.13 -0.36,0.26 -0.13,0.23 -0.43,0.38 -0.64,0.59 -0.25,0.27 -0.25,0.39 -0.6,0.63 -0.14,0.1 -0.68,0.53 -0.7,0.54z"/>
    <path fill="#00A9B0" fill-rule="nonzero" d="M38.14 51.54c0.27,0.01 0.52,0.74 0.67,0.99 0.05,0.1 0.17,0.48 0.22,0.6 0.1,0.24 0.13,0.09 0.22,0.19 0.07,0.06 0,0.08 0.19,0.24 0.35,0.3 0.2,0.47 0.74,0.92 0.04,0.03 0.52,0.23 0.61,0.23 0.25,-0.01 0.45,-0.08 0.78,-0.08 0.01,0 0.23,-0.32 0.37,-0.4 0.21,-0.14 0.47,-0.1 0.55,-0.19 0.18,-0.19 -0.01,-0.19 0.35,-0.4 0.19,-0.11 0.26,-0.24 0.39,-0.39 0.43,-0.5 0.25,-0.44 0.52,-0.99 0.08,-0.17 0.2,-0.34 0.27,-0.48 0.12,-0.24 0.03,-0.24 0.23,-0.53 0.32,-0.01 1.03,0.07 1.22,-0.11 0.4,-0.38 0.13,-0.57 0.78,-0.64l-0.16 -1.54c0,-0.18 -0.46,-0.26 -0.48,-0.25 -0.02,0.16 0.09,0.36 0.05,0.72 -0.03,0.28 0.03,0.62 -0.09,0.81 -0.51,0.84 -0.4,0.33 -1.3,0.53 -0.48,0.1 -0.47,0.58 -0.95,0.88 -0.34,0.22 -0.2,0.25 -0.4,0.51 -0.08,0.11 -0.15,0.12 -0.21,0.25 -0.06,0.14 -0.02,0.27 -0.1,0.35 -0.09,0.1 -0.11,0.02 -0.23,0.07l-0.54 0.4c-0.17,0.13 -0.61,0.38 -0.88,0.38 -0.31,0 -0.59,-0.37 -0.77,-0.53 -0.35,-0.33 -0.24,-0.47 -0.76,-0.4l-0.84 -1.65c-0.07,0.04 -0.77,0.07 -1,-0.16 -0.56,-0.56 -0.48,-0.58 -0.48,-1.1 0,-0.33 0.2,-0.46 0.27,-0.69 0.01,-0.02 0.13,-0.83 0.11,-0.91 -0.38,-0.03 -0.3,-0.3 -0.77,0.66 -0.15,0.3 -0.2,0.97 -0.13,1.26 0.12,0.57 0.06,0.66 0.48,1.01 0.41,0.35 0.28,0.44 1.07,0.44z"/>
    <path fill="#00A9B0" fill-rule="nonzero" d="M49.11 22.95c-0.02,-0.15 -0.05,-0.15 -0.08,-0.27 -0.05,-0.21 0.06,-0.4 0.15,-0.15 0.12,0.3 0.28,0.17 0.28,0.64l-0.14 0.22c-0.16,0.12 -0.2,-0.33 -0.21,-0.44zm-3.36 -5.62c0.32,0.02 0.27,0.34 0.46,0.47 0.19,0.14 0.3,0.31 0.49,0.48 0.15,0.15 0.76,1.01 0.66,1.15 -0.2,0.06 -0.89,-0.73 -1.08,-0.87 -0.17,-0.13 0.13,-0.24 -0.5,-0.46 -0.23,-0.08 -0.23,-0.5 -0.56,-0.41 -0.01,0.23 0.53,0.62 0.61,0.74 0.29,0.4 0.18,0.42 0.61,0.73 0.3,0.21 0.45,0.41 0.72,0.62 0.35,0.29 0.45,0.19 0.77,0.57 0.2,0.24 0.75,1.58 0.75,1.93 0,0.21 0.19,0.79 0.24,1.11 0.02,0.2 -0.01,0.46 0.02,0.59 0.03,0.19 0.1,0.28 0.13,0.57 0.3,0.07 1.17,0.29 1.07,0.63 -0.1,-0.01 -0.44,0 -0.5,-0.06 -0.49,0 0.36,0.43 0.46,0.46 0.38,0.11 0.55,0.12 0.92,0.26 0.35,0.13 1.47,0.58 1.31,1.01l-0.64 -0.07 -0.01 0.09c0.2,0.24 0.76,0.18 1.09,0.31 0.53,0.21 0.48,0.35 0.85,0.59 0.37,0.24 0.53,0.32 0.69,0.76 0.06,0.19 0.13,0.31 0.2,0.52 0.05,0.15 0.06,0.13 0.2,0.17 0.31,0.11 -0.05,0.06 0.16,0.17l0.2 -0.02c0.02,0.56 0.3,0.55 0.3,0.21 0,-0.08 -0.07,-0.09 -0.1,-0.19 -0.06,-0.2 0.07,-0.07 0,-0.19 -0.02,-0.01 -0.67,-0.27 -0.1,-0.27 0.28,0 0.55,0.34 0.8,0.34 0.14,0 0.06,-0.2 0.04,-0.27 -0.06,-0.08 -0.16,-0.01 -0.3,-0.15 -0.08,-0.08 -0.13,-0.17 -0.21,-0.25 -0.15,-0.18 -0.3,-0.3 -0.45,-0.46 -0.47,-0.5 -1.4,-0.96 -1.6,-1.17 -0.31,-0.32 -0.16,-0.12 -0.55,-0.3 -0.19,-0.09 -0.9,-0.68 -1.01,-0.84 -0.2,-0.31 -0.76,-0.53 -1.07,-0.75 -0.06,-0.04 -0.45,-0.36 -0.5,-0.42 -0.23,-0.31 -0.41,0.04 -0.56,-0.37 -0.2,-0.55 0.03,-1.15 -0.14,-1.59 -0.15,-0.4 -0.53,-0.83 -0.63,-1.22 -0.09,-0.37 -0.17,-0.32 -0.32,-0.58 -0.08,-0.14 -0.05,-0.25 -0.1,-0.35 -0.07,-0.12 -0.22,-0.06 -0.35,-0.57 -0.07,-0.26 -0.08,-0.04 -0.22,-0.24 -0.09,-0.15 -0.24,-0.44 -0.34,-0.6 -0.04,-0.07 -0.33,-0.55 -0.35,-0.56 -0.25,-0.18 -0.23,-0.27 -0.4,-0.51 -0.12,-0.16 -0.16,-0.04 -0.22,-0.22 -0.08,-0.22 0.01,-0.12 -0.2,-0.27 -0.35,-0.27 -0.12,-0.31 -0.44,-0.5 -0.06,-0.04 -1.04,-1.34 -1.2,-1.53 -0.42,-0.49 -0.14,-0.26 -0.46,-0.05 -0.55,0.37 0,0.26 0.13,0.3 0.25,0.07 0.25,0.3 0.46,0.44 0.18,0.12 0.77,0.81 0.77,1.09z"/>
    <path fill="#00A9B0" fill-rule="nonzero" d="M48.76 68.06c0.08,-0.03 0.25,-0.35 0.52,-0.45 0.45,-0.18 0.23,-0.17 0.52,-0.42 0.03,-0.02 0.57,-0.36 0.58,-0.36 0.64,-0.19 0.23,-0.09 0.58,-0.35 0.26,-0.19 0.32,-0.24 0.57,0.04 0.13,0.14 0.33,0.34 0.42,0.51 0.1,0.2 0.52,1.15 0.7,1.18 0.09,-0.02 0.25,-0.3 0.25,-0.4 0,-0.11 -0.7,-1.1 -0.79,-1.18 -0.16,-0.15 -0.06,-0.18 -0.22,-0.29 -0.44,-0.33 -0.35,-0.7 -0.79,-0.57l-0.02 0.28 -1.79 1.23c-0.22,-0.01 -0.17,-0.14 -0.38,0.09 -0.13,0.16 -0.19,0.1 -0.36,0.21 -0.26,0.17 -0.46,0.29 -0.82,0.29 -0.27,0.39 -0.58,0.22 -0.89,0.44 -0.21,0.16 -0.98,0.27 -1.01,0.3 -0.25,0.18 -0.68,0.22 -1.02,0.38 -0.17,0.07 -0.83,0.1 -1.09,0.1 -0.17,0 -0.24,0.3 -0.95,0.21 -0.2,-0.03 0.06,0.04 -0.24,0.11 -0.23,0.06 -0.52,0.02 -0.78,0.06 -0.52,0.07 -0.71,0.11 -1.38,0.13 -2.16,0.09 -2.28,-0.33 -2.85,-0.34l-1.01 0.02 0 0.09c0.06,0.14 0.43,0.4 0.59,0.4l0.24 -0.02c0.44,-0.03 1.26,0.65 2.62,0.71 0.19,0.01 0.31,0.07 0.47,0.09 0.26,0.03 0.34,0.09 0.42,0.1l-0.02 -0.07 3.3 -0.86 0.02 0.05c0.18,-0.1 -0.03,-0.14 0.3,-0.17 0.17,-0.02 0.11,-0.07 0.32,-0.15 0.29,-0.11 1.34,-0.4 1.46,-0.47 0.53,-0.28 0.15,-0.13 0.66,-0.14 0.18,-0.37 0.25,-0.21 0.66,-0.37 0.18,-0.07 0.58,-0.13 0.79,-0.2l0.16 -0.27 0.26 0.06z"/>
    <path fill="#00A9B0" fill-rule="nonzero" d="M35.55 15.58c0.01,0.21 0.59,0.57 0.73,0.62 0.32,0.12 0.81,0.18 1.07,0.33 0.23,0.13 0.65,0.4 0.79,0.58 0.09,0.13 0.3,0.14 0.36,0.34 0.12,0.36 -0.07,0.14 0.24,0.45 0.19,0.18 0.13,0.25 0.25,0.43 0.08,0.12 0.24,0.22 0.31,0.38 0.17,0.4 1.69,2.15 1.95,2.21l0.14 -0.21c-0.21,-0.23 -0.45,-0.36 -0.62,-0.65 -0.08,-0.13 -0.49,-0.5 -0.62,-0.67 -0.05,-0.06 -0.05,-0.12 -0.1,-0.2 -0.11,-0.19 -0.05,-0.02 -0.18,-0.14 -0.05,-0.06 -0.11,-0.22 -0.27,-0.38 -0.07,-0.07 -0.44,-0.66 -0.48,-0.8 -0.07,-0.27 -0.21,-0.15 -0.32,-0.3 -0.17,-0.23 0.23,-0.55 1.11,0.18 0.31,0.25 0.85,0.61 1.07,0.86 0.22,0.25 0.22,0.12 0.38,0.27l-0.05 0.21c0.3,0.01 0.05,-0.14 0.37,0.08 0.36,0.24 0.25,0.45 0.83,0.87 0.16,0.11 0.21,0.1 0.29,0.26 0.17,0.32 0.06,0.08 0.33,0.24 0.15,0.08 0.42,0.44 0.56,0.59 0.26,0.29 2.1,2.04 2.44,2.11 0.34,-0.07 0.41,-0.97 0.18,-1.24 -0.15,-0.17 -0.19,-0.47 -0.29,-0.57 -0.07,-0.07 -0.4,-0.4 -0.45,-0.4l0.68 1.56c-0.33,0.15 -0.97,-0.47 -1.11,-0.63 -0.14,-0.14 -0.32,-0.2 -0.51,-0.38 -0.17,-0.17 -0.26,-0.26 -0.46,-0.42 -0.19,-0.16 -0.74,-0.79 -0.88,-0.89 -0.15,-0.09 -0.14,0.01 -0.28,-0.15 -0.07,-0.07 -0.13,-0.19 -0.21,-0.25 -0.13,-0.1 -0.47,-0.24 -0.39,-0.46 0.32,-0.27 1.44,0.92 1.71,0.72 0.19,-0.17 -0.4,-0.52 -0.56,-0.55 -0.1,-0.02 -1.19,-0.77 -1.54,-0.94 -0.17,-0.08 -0.26,-0.15 -0.39,-0.23 -0.28,-0.15 -0.14,0.07 -0.35,-0.28 -0.12,0.05 -0.11,0.2 -0.37,-0.07 -0.19,-0.2 0.09,-0.16 -0.33,-0.33 -0.48,-0.2 -0.44,-0.16 -0.72,-0.59 -0.33,0.02 -0.25,0.01 -0.46,-0.22 -0.12,-0.12 -0.54,-0.27 -0.83,-0.64 -0.24,-0.29 -0.38,-0.13 -0.29,-0.36l-0.05 0.05 -0.66 -0.56c-0.4,0.48 0.42,0.54 0.49,0.9l-0.16 0.02c-0.14,0 -0.79,-0.29 -0.91,-0.36 -0.26,-0.15 -0.69,-0.22 -0.59,-0.61l0.97 0.31c0.03,-0.17 -0.07,-0.38 -0.26,-0.4 -0.32,-0.03 -0.22,0.31 -0.22,-0.16l-0.66 -0.08c0.02,0.2 0.26,0.07 0.17,0.25 -0.05,0.12 -0.07,-0.1 -0.29,-0.02 -0.1,0.04 -0.55,0.28 -0.56,0.32z"/>
    <path fill="#00A9B0" fill-rule="nonzero" d="M63.27 78.16l0.1 -0.05 -0.28 -0.87c-0.46,-0.01 -0.58,-0.4 -0.3,-0.44 0,-0.47 -0.77,-1.52 -0.95,-2.1 -0.23,-0.73 -0.73,-1.35 -1.05,-2.03 -0.11,-0.25 -0.17,-0.18 -0.27,-0.51 -0.03,-0.1 -0.21,-0.25 -0.31,-0.46 -0.1,-0.21 -0.4,-0.86 -0.51,-1.02 -0.44,-0.62 -0.75,-1.32 -1.24,-1.84 -0.16,-0.17 -0.15,-0.29 -0.3,-0.48 -0.12,-0.14 -0.16,-0.11 -0.21,-0.2 -0.06,-0.09 -0.03,-0.19 -0.17,-0.21 -0.37,-0.05 0.07,0.35 0.09,0.38 0.12,0.24 0.15,0.26 0.29,0.46 0.07,0.11 0.06,0.21 0.12,0.28 0.08,0.11 0.1,0.03 0.19,0.19 0.09,0.16 0.21,0.34 0.27,0.51 0.06,0.2 0.44,0.77 0.54,0.98 0.31,0.64 0.75,1.26 1.13,1.95 0.08,0.15 0.92,2.12 0.92,2.14 0,0.38 -0.27,0.11 -0.14,0.57 0.04,0.17 0.53,1.4 0.61,1.48 0.21,0.22 1,1.76 1.04,1.77l0.07 -0.02c-0.04,-0.16 -0.21,-0.72 -0.15,-0.84l0.51 0.36z"/>
    <path fill="#00A9B0" fill-rule="nonzero" d="M28.66 29.07c-0.13,0.29 -0.09,0.05 -0.17,0.5 -0.04,0.21 -0.1,0.35 -0.12,0.6 -0.05,0.74 -0.26,1.74 -0.2,2.47l-0.03 0.93c-0.04,0.24 -0.08,0.01 -0.11,0.24 0.04,0.23 0.31,0.29 0.11,0.56 -0.47,0.68 -0.31,0.37 -0.34,0.79 -0.01,0.19 -0.03,-0.01 -0.13,0.24 -0.06,0.13 -0.12,0.21 -0.14,0.27 -0.04,0.12 0,0.26 -0.03,0.37l-0.24 0.3 0.37 0.07c0.25,-0.17 0.05,-0.45 0.2,-0.71 0.06,-0.09 0.16,-0.16 0.2,-0.25 0.06,-0.16 -0.01,-0.23 0.11,-0.37 0.24,-0.3 0.01,-0.38 0.37,-0.55 0.22,-0.09 0.35,-0.03 0.71,-0.19l-0.02 0.54 0.36 -0.15 -0.62 -0.82 0.06 -0.05c-0.13,0.08 -0.02,0.25 -0.3,0.12 -0.13,-0.06 -0.24,-0.13 -0.25,-0.28 -0.03,-0.54 0.4,0.07 0.41,-0.58 0,-0.58 -0.12,-1.14 -0.07,-1.85 0.03,-0.66 0.28,-1.16 0.33,-1.73 0.03,-0.32 0.03,-0.78 -0.17,-0.88 -0.48,-0.22 -0.34,-0.01 -0.29,0.41z"/>
    <path fill="#00A9B0" fill-rule="nonzero" d="M38.96 20.28l-2.85 -1.22 -0.18 0.42c0.15,0.09 0.7,0.27 0.9,0.34 0.25,0.08 2.09,1.41 2.3,1.37 0.22,-0.12 0.24,-0.38 0.62,-0.27 0.21,0.06 0.52,0.2 0.4,0.5l-0.48 0.02c0.01,0.15 0.19,0.21 0.42,0.34 0.12,0.06 0.4,-0.01 0.55,-0.05 0.39,-0.11 0.04,-0.11 0.21,-0.32 0.17,-0.19 0.11,-0.38 -0.09,-0.49 -0.82,-0.44 -1.03,-0.61 -1.59,-1.22 -0.23,-0.26 -0.45,-0.44 -0.66,-0.73 0,0 -0.31,-0.28 -0.37,-0.33 -0.07,-0.06 -0.47,-0.24 -0.32,-0.05 0.2,0.25 0.05,0.28 0.24,0.48 0.13,0.14 0.21,0.19 0.36,0.36 0.09,0.11 0.59,0.67 0.54,0.85z"/>
    <path fill="#00A9B0" fill-rule="nonzero" d="M30.71 30.89c0,0.88 -0.14,0.62 -0.22,0.8 -0.03,0.05 -0.06,0.34 -0.05,0.4 0.02,0.34 -0.09,0.09 -0.09,0.3l-0.01 0.65c-0.61,0.42 0.05,0.32 0.16,0.1 0.03,-0.1 0,-0.74 0.32,-0.74l0.16 0.29 0.39 -0.33c-0.05,-0.26 -0.15,0.06 -0.09,-0.37 0.03,-0.29 0.03,-0.18 0.21,-0.38 -0.09,-0.5 -0.02,-0.1 0.06,-0.44 0.06,-0.23 0.07,-0.33 0.14,-0.54 0.17,-0.55 0.4,-0.36 -0.05,-0.83 -0.2,-0.21 -0.57,-0.72 -0.64,0.04 -0.04,0.43 -0.29,0.42 -0.29,1.05z"/>
    <path fill="#00A9B0" fill-rule="nonzero" d="M26.54 38.96l0.05 1.07c-0.01,0.21 -0.07,0.51 -0.08,0.81l-0.05 1.5c0,0.1 0.03,0.23 0.1,0.26l0.27 -0.53c-0.08,-0.32 -0.03,-0.53 0.1,-0.91l0.24 -0.97c0,-0.25 -0.03,-0.68 -0.06,-0.89 -0.07,-0.41 -0.01,-0.54 -0.04,-0.88 -0.01,-0.19 0.32,-1.48 0.4,-1.58 0.34,-0.42 -0.28,-0.35 -0.33,-0.23 -0.07,0.2 -0.01,0.09 -0.16,0.25 -0.08,0.07 -0.07,0.29 -0.09,0.42 -0.09,0.49 -0.35,1.12 -0.35,1.68z"/>
    <path fill="#00A9B0" fill-rule="nonzero" d="M31.14 23.19c-0.34,0 -0.23,0.02 -0.56,-0.05l-0.08 0.27c0.06,0.18 0.5,0.35 0.78,0.4 0.44,0.07 0.6,-0.04 1.04,0.14 0.27,0.1 0.66,0.1 0.93,0.07 0.26,-0.04 0.65,0.25 0.73,-0.24 -0.01,-0.05 -0.41,-0.66 -0.61,-0.66 -0.41,0 -0.15,0.07 -0.51,0.07 -0.28,0 -0.59,-0.03 -0.85,-0.14 -0.39,-0.16 -0.53,0.14 -0.87,0.14z"/>
    <path fill="#00A9B0" fill-rule="nonzero" d="M30.66 23.96c-0.9,0.19 -1.08,0.06 -1.83,0.52 -0.24,0.14 -0.67,0.27 -0.48,0.59 0.11,0.16 0.22,0.08 0.33,0.27 0.12,0.22 -0.07,0.34 0.15,0.39 0.23,0.04 0.04,-0.08 0.33,-0.2 0,0 0.39,-0.19 0.39,-0.2 0.2,-0.12 0.48,-0.33 0.71,-0.47 0.25,-0.16 0.45,-0.35 0.7,-0.48 0.55,-0.29 -0.11,-0.46 -0.3,-0.42z"/>
    <path fill="#00A9B0" fill-rule="nonzero" d="M28.95 40.22l-0.14 2.06c0.24,0.02 0.27,-0.27 0.27,-0.45 0,-0.33 -0.09,-0.15 0.14,-0.36l-0.08 -0.58 0.2 -0.11c0,-0.06 0.05,-0.63 0.05,-0.71 0.01,-0.34 0.51,-1.31 0.39,-1.83 -0.06,-0.29 -0.34,-0.21 -0.44,0.02 -0.07,0.16 -0.14,0.4 -0.19,0.59 -0.03,0.16 -0.05,0.55 -0.05,0.73 0,0.44 -0.15,0.36 -0.15,0.64z"/>
    <path fill="#00A9B0" fill-rule="nonzero" d="M39.99 43.6l-0.29 -0.02c-0.16,0.33 0.02,1.25 0,1.68 -0.01,0.27 -0.05,0.64 -0.05,0.89 0.01,0.33 0.34,0.36 0.51,0.13l-0.04 0c0.04,-0.49 0.18,-2.04 0.19,-2.41 0,-0.45 -0.21,-0.88 -0.32,-0.27z"/>
    <path fill="#00A9B0" fill-rule="nonzero" d="M32.81 38.73l-0.56 0.69c0.54,0.27 0.68,-0.22 0.82,-0.48l0.99 -0.46c0.12,-0.12 -0.11,-0.08 0.25,-0.29 0.25,-0.15 0.05,-0.1 0.38,-0.19 0.14,-0.04 0.18,-0.12 0.37,-0.17 0.17,-0.03 0.12,-0.12 0.31,-0.25 0.22,-0.15 0.57,-0.2 0.74,-0.39 0.11,-0.13 0,-0.27 -0.15,-0.32 -0.14,-0.05 -0.2,0.07 -0.38,0.15 -0.26,0.13 -0.44,0.27 -0.64,0.48 -0.19,0.2 -0.47,0.17 -0.72,0.43 -0.15,0.16 -0.22,0.02 -0.38,0.19 -0.11,0.13 -0.11,0.24 -0.33,0.24 -0.34,0.02 -0.02,0.09 -0.49,0.33 -0.15,0.07 -0.1,-0.05 -0.21,0.04z"/>
    <path fill="#00A9B0" fill-rule="nonzero" d="M49.58 64.08c0,-0.33 -0.1,-1.4 -0.2,-1.65 -0.02,-0.06 -0.36,-0.48 -0.48,-0.13 -0.02,0.05 0.05,0.51 0.05,0.74 0,0.61 0.17,1.22 0.15,1.69 -0.04,0.67 0.49,0.49 0.48,-0.65z"/>
    <path fill="#00A9B0" fill-rule="nonzero" d="M47.07 39.81c0.29,0.16 0.25,0.13 0.58,-0.03 0.42,-0.21 0.22,0.04 0.49,-0.35 0.1,-0.06 0.1,0.04 0.32,-0.1 0.11,-0.06 0.2,-0.08 0.31,-0.15 0.11,-0.07 0.15,-0.14 0.25,-0.2 0.21,-0.14 0.15,-0.01 0.27,0.03 0.01,0 0.45,-0.46 0.42,-0.54 -0.19,-0.53 -1.73,0.71 -1.95,0.86 -0.39,0.27 -0.92,0.47 -1.32,0.72 -0.32,0.2 -0.29,0.5 0.1,0.26 0.29,-0.18 -0.03,-0.15 0.3,-0.21 0.34,-0.06 0.11,-0.1 0.23,-0.29z"/>
    <path fill="#00A9B0" fill-rule="nonzero" d="M34.41 18.82c0.29,0 0.01,-0.08 0.26,-0.15l0.01 0.32 0.63 0.14c0.19,0.09 0.41,0.36 0.44,0.38l0.19 -0.41c-0.08,-0.09 -0.07,-0.06 -0.32,-0.08 -0.2,-0.29 -0.14,-0.36 -0.54,-0.22 -0.28,-0.3 -0.31,-0.23 -0.79,-0.26 -0.44,-0.02 -0.71,-0.31 -0.85,-0.29 -0.98,0.13 0,0.23 0.1,0.27 0.11,0.06 0.75,0.3 0.87,0.3z"/>
    <path fill="#00A9B0" fill-rule="nonzero" d="M36.14 38.38c-0.26,0.13 -0.63,0.52 -0.92,0.54 -0.08,0 -0.4,0.16 -0.5,0.21 -0.22,0.11 -0.03,0.4 0.23,0.39 0.04,0 0.85,-0.47 0.95,-0.52 0.25,-0.16 0.21,-0.21 0.42,-0.33 0.25,-0.13 0.02,-0.39 -0.18,-0.29z"/>
    <path fill="#00A9B0" fill-rule="nonzero" d="M46.92 41.49c0.21,0.11 0.39,-0.02 0.59,-0.1 0.14,-0.07 0.11,-0.15 0.2,-0.23l0.28 -0.15c0.13,-0.07 0.12,-0.15 0.24,-0.18 0.47,-0.14 0.4,-0.26 0.56,-0.32 0.13,-0.05 0.21,-0.03 0.23,-0.18 -0.01,-0.05 -0.11,-0.15 -0.26,-0.14 -0.16,0 -0.17,0.08 -0.22,0.16 -0.11,0.17 -0.22,-0.03 -0.51,0.27 -0.08,0.08 -0.14,0.09 -0.25,0.15 -0.17,0.09 -0.09,0.11 -0.19,0.19 -0.01,0 -0.25,0.12 -0.27,0.13 -0.19,0.08 -0.12,0.09 -0.23,0.14 -0.14,0.08 -0.17,-0.01 -0.17,0.26z"/>
    <path fill="#00A9B0" fill-rule="nonzero" d="M29.88 21.41c0.17,-0.01 0.12,-0.08 0.25,-0.05 0.02,0 0.68,0.25 0.8,0.25 0.1,0 0.18,-0.03 0.28,-0.04 0.26,-0.03 0.1,0.18 0.32,0.11l0.33 -0.15c-0.03,-0.18 -0.23,-0.16 -0.37,-0.15 -0.19,0.01 -0.29,-0.06 -0.37,-0.16 -0.18,0.01 -0.09,0.08 -0.26,0.01 -0.16,-0.08 -0.12,-0.06 -0.31,-0.05 -0.07,-0.09 0,-0.07 -0.1,-0.11 -0.17,0 -0.58,-0.09 -0.58,-0.09 -0.24,0.05 -0.12,0.32 0.01,0.43z"/>
    <path fill="#00A9B0" fill-rule="nonzero" d="M57.4 67.16c-0.04,-0.11 -0.18,-0.1 -0.26,-0.19 -0.08,-0.08 -0.21,-0.34 -0.21,-0.02 0,0.08 0.05,0.09 0.1,0.2 0.04,0.08 0.22,0.28 0.16,0.41 -0.06,0.11 -0.08,-0.01 -0.17,-0.01 -0.11,0 -0.23,0.1 -0.35,0.15 -0.2,0.09 -0.21,0.02 -0.4,0.02 -0.41,0 -0.35,0.27 -0.03,0.3 0.13,0.01 0.13,-0.02 0.22,-0.04 0.1,-0.01 0.1,0.01 0.21,0.01 0.19,0 0.16,-0.06 0.25,-0.12 0.12,-0.07 0.09,0.02 0.21,0.07l0.07 -0.19c0.28,-0.01 0.26,0.19 0.47,0.12 0.06,-0.19 -0.02,-0.27 -0.16,-0.39 -0.13,-0.1 -0.05,-0.19 -0.11,-0.32z"/>
    <path fill="#00A9B0" fill-rule="nonzero" d="M40.7 31.08c-0.02,-0.2 0,0 -0.15,-0.27 -0.11,-0.18 -0.2,-0.3 -0.35,-0.45 -0.1,-0.1 -0.03,-0.11 -0.18,-0.25 -0.24,-0.22 -0.36,-0.42 -0.6,-0.63 -0.06,-0.06 -0.16,-0.21 -0.26,-0.07 -0.06,0.08 0.03,0.22 0.09,0.27 0.17,0.15 0.06,0.06 0.18,0.22 0.08,0.11 0.15,0.06 0.21,0.19 0.04,0.08 0.01,0.08 0.06,0.15 0.05,0.06 0.06,0.02 0.12,0.09 0.04,0.04 0.03,0.07 0.07,0.12 0.06,0.07 0.06,0.05 0.11,0.1 0.08,0.08 0.09,0.15 0.19,0.25 0.12,0.12 0.3,0.33 0.51,0.28z"/>
    <path fill="#00A9B0" fill-rule="nonzero" d="M46.48 20.68l-0.16 0.03c0,0.12 0.1,0.17 0.05,0.34 -0.06,0.22 -0.04,0.24 0.05,0.38 0.24,0.02 0.4,-0.08 0.38,-0.3 -0.01,-0.14 -0.07,-0.13 -0.07,-0.27 -0.01,-0.2 0.03,-0.07 -0.03,-0.26 -0.07,-0.22 0.04,-0.42 -0.1,-0.61 -0.09,-0.13 -0.07,-0.06 -0.09,-0.26 -0.01,-0.13 -0.03,-0.17 -0.16,-0.17 -0.02,0.12 0.04,0.33 0.02,0.56 -0.01,0.18 0.1,0.36 0.11,0.56z"/>
    <path fill="#00A9B0" fill-rule="nonzero" d="M48.87 42.04c0.09,0 0.21,-0.17 0.36,-0.25 0.2,-0.11 0.33,-0.11 0.33,-0.34 0,-0.56 -0.73,-0.08 -0.88,0.14 -0.11,0.17 -0.18,0.1 0.03,0.37 0.04,0.05 0.07,0.08 0.16,0.08z"/>
    <path fill="#00A9B0" fill-rule="nonzero" d="M29.34 35.96c0.45,0 0.23,-0.05 0.4,-0.61 0.05,-0.15 0.09,-0.04 0.19,-0.14 -0.04,-0.13 -0.43,-0.24 -0.58,-0.21 -0.04,0.07 -0.06,0.14 -0.04,0.24 0.06,0.21 0.02,0.08 -0.03,0.25 -0.03,0.12 0.03,0.1 -0.01,0.26 -0.04,0.16 -0.01,0.1 0.07,0.21z"/>
    <path fill="#00A9B0" fill-rule="nonzero" d="M28.81 27.35c0.02,0.09 0.09,0.2 0.22,0.21 0.04,-0.08 0.05,-0.17 0.09,-0.25 0.05,-0.07 0.09,-0.08 0.14,-0.21 0.05,-0.13 0.02,-0.25 0.03,-0.28 0.04,-0.15 0.18,0.05 0.18,-0.19 0,-0.12 -0.06,-0.1 -0.14,-0.15 -0.02,-0.01 -0.26,-0.32 -0.28,0.09 -0.01,0.23 -0.03,0.13 -0.11,0.25 -0.07,0.11 -0.02,0.16 -0.04,0.28 -0.03,0.16 -0.08,0.07 -0.09,0.25z"/>
    <path fill="#00A9B0" fill-rule="nonzero" d="M36.88 39.99c0.09,0 0.1,-0.01 0.17,-0.06 0.23,-0.16 0.13,0.03 0.39,-0.25 0.08,-0.09 0.18,-0.11 0.22,-0.22 0.05,-0.16 -0.01,-0.25 -0.16,-0.25 -0.2,-0.01 -0.2,0.04 -0.27,0.15 -0.06,0.1 -0.14,0.15 -0.24,0.19 -0.2,0.11 0.05,-0.03 -0.21,0.22 -0.1,0.1 -0.09,0.22 0.1,0.22z"/>
    <path fill="#00A9B0" fill-rule="nonzero" d="M54.41 68.05c0.09,-0.47 -0.19,-0.25 -0.58,-0.25 -0.16,0 -0.41,0.06 -0.52,0.12 -0.17,0.1 -0.14,0.27 0.09,0.27 0.27,0 0.31,-0.14 0.47,-0.13 0.22,0.02 0.29,0.06 0.54,-0.01z"/>
    <path fill="#00A9B0" fill-rule="nonzero" d="M54.98 68.19c-0.16,0.23 -0.68,0.73 0.01,0.44 0.14,-0.06 0.13,0.02 0.24,-0.08 0.14,-0.14 -0.01,-0.05 0.2,-0.13 0.06,-0.01 0.29,-0.22 0.32,-0.28 -0.04,-0.09 -0.11,-0.14 -0.23,-0.15 -0.12,0.03 0.03,0.19 -0.54,0.2z"/>
    <path fill="#00A9B0" fill-rule="nonzero" d="M46.9 21.3c0.07,0.05 0.25,0.11 0.35,0.11 0.07,-0.07 0.09,-0.05 0.08,-0.2 -0.06,-0.05 -0.11,-0.04 -0.16,-0.11 0.06,-0.19 0.12,0.03 0.12,-0.29 0,-0.11 0,-0.07 -0.03,-0.13 -0.15,0.01 -0.09,0 -0.13,0.12 -0.05,0.17 -0.23,0.2 -0.23,0.5z"/>
    <path fill="#00A9B0" fill-rule="nonzero" d="M64.21 80.03c0,0.22 0.1,0.13 0.17,0.34 0.15,0.41 0.4,0.05 0.15,-0.29 -0.11,-0.14 -0.17,-0.11 -0.32,-0.05z"/>
    <path fill="#00A9B0" fill-rule="nonzero" d="M32.46 18.19c0.27,0 0.25,0.02 0.3,-0.09 -0.07,-0.09 -0.2,-0.07 -0.32,-0.09 -0.12,-0.03 -0.36,-0.17 -0.41,-0.01 -0.03,0.15 0.08,0.13 0.08,0.13 0.05,0.02 0.1,0 0.17,0.02 0.08,0.02 0.06,0.04 0.18,0.04z"/>
    <path fill="#00A9B0" fill-rule="nonzero" d="M29.99 34c-0.01,0.17 0.02,0.03 0.02,0.16 -0.01,0.09 -0.08,0.05 0.01,0.16 0.17,-0.02 0.02,-0.08 0.19,-0.18 0.11,-0.08 0.18,-0.04 0.28,-0.09 0.04,-0.21 -0.07,-0.15 -0.21,-0.15 -0.21,0 -0.13,-0.01 -0.29,0.1z"/>
    <path fill="#00A9B0" fill-rule="nonzero" d="M50.8 24.3c0.01,0.15 0.13,0.59 0.33,0.38 0.09,-0.1 -0.01,-0.2 -0.06,-0.26 -0.09,-0.11 -0.08,-0.14 -0.27,-0.12z"/>
    <path fill="#00A9B0" fill-rule="nonzero" d="M63.57 78.78c-0.01,0.04 0,0.16 0.01,0.2l0.09 0.15c0.04,0.07 0.04,0.08 0.14,0.08 0.05,-0.17 0.04,-0.13 -0.03,-0.28 -0.06,-0.13 -0.02,-0.15 -0.09,-0.27 -0.09,0.01 -0.11,0.01 -0.12,0.12z"/>
    <path fill="#00A9B0" fill-rule="nonzero" d="M44.09 41.7c0.02,0.21 0.26,0.19 0.36,0.09 0.08,-0.07 0.06,-0.04 0.05,-0.18 -0.15,-0.02 -0.3,-0.03 -0.41,0.09z"/>
    <path fill="#00A9B0" fill-rule="nonzero" d="M52.46 54.75c0.15,0.02 0.17,-0.01 0.22,-0.12 0.12,-0.23 -0.07,-0.53 -0.16,-0.19 -0.02,0.11 -0.06,0.19 -0.06,0.31z"/>
    <path fill="#00A9B0" fill-rule="nonzero" d="M28.86 42.89c0.11,0 0.09,-0.03 0.12,-0.12 0.05,-0.16 0.05,-0.14 0.04,-0.29 -0.14,0 -0.13,0.06 -0.17,0.17 -0.02,0.06 -0.09,0.24 0.01,0.24z"/>
    <path fill="#00A9B0" fill-rule="nonzero" d="M64.33 79.87c0.03,-0.04 0.03,-0.03 -0.04,-0.08 -0.27,-0.22 -0.08,-0.22 -0.27,-0.23 -0.03,0.27 0.06,0.29 0.22,0.32 0.14,0.02 0.05,0.03 0.09,-0.01z"/>
    <path fill="#00A9B0" fill-rule="nonzero" d="M28.61 28.13c0,0.11 0.03,0.15 0.14,0.13 0.1,-0.01 0.15,-0.03 0.16,-0.13 -0.05,-0.05 -0.3,-0.21 -0.3,0z"/>
    <path fill="#00A9B0" fill-rule="nonzero" d="M54.97 67.82c0.17,-0.01 0.21,-0.11 0.2,-0.28 -0.22,-0.06 -0.25,0.08 -0.2,0.28z"/>
    <path fill="#00A9B0" fill-rule="nonzero" d="M37.99 28.23c0,0.11 0.06,0.09 0.23,0.09 0.09,0 0.2,-0.17 -0.08,-0.17 -0.08,0 -0.15,0.01 -0.15,0.08z"/>
    <path fill="#00A9B0" fill-rule="nonzero" d="M45.49 40.78l0.22 0.02c0.03,-0.08 0.05,-0.07 0.06,-0.15 -0.03,-0.04 -0.07,-0.12 -0.21,-0.04 -0.08,0.05 -0.08,0.05 -0.07,0.17z"/>
    <path fill="#00A9B0" fill-rule="nonzero" d="M44.58 16.95c0,0 0.2,0.33 0.29,0.24 0.01,-0.01 0.1,-0.14 -0.06,-0.19 -0.05,-0.02 -0.18,-0.05 -0.23,-0.05z"/>
    <path fill="#00A9B0" fill-rule="nonzero" d="M45.77 40.37c0.01,0.12 0,0.09 0.1,0.14 0.05,0.03 0.13,0.08 0.18,0 0.09,-0.15 -0.21,-0.18 -0.28,-0.14z"/>
    <path fill="#00A9B0" fill-rule="nonzero" d="M30.81 33.67c-0.1,0.34 0.28,0.19 0.18,0.03 0,-0.01 0.01,-0.03 -0.07,-0.05 -0.03,-0.01 -0.1,0.01 -0.11,0.02z"/>
    <path fill="#00A9B0" fill-rule="nonzero" d="M31.49 29.47c0.03,0.07 0.04,0.12 0.14,0.14 0.17,-0.19 -0.04,-0.31 -0.14,-0.14z"/>
    <path fill="#00A9B0" fill-rule="nonzero" d="M20.61 77.63c0.12,0 0.17,-0.05 0.12,-0.18l-0.1 -0.01c-0.08,-0.01 -0.04,0.14 -0.02,0.19z"/>
    <path fill="#00A9B0" fill-rule="nonzero" d="M52.26 54.87c-0.08,0.29 0.19,0.22 0.14,0l-0.14 0z"/>
    <path fill="#00A9B0" fill-rule="nonzero" d="M51.51 67.01c0.09,0 0.14,-0.02 0.14,-0.11 0,-0.08 -0.03,-0.09 -0.11,-0.1 -0.03,0.09 -0.03,0.09 -0.03,0.21z"/>
    <path fill="#00A9B0" fill-rule="nonzero" d="M28.78 79.44c-0.07,-0.03 -0.16,-0.06 -0.22,0.04 0.03,0.02 0.01,0.09 0.14,0.06 0.1,-0.02 0.07,-0.03 0.08,-0.1z"/>
    <path fill="#00A9B0" fill-rule="nonzero" d="M21.63 80.12c0.07,0.04 0.15,0.06 0.22,-0.03 -0.03,-0.05 -0.03,-0.09 -0.15,-0.06 -0.06,0.01 -0.05,0.03 -0.07,0.09z"/>
    <path fill="#00A9B0" fill-rule="nonzero" d="M47.36 68.74c0.03,0.09 0.24,0.08 0.11,-0.11 -0.08,0.01 -0.14,0 -0.11,0.11z"/>
    <path fill="#00A9B0" fill-rule="nonzero" d="M30.84 34.07c-0.03,0.06 -0.03,-0.07 -0.03,0.06 0.01,0.1 0.08,0.11 0.17,0.12 -0.04,-0.14 -0.05,-0.19 -0.14,-0.18z"/>
    <path fill="#00A9B0" fill-rule="nonzero" d="M18.91 14.3l-0.15 -0.01c-0.01,0.09 -0.02,0.14 0.08,0.14 0.09,0 0.08,-0.04 0.07,-0.13z"/>
    <path fill="#00A9B0" fill-rule="nonzero" d="M30.55 60.44c-0.02,0.14 0,0.13 0.14,0.13l-0.03 -0.14 -0.11 0.01z"/>
    <path fill="#00A9B0" fill-rule="nonzero" d="M22.68 78.49l0 -0.12c-0.2,0 -0.24,0.12 0,0.12z"/>
    <path fill="#00A9B0" fill-rule="nonzero" d="M32.67 76.9c0.14,-0.01 0.19,-0.06 0.05,-0.14 -0.08,0.05 -0.05,0.02 -0.05,0.14z"/>
    <path fill="#00A9B0" fill-rule="nonzero" d="M17.6 79.54c0.05,-0.01 0.03,0.01 0.08,-0.02 0.05,-0.02 0.01,0 0.04,-0.04 -0.02,-0.08 0.01,-0.07 -0.12,-0.09l0 0.15z"/>
   </g>
   <path fill="#00A9B0" fill-rule="nonzero" d="M41.57 65.89c-1.26,0 1,-0.78 1.45,-0.78l0.03 0c0.32,0 -0.36,0.56 -0.42,0.6 -0.14,0.07 -0.83,0.18 -1.06,0.18zm3.52 -1.33c-0.03,-0.21 0.08,-0.26 0.18,-0.42 0.16,-0.26 0.11,-0.35 0.28,-0.31 -0.01,0.13 -0.26,0.19 0.17,0.21 0,0.09 -0.14,0.22 -0.25,0.35 -0.1,0.12 -0.17,0.23 -0.38,0.17zm-14.13 -3.97c-0.04,-0.14 -0.06,-0.2 0.05,-0.26 0.04,0.04 0.08,0.16 0.1,0.23 -0.05,0.02 -0.08,0.03 -0.15,0.03zm23.49 -8.12c0,-0.11 0.06,-0.19 0.15,-0.23l-0.01 0.2 -0.14 0.03zm-0.25 -2.15c-0.06,-0.21 -0.03,-1.08 0.21,-1.25 0.21,0.05 0.3,0.47 0.2,0.7 -0.08,0.15 -0.11,0.06 -0.17,0.32 -0.04,0.15 -0.07,0.17 -0.24,0.23zm1.29 -4.13c-0.97,0 -1.12,-1.11 -0.33,-0.59 0.27,0.18 0.42,-0.34 0.76,-0.02 0.24,0.23 0.12,0.61 -0.22,0.61l-0.21 0zm0.74 -2.23c0.31,-0.11 0.62,0.46 0.52,0.81 -0.03,0.11 -0.18,0.15 -0.27,0.18 -0.65,0.16 -0.56,-0.87 -0.25,-0.99zm-0.05 -7.62c-0.16,0.01 -0.43,0.03 -0.52,-0.07 -0.13,-0.22 0.07,-0.72 0.09,-0.94 0.07,-0.7 0.24,-0.34 0.38,-0.66 0,-0.79 -0.2,-1.56 -0.17,-2.33 0.01,-0.33 -0.11,-1.9 -0.41,-2l-0.25 0.33c-0.26,-0.04 -0.18,-0.35 -0.3,-0.35 -0.13,0 -0.07,0.38 -0.01,0.48 0.2,0.34 0.29,0.52 0.33,0.97 0.09,0.9 0.26,1.34 0.08,2.3 -0.03,0.17 -0.02,0.44 -0.05,0.63 -0.06,0.35 0.07,0.27 0.05,0.52 -0.02,0.22 -0.17,1.09 -0.17,1.11 0.05,0.64 -0.09,0.36 -0.49,0.73 -0.03,0.02 -0.28,0.34 -0.29,0.36 -0.06,0.21 0.18,0.32 0.33,0.23 0.03,-0.02 0.9,-1.43 1.65,-0.89 0.22,0.17 0.1,0.33 0.13,0.44 0.04,0.1 0.18,0.27 0.16,0.5 -0.01,0.11 -0.15,0.33 -0.21,0.46 -0.09,0.18 -0.05,0.35 -0.09,0.56 -0.09,0.43 -0.1,0.63 -0.16,1.12 -0.05,0.4 0.27,0.37 -0.13,0.97 -0.41,0.62 -0.11,2.09 -0.4,2.21l-0.58 -0.09c-0.13,0.57 0.64,0.33 0.52,1.11l-0.53 -0.04c-0.25,0.2 0.19,0.65 0.22,0.8 0.07,0.36 -0.48,0.32 -0.67,0.19 -0.11,-0.08 -0.28,-0.69 -0.21,-0.84 0.13,-0.25 0,-0.62 -0.01,-0.98 -0.03,-0.75 -0.02,-1.38 -0.07,-2.07 -0.06,-0.71 0.03,-1.43 -0.04,-2.05 -0.14,-1.27 -0.28,-2.59 -0.29,-3.9 0,-0.68 -0.14,-1.48 -0.12,-2.1 0,-0.2 -0.1,-2.06 -0.46,-1.66 -0.27,0.23 0.32,2.92 0.33,2.95l-0.18 0.17c0,0.56 0.05,1.23 0.11,1.8 0.02,0.2 0.11,0.66 0.1,0.82 -0.01,0.36 -0.1,0.41 0.03,0.81 0.12,0.36 0.03,0.55 0.06,0.8 0.02,0.2 0.12,0.48 0.13,0.81 0.02,0.47 0.2,1.35 -0.13,1.53 0.31,0.24 0.24,1.51 0.24,2.03 0,0.22 0.06,0.34 0.02,0.57 -0.02,0.11 -0.1,0.42 -0.09,0.5 0,0.17 0.06,0.93 -0.05,1.02l-0.17 -0.02c-0.22,0.45 0.32,1.2 0.33,2.28 0.01,0.08 -0.17,1.11 -0.2,1.21 -0.05,0.17 -0.16,0.31 -0.1,0.57 0.08,0.33 -0.02,0.2 -0.02,0.55 0.01,0.4 -0.07,0.37 -0.08,0.58 -0.01,0.23 0.11,-0.04 0,0.48 -0.05,0.25 0.15,0.26 0.09,0.53 -0.05,0.26 -0.18,0.21 -0.15,0.52 0.02,0.22 -0.13,0.34 -0.24,0.45 -0.23,0.22 -0.04,0.21 -0.24,0.46 -0.07,0.09 -0.09,0.14 -0.14,0.22 -0.11,0.2 -0.02,-0.01 -0.16,0.18 -0.13,0.17 -0.08,0.34 -0.08,0.58 0,0.01 -0.44,0.39 -0.04,0.45 0.35,-0.29 0.63,-1.6 1.13,-1.52 0.09,0.33 -0.13,0.7 -0.22,0.9 -0.09,0.18 0.01,0.33 -0.08,0.52 -0.12,0.25 -0.08,0.1 -0.13,0.42 -0.02,0.1 -0.76,1.81 -0.97,1.96 -0.21,0.16 -0.13,0.04 -0.3,0.29 -0.17,0.25 -0.24,0.43 -0.4,0.75l-0.66 1.11c-0.24,0.3 -0.02,0.18 -0.3,0.17 -0.02,0.5 0.03,0.24 -0.26,0.56 -0.35,0.37 0.03,0.17 -0.55,0.33l0.2 0.31c-0.02,0.01 -0.58,0.25 -0.71,0.34 -0.18,0.12 -0.12,0.15 -0.24,0.27 -0.11,0.09 -0.24,0.08 -0.36,0.15 -0.3,0.2 -0.88,0.65 -1.15,0.89 -0.18,0.16 -0.33,0.34 -0.52,0.52 -0.15,0.14 -0.18,0.11 -0.3,0.21 -0.12,0.08 -0.05,0.14 -0.21,0.3 -0.11,0.11 -0.34,0.43 -0.49,0.52 -0.21,0.13 -0.12,0.18 -0.26,0.26 -0.33,0.18 -0.05,0.14 -0.24,0.27l-0.4 -0.08c0.01,-0.08 0.04,-0.22 0.01,-0.29 -0.41,-0.45 -1.85,1.67 -2.19,1.69 -0.27,-0.21 0.07,-0.33 -0.32,-0.42 -0.16,-0.04 -0.39,-0.11 -0.58,-0.09 -0.45,0.04 -0.3,0.06 -0.53,0.19 -0.17,0.1 -0.07,-0.06 -0.25,0.05 -0.09,0.05 -0.04,0.09 -0.16,0.18 -0.32,0.23 -0.78,0.26 -1.04,0.39 -0.18,0.1 -0.37,0.05 -0.6,0.03 -0.44,-0.04 -0.27,-0.08 -0.49,-0.21 -0.34,0.12 -0.27,0.26 -0.87,0.09 -0.23,-0.07 -0.59,-0.15 -0.83,-0.24 -0.29,-0.11 -0.49,-0.25 -0.74,-0.33 -0.21,-0.07 -0.61,-0.16 -0.81,-0.26 -0.39,-0.2 -1.07,-0.54 -1.41,-0.76 -0.21,-0.13 -0.46,-0.4 -0.59,-0.49 -0.15,-0.1 -0.19,-0.03 -0.32,-0.22 -0.15,-0.23 -0.13,-0.06 -0.31,-0.22 -0.54,-0.45 -1.07,-1.18 -1.56,-1.68 -0.15,-0.16 -0.06,-0.21 -0.24,-0.3 -0.23,-0.11 -0.16,-0.04 -0.24,-0.29 -0.03,-0.1 -0.1,-0.27 -0.15,-0.39 -0.11,-0.25 -0.13,0.03 -0.25,-0.28 -0.12,-0.3 -0.15,-0.05 -0.21,-0.34 -0.06,-0.28 -0.05,-0.17 -0.18,-0.35 -0.17,-0.22 -0.15,-0.47 -0.36,-0.71 -0.12,-0.15 -0.06,-0.19 -0.2,-0.34 -0.27,-0.29 0,-0.16 -0.12,-0.31 -0.09,-0.13 -0.14,-0.02 -0.19,-0.19 -0.04,-0.14 0.03,-0.14 -0.11,-0.26 -0.19,-0.18 -0.13,-0.3 -0.24,-0.53 -0.36,-0.72 -0.52,-1.7 -0.8,-2.32 -0.08,-0.17 -0.12,-0.39 -0.2,-0.57 -0.28,-0.6 -0.02,-0.3 0,-0.5 -0.56,-0.16 -0.61,-0.82 -0.76,-1.42 -0.07,-0.31 -0.11,-0.61 -0.16,-0.92 -0.07,-0.43 0,-0.59 -0.03,-0.93 -0.08,-0.85 0,-1.13 0.12,-1.9 0.07,-0.42 0.33,-0.44 0.19,-0.81 -0.05,-0.15 -0.02,-0.62 0.08,-0.84 0.1,-0.2 0.18,0.07 0.26,-0.34 0.05,-0.22 0.09,-0.23 0.22,-0.38 0.01,-0.02 0.24,-0.73 0.27,-0.85 0.09,-0.27 0.27,-0.64 0.23,-0.94 -0.02,-0.15 -0.12,-0.32 -0.06,-0.45 0.07,-0.16 0.13,-0.17 0.02,-0.43 -0.21,-0.16 -1.9,0.17 -1.91,-0.32l-0.37 0.15c0.01,0.31 0.76,0.56 1.07,0.64 1.25,0.31 0.48,0.97 0.28,2.12 -0.09,0.54 -0.44,0.28 -0.35,1.13l-0.24 0.15c0.01,0.2 0.16,0.08 0.02,0.42 -0.11,0.25 -0.11,0.15 -0.26,0.28 0.12,0.59 -0.35,0.64 -0.13,1 0.38,0.65 0.04,0.3 0.12,1.05 0.1,0.98 -0.28,1.1 0,2.25 0.05,0.2 0.28,1 0.29,1.05 0.04,0.45 -0.03,0.07 0.12,0.46 0.21,0.57 0.3,0.85 0.57,1.43 0.19,0.42 0.16,0.66 0.26,1.03l0.06 -0.04 0.96 1.89c0.07,0.09 0.16,0.04 0.34,0.28 0.16,0.21 0.06,0.16 0.28,0.34 0.18,0.15 0.05,0.2 0.19,0.42 0.1,0.16 0.14,0.13 0.26,0.33 0.14,0.24 0.3,0.51 0.45,0.76 0.1,0.17 -0.03,0.65 0.1,1 0.39,1 2.48,1.97 2.4,2.44 0.34,-0.16 0.9,0.63 1.15,0.79 0.2,0.13 0.46,0.22 0.67,0.34 0.27,0.16 0.29,0.25 0.6,0.43 0.2,0.1 0.47,0.3 0.38,0.63 -0.06,0.19 -0.13,0.08 -0.2,0.32 -0.03,0.14 -0.01,0.33 -0.02,0.48 -0.03,0.36 0.17,0.33 0.13,0.84 -0.03,0.3 -0.08,0.6 0,0.92 0.37,0.09 0.36,-0.32 0.41,-0.57 0.08,-0.4 0.26,-0.32 0.53,-0.48l0.12 -1.61c0.53,0.04 2.1,0.96 2.83,1.1 0.56,0.1 0.96,0.26 1.58,0.34 0.61,0.07 1.07,0.04 1.76,0.04l0.34 -0.3 -0.32 -0.01c-0.03,-0.2 0.29,-0.16 0.44,-0.27 0.29,-0.2 0.27,-0.02 0.47,-0.01 0.11,-0.11 0.01,-0.15 0.16,-0.25l0.67 -0.54c0.26,-0.22 0.71,-0.41 0.88,-0.69 0.08,-0.12 0.76,-0.48 0.92,-0.69 0.24,-0.33 -0.1,-0.71 0.57,-1.03l0.16 0.34c0.38,0.32 0.49,-0.56 0.97,-1.02 0.3,-0.28 0.09,0.01 0.27,-0.36 0.02,-0.04 0.74,-0.48 0.82,-0.54 0.3,-0.22 0.37,-0.45 0.69,-0.67 0.26,-0.18 0.32,-0.52 0.63,-0.74 0.3,-0.2 0.46,-0.44 0.7,-0.66 1.1,-1 0.73,-1.31 0.88,-1.76 0.06,-0.2 0.15,-0.29 0.24,-0.46 0.15,-0.29 0.16,0 0.28,-0.33 0.06,-0.14 0.03,-0.29 0.12,-0.52 0.11,-0.29 0.19,-0.02 0.25,-0.43 0.13,-0.88 0.24,-0.49 0.4,-0.95 0.06,-0.15 0.48,-0.72 0.59,-0.79 0.32,-0.23 0.04,-0.61 0.14,-1.06 0.13,-0.61 0.41,-0.18 0.58,-0.78 0.22,-0.76 -0.05,-1.74 -0.06,-2.44 0,-0.34 0.08,-0.1 0,-0.53 -0.03,-0.13 0.01,-0.2 -0.02,-0.28 -0.07,-0.21 -0.1,0.04 -0.08,-0.17 0.03,-0.19 -0.35,-1.83 -0.37,-2.28 -0.03,-0.63 0.51,-0.34 0.83,-0.25 0.3,0.08 0.85,0.04 1.07,-0.12 0.47,-0.31 -0.01,-0.67 0.15,-1.01 0.06,-0.14 0.59,-0.13 0.74,-0.63 0.22,-0.75 -0.97,-1.34 -1.07,-1.63 -0.17,-0.5 0.03,-0.84 0.13,-1.15 0.11,-0.35 0.12,-0.8 0.16,-1.16 0.08,-0.71 0.47,-1.53 0.43,-2.28 -0.01,-0.29 -0.01,-0.93 0.05,-1.12 0.09,-0.34 -0.05,-0.83 -0.31,-0.97 -0.25,-0.13 -0.17,-0.17 -0.51,-0.16z"/>
   <path fill="#00A9B0" fill-rule="nonzero" d="M44.19 72.68c0.14,0.04 0.24,0.02 0.29,-0.12 0,0 0.02,-0.07 -0.17,0 0,0 -0.07,0.03 -0.07,0.03 -0.06,0.05 -0.03,0.01 -0.05,0.09z"/>
   <path fill="#00A9B0" fill-rule="nonzero" d="M30.96 60.59c0.07,0 0.1,-0.01 0.15,-0.03 -0.02,-0.07 -0.06,-0.19 -0.1,-0.23 -0.11,0.06 -0.09,0.12 -0.05,0.26z"/>
  </g>
 </g>
</svg>
