<?xml version="1.0" encoding="UTF-8"?>
<!DOCTYPE svg PUBLIC "-//W3C//DTD SVG 1.1//EN" "http://www.w3.org/Graphics/SVG/1.1/DTD/svg11.dtd">
<!-- Creator: CorelDRAW 2019 (64-Bit) -->
<svg xmlns="http://www.w3.org/2000/svg" xml:space="preserve" width="20px" height="20px" version="1.1" style="shape-rendering:geometricPrecision; text-rendering:geometricPrecision; image-rendering:optimizeQuality; fill-rule:evenodd; clip-rule:evenodd"
viewBox="0 0 0.37 0.37"
 xmlns:xlink="http://www.w3.org/1999/xlink"
 xmlns:xodm="http://www.corel.com/coreldraw/odm/2003">
 <defs>
  <style type="text/css">
   <![CDATA[
    .fil0 {fill:white}
   ]]>
  </style>
 </defs>
<path class="fil0" d="M0.29 0.17l0 0.03c0,0.01 0,0.01 -0.01,0.01l-0.07 0 0 0.07c0,0.01 0,0.01 -0.01,0.01l-0.03 0c0,0 -0.01,0 -0.01,-0.01l0 -0.07 -0.07 0c-0.01,0 -0.01,0 -0.01,-0.01l0 -0.03c0,0 0,-0.01 0.01,-0.01l0.07 0 0 -0.07c0,-0.01 0.01,-0.01 0.01,-0.01l0.03 0c0.01,0 0.01,0 0.01,0.01l0 0.07 0.07 0c0.01,0 0.01,0.01 0.01,0.01zm0.08 -0.13l0 0.29c0,0.03 -0.01,0.04 -0.04,0.04l-0.29 0c-0.02,0 -0.04,-0.01 -0.04,-0.04l0 -0.29c0,-0.02 0.02,-0.04 0.04,-0.04l0.29 0c0.03,0 0.04,0.02 0.04,0.04zm-0.04 0.29l0 -0.28c0,-0.01 0,-0.01 0,-0.01l-0.28 0c-0.01,0 -0.01,0 -0.01,0.01l0 0.28c0,0 0,0 0.01,0l0.28 0c0,0 0,0 0,0z"/>
</svg>
